<svg width="260" height="78" viewBox="0 0 260 78" fill="none" xmlns="http://www.w3.org/2000/svg">
<path d="M92.4303 9.28H103.07V11.28L99.5103 11.76L106.11 30.52L107.59 35.4L108.91 30.44L114.87 11.76L111.71 11.28V9.28H120.63V11.28L118.07 11.76L108.59 39.32H105.11L94.8703 11.76L92.4303 11.28V9.28ZM131.507 39.44C128.281 39.44 125.814 38.3867 124.107 36.28C122.427 34.1733 121.587 31.36 121.587 27.84C121.587 25.52 122.027 23.48 122.907 21.72C123.787 19.96 125.014 18.6 126.587 17.64C128.187 16.68 130.001 16.2 132.027 16.2C134.507 16.2 136.427 16.8933 137.787 18.28C139.174 19.64 139.907 21.6 139.987 24.16C139.987 25.7867 139.894 27.0267 139.707 27.88H125.947C126.001 30.52 126.614 32.6533 127.787 34.28C128.961 35.88 130.627 36.68 132.787 36.68C133.854 36.68 134.961 36.4933 136.107 36.12C137.281 35.72 138.187 35.2533 138.827 34.72L139.587 36.48C138.814 37.28 137.667 37.9733 136.147 38.56C134.627 39.1467 133.081 39.44 131.507 39.44ZM135.587 25.76C135.667 25.2 135.707 24.6267 135.707 24.04C135.681 22.3067 135.307 20.9467 134.587 19.96C133.894 18.9467 132.787 18.44 131.267 18.44C129.721 18.44 128.481 19 127.547 20.12C126.641 21.24 126.121 23.12 125.987 25.76H135.587ZM146.625 19.44H142.865V17.6L146.625 16.84V14.96C146.625 13.3067 147.052 11.7867 147.905 10.4C148.785 9.01333 149.918 7.92 151.305 7.12C152.718 6.29333 154.212 5.88 155.785 5.88C156.692 5.88 157.478 6 158.145 6.24V10.24C157.905 10.0267 157.425 9.82666 156.705 9.64C156.012 9.42667 155.238 9.32 154.385 9.32C153.132 9.32 152.212 9.65333 151.625 10.32C151.065 10.96 150.785 12.08 150.785 13.68V16.84H156.305V19.44H150.785V36.72L155.225 37.04V39H143.225V37.04L146.625 36.68V19.44ZM163.161 35.8C163.427 36.2 163.987 36.56 164.841 36.88C165.721 37.2 166.641 37.36 167.601 37.36C169.121 37.36 170.241 37.0667 170.961 36.48C171.681 35.8933 172.041 35.08 172.041 34.04C172.041 33.32 171.814 32.6933 171.361 32.16C170.907 31.6267 170.267 31.16 169.441 30.76C168.641 30.3333 167.481 29.8267 165.961 29.24C163.907 28.4667 162.401 27.5467 161.441 26.48C160.507 25.3867 160.041 23.96 160.041 22.2C160.041 21.0267 160.387 20 161.081 19.12C161.801 18.24 162.774 17.56 164.001 17.08C165.254 16.5733 166.641 16.32 168.161 16.32C169.387 16.32 170.454 16.4133 171.361 16.6C172.294 16.7867 173.041 16.9733 173.601 17.16C174.161 17.3467 174.534 17.4667 174.721 17.52V22.48H172.281L171.481 19.52C171.321 19.2 170.894 18.9333 170.201 18.72C169.507 18.48 168.734 18.36 167.881 18.36C166.681 18.36 165.707 18.6267 164.961 19.16C164.241 19.6933 163.881 20.4133 163.881 21.32C163.881 22.12 164.067 22.7867 164.441 23.32C164.841 23.8267 165.334 24.24 165.921 24.56C166.507 24.88 167.307 25.2533 168.321 25.68L169.121 26C170.614 26.5867 171.827 27.1467 172.761 27.68C173.694 28.2133 174.467 28.92 175.081 29.8C175.721 30.6533 176.041 31.7067 176.041 32.96C176.041 34.9333 175.267 36.5067 173.721 37.68C172.201 38.8533 170.107 39.44 167.441 39.44C166.134 39.44 164.761 39.2667 163.321 38.92C161.907 38.5467 160.747 38.1733 159.841 37.8V32.68H162.441L163.161 35.8ZM183.356 35.8C183.623 36.2 184.183 36.56 185.036 36.88C185.916 37.2 186.836 37.36 187.796 37.36C189.316 37.36 190.436 37.0667 191.156 36.48C191.876 35.8933 192.236 35.08 192.236 34.04C192.236 33.32 192.009 32.6933 191.556 32.16C191.103 31.6267 190.463 31.16 189.636 30.76C188.836 30.3333 187.676 29.8267 186.156 29.24C184.103 28.4667 182.596 27.5467 181.636 26.48C180.703 25.3867 180.236 23.96 180.236 22.2C180.236 21.0267 180.583 20 181.276 19.12C181.996 18.24 182.969 17.56 184.196 17.08C185.449 16.5733 186.836 16.32 188.356 16.32C189.583 16.32 190.649 16.4133 191.556 16.6C192.489 16.7867 193.236 16.9733 193.796 17.16C194.356 17.3467 194.729 17.4667 194.916 17.52V22.48H192.476L191.676 19.52C191.516 19.2 191.089 18.9333 190.396 18.72C189.703 18.48 188.929 18.36 188.076 18.36C186.876 18.36 185.903 18.6267 185.156 19.16C184.436 19.6933 184.076 20.4133 184.076 21.32C184.076 22.12 184.263 22.7867 184.636 23.32C185.036 23.8267 185.529 24.24 186.116 24.56C186.703 24.88 187.503 25.2533 188.516 25.68L189.316 26C190.809 26.5867 192.023 27.1467 192.956 27.68C193.889 28.2133 194.663 28.92 195.276 29.8C195.916 30.6533 196.236 31.7067 196.236 32.96C196.236 34.9333 195.463 36.5067 193.916 37.68C192.396 38.8533 190.303 39.44 187.636 39.44C186.329 39.44 184.956 39.2667 183.516 38.92C182.103 38.5467 180.943 38.1733 180.036 37.8V32.68H182.636L183.356 35.8ZM199.831 27.84C199.831 25.44 200.325 23.36 201.311 21.6C202.298 19.84 203.591 18.5067 205.191 17.6C206.818 16.6667 208.551 16.2 210.391 16.2C213.751 16.2 216.271 17.2667 217.951 19.4C219.658 21.5333 220.511 24.3333 220.511 27.8C220.511 30.2267 220.018 32.32 219.031 34.08C218.045 35.84 216.738 37.1733 215.111 38.08C213.511 38.9867 211.791 39.44 209.951 39.44C206.591 39.44 204.058 38.3733 202.351 36.24C200.671 34.1067 199.831 31.3067 199.831 27.84ZM210.191 37.16C212.031 37.16 213.445 36.4 214.431 34.88C215.418 33.36 215.911 31.1067 215.911 28.12C215.911 25.16 215.458 22.8133 214.551 21.08C213.645 19.3467 212.191 18.48 210.191 18.48C208.351 18.48 206.925 19.24 205.911 20.76C204.925 22.28 204.431 24.5333 204.431 27.52C204.431 30.48 204.898 32.8267 205.831 34.56C206.765 36.2933 208.218 37.16 210.191 37.16ZM226.567 19.88L223.687 19.16V17L229.407 16.28H229.527L230.367 17V18.68L230.327 19.64C231.287 18.7867 232.554 18.0133 234.127 17.32C235.701 16.6267 237.207 16.28 238.647 16.28C240.327 16.28 241.621 16.6 242.527 17.24C243.461 17.88 244.114 18.8667 244.487 20.2C244.861 21.5067 245.047 23.28 245.047 25.52V36.72L247.847 37V39H238.367V37.04L240.847 36.72V25.48C240.847 23.9067 240.741 22.68 240.527 21.8C240.314 20.8933 239.914 20.2267 239.327 19.8C238.741 19.3467 237.887 19.12 236.767 19.12C235.807 19.12 234.781 19.36 233.687 19.84C232.594 20.32 231.621 20.88 230.767 21.52V36.68L233.487 37.04V39H224.047V37.04L226.567 36.68V19.88Z" fill="#E8E8E8"/>
<path d="M84.8398 51.38L83.1998 51.14V50.14H85.8998C86.3531 50.14 86.9264 50.1133 87.6198 50.06C88.2598 50.0067 88.7331 49.98 89.0398 49.98C90.8798 49.98 92.1931 50.2667 92.9798 50.84C93.7798 51.4133 94.1798 52.2533 94.1798 53.36C94.1798 54.3067 93.9064 55.12 93.3598 55.8C92.8131 56.48 92.0664 56.9067 91.1198 57.08C92.3998 57.0533 93.4064 57.3533 94.1398 57.98C94.8731 58.6067 95.2398 59.46 95.2398 60.54C95.2398 61.8867 94.7598 62.9867 93.7998 63.84C92.8531 64.6933 91.2798 65.12 89.0798 65.12C88.5998 65.12 88.1398 65.1 87.6998 65.06C86.6598 65.02 86.0398 65 85.8398 65H83.1798V64.02L84.8398 63.82V51.38ZM86.9598 56.7C87.1464 56.7133 87.5264 56.72 88.0998 56.72H89.1998C90.1331 56.72 90.8398 56.46 91.3198 55.94C91.7998 55.42 92.0398 54.68 92.0398 53.72C92.0398 52.7867 91.7998 52.1067 91.3198 51.68C90.8398 51.24 90.0198 51.02 88.8598 51.02C88.3798 51.02 87.8864 51.0467 87.3798 51.1L86.9598 51.14V56.7ZM86.9598 63.88C87.2664 63.9867 87.9598 64.04 89.0398 64.04C90.3864 64.04 91.3598 63.7667 91.9598 63.22C92.5731 62.66 92.8798 61.86 92.8798 60.82C92.8798 59.7933 92.6131 59.0467 92.0798 58.58C91.5598 58.1133 90.7131 57.88 89.5398 57.88C88.1798 57.88 87.3198 57.8933 86.9598 57.92V63.88ZM96.8512 59.42C96.8512 58.22 97.0978 57.18 97.5912 56.3C98.0845 55.42 98.7312 54.7533 99.5312 54.3C100.345 53.8333 101.211 53.6 102.131 53.6C103.811 53.6 105.071 54.1333 105.911 55.2C106.765 56.2667 107.191 57.6667 107.191 59.4C107.191 60.6133 106.945 61.66 106.451 62.54C105.958 63.42 105.305 64.0867 104.491 64.54C103.691 64.9933 102.831 65.22 101.911 65.22C100.231 65.22 98.9645 64.6867 98.1112 63.62C97.2712 62.5533 96.8512 61.1533 96.8512 59.42ZM102.031 64.08C102.951 64.08 103.658 63.7 104.151 62.94C104.645 62.18 104.891 61.0533 104.891 59.56C104.891 58.08 104.665 56.9067 104.211 56.04C103.758 55.1733 103.031 54.74 102.031 54.74C101.111 54.74 100.398 55.12 99.8912 55.88C99.3978 56.64 99.1512 57.7667 99.1512 59.26C99.1512 60.74 99.3845 61.9133 99.8512 62.78C100.318 63.6467 101.045 64.08 102.031 64.08ZM100.491 51.28L103.691 47.3L105.211 48.58C104.931 49.0333 104.331 49.6533 103.411 50.44C102.491 51.2267 101.778 51.7267 101.271 51.94L100.491 51.28ZM110.079 50.08L108.519 49.86V49L111.699 48.62H111.719L112.159 48.92V58.7L112.119 59.88L116.739 55.1L115.239 54.82V53.9H120.079V54.82L118.499 55.1L115.559 57.96L119.359 63.86L120.599 64.02V65H115.739V64.02L116.999 63.84L114.179 59.2L112.119 61.24L112.159 62.26V63.84L113.579 64.02V65H108.819V64.02L110.079 63.84V50.08ZM122.091 50.08L120.411 49.86V49L123.671 48.62H123.711L124.151 48.92V53.56L124.071 55.26C124.498 54.8733 125.085 54.5067 125.831 54.16C126.578 53.8133 127.331 53.64 128.091 53.64C128.931 53.64 129.585 53.8 130.051 54.12C130.518 54.44 130.845 54.9333 131.031 55.6C131.218 56.2533 131.311 57.14 131.311 58.26V63.84L132.711 64.02V65H127.931V64.02L129.231 63.84V58.24C129.231 57.4533 129.178 56.84 129.071 56.4C128.965 55.9467 128.765 55.6133 128.471 55.4C128.178 55.1733 127.738 55.06 127.151 55.06C126.671 55.06 126.158 55.18 125.611 55.42C125.065 55.66 124.585 55.94 124.171 56.26V63.84L125.551 64.02V65H120.891V64.02L122.091 63.86V50.08ZM134.195 62C134.195 60.7467 134.822 59.8267 136.075 59.24C137.328 58.64 138.915 58.32 140.835 58.28V57.72C140.835 57.0933 140.768 56.6 140.635 56.24C140.502 55.88 140.268 55.62 139.935 55.46C139.615 55.2867 139.155 55.2 138.555 55.2C137.875 55.2 137.262 55.3 136.715 55.5C136.182 55.6867 135.648 55.92 135.115 56.2L134.615 55.16C134.788 55.0133 135.108 54.82 135.575 54.58C136.042 54.34 136.582 54.1267 137.195 53.94C137.808 53.7533 138.422 53.66 139.035 53.66C139.982 53.66 140.728 53.7933 141.275 54.06C141.835 54.3133 142.235 54.7267 142.475 55.3C142.715 55.8733 142.835 56.64 142.835 57.6V64.02H144.015V64.9C143.748 64.9667 143.408 65.0333 142.995 65.1C142.595 65.1667 142.242 65.2 141.935 65.2C141.562 65.2 141.308 65.14 141.175 65.02C141.042 64.9133 140.975 64.6667 140.975 64.28V63.62C140.575 64.02 140.082 64.3867 139.495 64.72C138.922 65.0533 138.268 65.22 137.535 65.22C136.575 65.22 135.775 64.9467 135.135 64.4C134.508 63.84 134.195 63.04 134.195 62ZM138.395 63.86C138.742 63.86 139.142 63.7533 139.595 63.54C140.048 63.3267 140.462 63.0733 140.835 62.78V59.34C139.382 59.34 138.282 59.5667 137.535 60.02C136.802 60.46 136.435 61.04 136.435 61.76C136.435 62.48 136.608 63.0133 136.955 63.36C137.315 63.6933 137.795 63.86 138.395 63.86ZM146.866 50.08L145.246 49.86V49L148.466 48.62H148.506L148.946 48.92V63.86L150.646 64.02V65H145.246V64.02L146.866 63.84V50.08ZM156.386 65.22C155.586 65.22 154.853 65.02 154.186 64.62C153.519 64.22 152.986 63.6067 152.586 62.78C152.199 61.9533 152.006 60.9333 152.006 59.72C152.006 58.5867 152.239 57.5533 152.706 56.62C153.173 55.6867 153.839 54.9533 154.706 54.42C155.586 53.8733 156.619 53.6 157.806 53.6C158.486 53.6 159.106 53.6733 159.666 53.82V50.08L157.626 49.84V48.98L161.226 48.62H161.286L161.726 48.94V63.98H162.886V64.9C162.459 64.9933 162.086 65.0667 161.766 65.12C161.459 65.1733 161.133 65.2 160.786 65.2C160.439 65.2 160.193 65.14 160.046 65.02C159.899 64.9 159.826 64.6467 159.826 64.26V63.62C159.453 64.0733 158.959 64.4533 158.346 64.76C157.746 65.0667 157.093 65.22 156.386 65.22ZM157.186 63.8C157.706 63.8 158.193 63.6867 158.646 63.46C159.099 63.22 159.439 62.9467 159.666 62.64V55.32C159.559 55.16 159.306 55.02 158.906 54.9C158.519 54.7667 158.106 54.7 157.666 54.7C156.626 54.7 155.793 55.1 155.166 55.9C154.553 56.6867 154.246 57.9067 154.246 59.56C154.246 61 154.519 62.0667 155.066 62.76C155.613 63.4533 156.319 63.8 157.186 63.8ZM166.348 63.4C166.481 63.6 166.761 63.78 167.188 63.94C167.628 64.1 168.088 64.18 168.568 64.18C169.328 64.18 169.888 64.0333 170.248 63.74C170.608 63.4467 170.788 63.04 170.788 62.52C170.788 62.16 170.675 61.8467 170.448 61.58C170.221 61.3133 169.901 61.08 169.488 60.88C169.088 60.6667 168.508 60.4133 167.748 60.12C166.721 59.7333 165.968 59.2733 165.488 58.74C165.021 58.1933 164.788 57.48 164.788 56.6C164.788 56.0133 164.961 55.5 165.308 55.06C165.668 54.62 166.155 54.28 166.768 54.04C167.395 53.7867 168.088 53.66 168.848 53.66C169.461 53.66 169.995 53.7067 170.448 53.8C170.915 53.8933 171.288 53.9867 171.568 54.08C171.848 54.1733 172.035 54.2333 172.128 54.26V56.74H170.908L170.508 55.26C170.428 55.1 170.215 54.9667 169.868 54.86C169.521 54.74 169.135 54.68 168.708 54.68C168.108 54.68 167.621 54.8133 167.248 55.08C166.888 55.3467 166.708 55.7067 166.708 56.16C166.708 56.56 166.801 56.8933 166.988 57.16C167.188 57.4133 167.435 57.62 167.728 57.78C168.021 57.94 168.421 58.1267 168.928 58.34L169.328 58.5C170.075 58.7933 170.681 59.0733 171.148 59.34C171.615 59.6067 172.001 59.96 172.308 60.4C172.628 60.8267 172.788 61.3533 172.788 61.98C172.788 62.9667 172.401 63.7533 171.628 64.34C170.868 64.9267 169.821 65.22 168.488 65.22C167.835 65.22 167.148 65.1333 166.428 64.96C165.721 64.7733 165.141 64.5867 164.688 64.4V61.84H165.988L166.348 63.4ZM176.886 48.62H176.926L177.386 48.92V54.94C177.759 54.5667 178.226 54.2533 178.786 54C179.359 53.7333 179.979 53.6 180.646 53.6C181.446 53.6 182.172 53.7933 182.826 54.18C183.492 54.5667 184.019 55.1667 184.406 55.98C184.806 56.7933 185.006 57.82 185.006 59.06C185.006 60.2067 184.766 61.2467 184.286 62.18C183.819 63.1133 183.146 63.8533 182.266 64.4C181.399 64.9467 180.386 65.22 179.226 65.22C178.612 65.22 177.979 65.16 177.326 65.04L177.366 66.32L177.386 68.7L179.566 68.94V69.84H173.846V68.94L175.306 68.7V50.06L173.666 49.84V49L176.886 48.62ZM179.826 55.02C179.332 55.02 178.866 55.14 178.426 55.38C177.986 55.62 177.639 55.88 177.386 56.16V63.52C177.466 63.7067 177.692 63.86 178.066 63.98C178.452 64.0867 178.879 64.14 179.346 64.14C180.386 64.14 181.212 63.7267 181.826 62.9C182.452 62.06 182.766 60.8267 182.766 59.2C182.766 57.8 182.492 56.7533 181.946 56.06C181.399 55.3667 180.692 55.02 179.826 55.02ZM189.094 51.9C188.68 51.9 188.367 51.78 188.154 51.54C187.94 51.3 187.834 50.9933 187.834 50.62C187.834 50.1933 187.96 49.84 188.214 49.56C188.48 49.28 188.84 49.14 189.294 49.14C189.747 49.14 190.08 49.26 190.294 49.5C190.507 49.74 190.614 50.0467 190.614 50.42C190.614 50.8733 190.48 51.2333 190.214 51.5C189.96 51.7667 189.594 51.9 189.114 51.9H189.094ZM186.694 54.02L189.794 53.64H189.834L190.274 54V64.86C190.274 65.9667 190.114 66.8933 189.794 67.64C189.474 68.4 189.04 68.96 188.494 69.32C187.947 69.68 187.334 69.86 186.654 69.86C186.134 69.86 185.827 69.8333 185.734 69.78L185.634 68.84C185.74 68.8533 185.894 68.84 186.094 68.8C186.307 68.76 186.52 68.7 186.734 68.62C187.28 68.4333 187.66 67.98 187.874 67.26C188.1 66.5533 188.214 65.6 188.214 64.4V55.5L186.694 55.14V54.02ZM193.101 59.42C193.101 58.22 193.348 57.18 193.841 56.3C194.335 55.42 194.981 54.7533 195.781 54.3C196.595 53.8333 197.461 53.6 198.381 53.6C200.061 53.6 201.321 54.1333 202.161 55.2C203.015 56.2667 203.441 57.6667 203.441 59.4C203.441 60.6133 203.195 61.66 202.701 62.54C202.208 63.42 201.555 64.0867 200.741 64.54C199.941 64.9933 199.081 65.22 198.161 65.22C196.481 65.22 195.215 64.6867 194.361 63.62C193.521 62.5533 193.101 61.1533 193.101 59.42ZM198.281 64.08C199.201 64.08 199.908 63.7 200.401 62.94C200.895 62.18 201.141 61.0533 201.141 59.56C201.141 58.08 200.915 56.9067 200.461 56.04C200.008 55.1733 199.281 54.74 198.281 54.74C197.361 54.74 196.648 55.12 196.141 55.88C195.648 56.64 195.401 57.7667 195.401 59.26C195.401 60.74 195.635 61.9133 196.101 62.78C196.568 63.6467 197.295 64.08 198.281 64.08ZM196.741 51.28L199.941 47.3L201.461 48.58C201.181 49.0333 200.581 49.6533 199.661 50.44C198.741 51.2267 198.028 51.7267 197.521 51.94L196.741 51.28ZM206.469 55.44L205.029 55.08V54L207.889 53.64H207.949L208.369 54V54.84L208.349 55.32C208.829 54.8933 209.462 54.5067 210.249 54.16C211.036 53.8133 211.789 53.64 212.509 53.64C213.349 53.64 213.996 53.8 214.449 54.12C214.916 54.44 215.242 54.9333 215.429 55.6C215.616 56.2533 215.709 57.14 215.709 58.26V63.86L217.109 64V65H212.369V64.02L213.609 63.86V58.24C213.609 57.4533 213.556 56.84 213.449 56.4C213.342 55.9467 213.142 55.6133 212.849 55.4C212.556 55.1733 212.129 55.06 211.569 55.06C211.089 55.06 210.576 55.18 210.029 55.42C209.482 55.66 208.996 55.94 208.569 56.26V63.84L209.929 64.02V65H205.209V64.02L206.469 63.84V55.44ZM227.65 65.18C227.277 65.18 226.997 65.1067 226.81 64.96C226.637 64.8133 226.55 64.5733 226.55 64.24V63.56C226.11 64 225.557 64.3867 224.89 64.72C224.237 65.0533 223.577 65.22 222.91 65.22C221.67 65.22 220.79 64.8867 220.27 64.22C219.75 63.5533 219.49 62.4533 219.49 60.92V55.12L218.37 54.8V53.92L221.17 53.66H221.19L221.57 53.9V60.76C221.57 61.5333 221.624 62.14 221.73 62.58C221.85 63.0067 222.05 63.3267 222.33 63.54C222.624 63.74 223.044 63.84 223.59 63.84C224.124 63.84 224.624 63.7267 225.09 63.5C225.557 63.2733 225.964 63.0067 226.31 62.7V55.12L224.87 54.8V53.92L227.91 53.66H227.93L228.39 53.9V63.98H229.59L229.57 64.88C229.197 64.9733 228.87 65.0467 228.59 65.1C228.324 65.1533 228.01 65.18 227.65 65.18ZM233.047 63.4C233.18 63.6 233.46 63.78 233.887 63.94C234.327 64.1 234.787 64.18 235.267 64.18C236.027 64.18 236.587 64.0333 236.947 63.74C237.307 63.4467 237.487 63.04 237.487 62.52C237.487 62.16 237.374 61.8467 237.147 61.58C236.92 61.3133 236.6 61.08 236.187 60.88C235.787 60.6667 235.207 60.4133 234.447 60.12C233.42 59.7333 232.667 59.2733 232.187 58.74C231.72 58.1933 231.487 57.48 231.487 56.6C231.487 56.0133 231.66 55.5 232.007 55.06C232.367 54.62 232.854 54.28 233.467 54.04C234.094 53.7867 234.787 53.66 235.547 53.66C236.16 53.66 236.694 53.7067 237.147 53.8C237.614 53.8933 237.987 53.9867 238.267 54.08C238.547 54.1733 238.734 54.2333 238.827 54.26V56.74H237.607L237.207 55.26C237.127 55.1 236.914 54.9667 236.567 54.86C236.22 54.74 235.834 54.68 235.407 54.68C234.807 54.68 234.32 54.8133 233.947 55.08C233.587 55.3467 233.407 55.7067 233.407 56.16C233.407 56.56 233.5 56.8933 233.687 57.16C233.887 57.4133 234.134 57.62 234.427 57.78C234.72 57.94 235.12 58.1267 235.627 58.34L236.027 58.5C236.774 58.7933 237.38 59.0733 237.847 59.34C238.314 59.6067 238.7 59.96 239.007 60.4C239.327 60.8267 239.487 61.3533 239.487 61.98C239.487 62.9667 239.1 63.7533 238.327 64.34C237.567 64.9267 236.52 65.22 235.187 65.22C234.534 65.22 233.847 65.1333 233.127 64.96C232.42 64.7733 231.84 64.5867 231.387 64.4V61.84H232.687L233.047 63.4ZM244.705 65.2C243.945 65.2 243.378 65.0267 243.005 64.68C242.631 64.3333 242.445 63.74 242.445 62.9V55.22H241.005V54.32C241.071 54.3067 241.258 54.26 241.565 54.18C241.871 54.1 242.078 54.0267 242.185 53.96C242.398 53.84 242.565 53.6 242.685 53.24C242.791 52.9867 242.918 52.58 243.065 52.02C243.211 51.46 243.298 51.1267 243.325 51.02H244.505L244.545 53.9H247.885V55.22H244.545V61.36C244.545 62.12 244.565 62.6533 244.605 62.96C244.658 63.2667 244.758 63.4667 244.905 63.56C245.065 63.6533 245.331 63.7 245.705 63.7C246.065 63.7 246.458 63.6533 246.885 63.56C247.325 63.4667 247.665 63.3667 247.905 63.26L248.205 64.16C247.885 64.4 247.365 64.6333 246.645 64.86C245.938 65.0867 245.291 65.2 244.705 65.2ZM249.429 62C249.429 60.7467 250.056 59.8267 251.309 59.24C252.563 58.64 254.149 58.32 256.069 58.28V57.72C256.069 57.0933 256.003 56.6 255.869 56.24C255.736 55.88 255.503 55.62 255.169 55.46C254.849 55.2867 254.389 55.2 253.789 55.2C253.109 55.2 252.496 55.3 251.949 55.5C251.416 55.6867 250.883 55.92 250.349 56.2L249.849 55.16C250.023 55.0133 250.343 54.82 250.809 54.58C251.276 54.34 251.816 54.1267 252.429 53.94C253.043 53.7533 253.656 53.66 254.269 53.66C255.216 53.66 255.963 53.7933 256.509 54.06C257.069 54.3133 257.469 54.7267 257.709 55.3C257.949 55.8733 258.069 56.64 258.069 57.6V64.02H259.249V64.9C258.983 64.9667 258.643 65.0333 258.229 65.1C257.829 65.1667 257.476 65.2 257.169 65.2C256.796 65.2 256.543 65.14 256.409 65.02C256.276 64.9133 256.209 64.6667 256.209 64.28V63.62C255.809 64.02 255.316 64.3867 254.729 64.72C254.156 65.0533 253.503 65.22 252.769 65.22C251.809 65.22 251.009 64.9467 250.369 64.4C249.743 63.84 249.429 63.04 249.429 62ZM253.629 63.86C253.976 63.86 254.376 63.7533 254.829 63.54C255.283 63.3267 255.696 63.0733 256.069 62.78V59.34C254.616 59.34 253.516 59.5667 252.769 60.02C252.036 60.46 251.669 61.04 251.669 61.76C251.669 62.48 251.843 63.0133 252.189 63.36C252.549 63.6933 253.029 63.86 253.629 63.86Z" fill="#E8E8E8"/>
<mask id="mask0_99_16" style="mask-type:luminance" maskUnits="userSpaceOnUse" x="0" y="0" width="62" height="78">
<path d="M62 0H0V77.5H62V0Z" fill="white"/>
</mask>
<g mask="url(#mask0_99_16)">
<path d="M31.0029 59.8256V77.5006L62.0001 59.5966V41.9238L31.0029 59.8256Z" fill="#3FAAD7"/>
<path d="M44.8786 25.6892L60.1731 16.8516L31.0029 0V17.6746L44.8786 25.6892Z" fill="#0064AF"/>
<path d="M18.9558 30.9666V48.6469L31.0023 55.6035V37.9311L18.9558 30.9666Z" fill="#A1D9DF"/>
<path d="M62.0001 20.0195L31.0029 37.931V55.6034L62.0001 37.6993V20.0195Z" fill="#3FAAD7"/>
<path d="M1.84583 16.8413L17.0486 25.7305L31.0022 17.6746V0L1.84583 16.8413Z" fill="#3FAAD7"/>
<path d="M15.2997 50.7591V28.8464L0 20.0117V59.5961L31.0023 77.5001V59.8251L15.2997 50.7591Z" fill="#A1D9DF"/>
</g>
</svg>
