<svg width="100%" height="100%" viewBox="0 0 28 26" fill="none" xmlns="http://www.w3.org/2000/svg">
<path d="M22.1667 23.4167H5.83333C4.54467 23.4167 3.5 22.4839 3.5 21.3333V6.74999C3.5 5.5994 4.54467 4.66666 5.83333 4.66666H8.16667V2.58333H10.5V4.66666H17.5V2.58333H19.8333V4.66666H22.1667C23.4553 4.66666 24.5 5.5994 24.5 6.74999V21.3333C24.5 22.4839 23.4553 23.4167 22.1667 23.4167ZM5.83333 10.9167V21.3333H22.1667V10.9167H5.83333ZM5.83333 6.74999V8.83333H22.1667V6.74999H5.83333ZM19.8333 19.25H17.5V17.1667H19.8333V19.25ZM15.1667 19.25H12.8333V17.1667H15.1667V19.25ZM10.5 19.25H8.16667V17.1667H10.5V19.25ZM19.8333 15.0833H17.5V13H19.8333V15.0833ZM15.1667 15.0833H12.8333V13H15.1667V15.0833ZM10.5 15.0833H8.16667V13H10.5V15.0833Z" fill="currentColor"/>
</svg>
