<svg width="152" height="46" viewBox="0 0 152 46" fill="none" xmlns="http://www.w3.org/2000/svg">
<path d="M50.8582 6.168H57.2422V7.368L55.1062 7.656L59.0662 18.912L59.9542 21.84L60.7462 18.864L64.3222 7.656L62.4262 7.368V6.168H67.7782V7.368L66.2422 7.656L60.5542 24.192H58.4662L52.3222 7.656L50.8582 7.368V6.168ZM74.3043 24.264C72.3683 24.264 70.8883 23.632 69.8643 22.368C68.8563 21.104 68.3523 19.416 68.3523 17.304C68.3523 15.912 68.6163 14.688 69.1443 13.632C69.6723 12.576 70.4083 11.76 71.3523 11.184C72.3123 10.608 73.4003 10.32 74.6163 10.32C76.1043 10.32 77.2563 10.736 78.0723 11.568C78.9043 12.384 79.3443 13.56 79.3923 15.096C79.3923 16.072 79.3363 16.816 79.2243 17.328H70.9683C71.0003 18.912 71.3683 20.192 72.0723 21.168C72.7763 22.128 73.7763 22.608 75.0723 22.608C75.7123 22.608 76.3763 22.496 77.0643 22.272C77.7683 22.032 78.3123 21.752 78.6963 21.432L79.1523 22.488C78.6883 22.968 78.0003 23.384 77.0883 23.736C76.1763 24.088 75.2483 24.264 74.3043 24.264ZM76.7523 16.056C76.8003 15.72 76.8243 15.376 76.8243 15.024C76.8083 13.984 76.5843 13.168 76.1523 12.576C75.7363 11.968 75.0723 11.664 74.1603 11.664C73.2323 11.664 72.4883 12 71.9283 12.672C71.3843 13.344 71.0723 14.472 70.9923 16.056H76.7523ZM83.375 12.264H81.119V11.16L83.375 10.704V9.576C83.375 8.584 83.631 7.672 84.143 6.84C84.671 6.008 85.351 5.352 86.183 4.872C87.031 4.376 87.927 4.128 88.871 4.128C89.415 4.128 89.887 4.2 90.287 4.344V6.744C90.143 6.616 89.855 6.496 89.423 6.384C89.007 6.256 88.543 6.192 88.031 6.192C87.279 6.192 86.727 6.392 86.375 6.792C86.039 7.176 85.871 7.848 85.871 8.808V10.704H89.183V12.264H85.871V22.632L88.535 22.824V24H81.335V22.824L83.375 22.608V12.264ZM93.2964 22.08C93.4564 22.32 93.7924 22.536 94.3044 22.728C94.8324 22.92 95.3844 23.016 95.9604 23.016C96.8724 23.016 97.5444 22.84 97.9764 22.488C98.4084 22.136 98.6244 21.648 98.6244 21.024C98.6244 20.592 98.4884 20.216 98.2164 19.896C97.9444 19.576 97.5604 19.296 97.0644 19.056C96.5844 18.8 95.8884 18.496 94.9764 18.144C93.7444 17.68 92.8404 17.128 92.2644 16.488C91.7044 15.832 91.4244 14.976 91.4244 13.92C91.4244 13.216 91.6324 12.6 92.0484 12.072C92.4804 11.544 93.0644 11.136 93.8004 10.848C94.5524 10.544 95.3844 10.392 96.2964 10.392C97.0324 10.392 97.6724 10.448 98.2164 10.56C98.7764 10.672 99.2244 10.784 99.5604 10.896C99.8964 11.008 100.12 11.08 100.232 11.112V14.088H98.7684L98.2884 12.312C98.1924 12.12 97.9364 11.96 97.5204 11.832C97.1044 11.688 96.6404 11.616 96.1284 11.616C95.4084 11.616 94.8244 11.776 94.3764 12.096C93.9444 12.416 93.7284 12.848 93.7284 13.392C93.7284 13.872 93.8404 14.272 94.0644 14.592C94.3044 14.896 94.6004 15.144 94.9524 15.336C95.3044 15.528 95.7844 15.752 96.3924 16.008L96.8724 16.2C97.7684 16.552 98.4964 16.888 99.0564 17.208C99.6164 17.528 100.08 17.952 100.448 18.48C100.832 18.992 101.024 19.624 101.024 20.376C101.024 21.56 100.56 22.504 99.6324 23.208C98.7204 23.912 97.4644 24.264 95.8644 24.264C95.0804 24.264 94.2564 24.16 93.3924 23.952C92.5444 23.728 91.8484 23.504 91.3044 23.28V20.208H92.8644L93.2964 22.08ZM105.414 22.08C105.574 22.32 105.91 22.536 106.422 22.728C106.95 22.92 107.502 23.016 108.078 23.016C108.99 23.016 109.662 22.84 110.094 22.488C110.526 22.136 110.742 21.648 110.742 21.024C110.742 20.592 110.606 20.216 110.334 19.896C110.062 19.576 109.678 19.296 109.182 19.056C108.702 18.8 108.006 18.496 107.094 18.144C105.862 17.68 104.958 17.128 104.382 16.488C103.822 15.832 103.542 14.976 103.542 13.92C103.542 13.216 103.75 12.6 104.166 12.072C104.598 11.544 105.182 11.136 105.918 10.848C106.67 10.544 107.502 10.392 108.414 10.392C109.15 10.392 109.79 10.448 110.334 10.56C110.894 10.672 111.342 10.784 111.678 10.896C112.014 11.008 112.238 11.08 112.35 11.112V14.088H110.886L110.406 12.312C110.31 12.12 110.054 11.96 109.638 11.832C109.222 11.688 108.758 11.616 108.246 11.616C107.526 11.616 106.942 11.776 106.494 12.096C106.062 12.416 105.846 12.848 105.846 13.392C105.846 13.872 105.958 14.272 106.182 14.592C106.422 14.896 106.718 15.144 107.07 15.336C107.422 15.528 107.902 15.752 108.51 16.008L108.99 16.2C109.886 16.552 110.614 16.888 111.174 17.208C111.734 17.528 112.198 17.952 112.566 18.48C112.95 18.992 113.142 19.624 113.142 20.376C113.142 21.56 112.678 22.504 111.75 23.208C110.838 23.912 109.582 24.264 107.982 24.264C107.198 24.264 106.374 24.16 105.51 23.952C104.662 23.728 103.966 23.504 103.422 23.28V20.208H104.982L105.414 22.08ZM115.299 17.304C115.299 15.864 115.595 14.616 116.187 13.56C116.779 12.504 117.555 11.704 118.515 11.16C119.491 10.6 120.531 10.32 121.635 10.32C123.651 10.32 125.163 10.96 126.171 12.24C127.195 13.52 127.707 15.2 127.707 17.28C127.707 18.736 127.411 19.992 126.819 21.048C126.227 22.104 125.443 22.904 124.467 23.448C123.507 23.992 122.475 24.264 121.371 24.264C119.355 24.264 117.835 23.624 116.811 22.344C115.803 21.064 115.299 19.384 115.299 17.304ZM121.515 22.896C122.619 22.896 123.467 22.44 124.059 21.528C124.651 20.616 124.947 19.264 124.947 17.472C124.947 15.696 124.675 14.288 124.131 13.248C123.587 12.208 122.715 11.688 121.515 11.688C120.411 11.688 119.555 12.144 118.947 13.056C118.355 13.968 118.059 15.32 118.059 17.112C118.059 18.888 118.339 20.296 118.899 21.336C119.459 22.376 120.331 22.896 121.515 22.896ZM131.34 12.528L129.612 12.096V10.8L133.044 10.368H133.116L133.62 10.8V11.808L133.596 12.384C134.172 11.872 134.932 11.408 135.876 10.992C136.82 10.576 137.724 10.368 138.588 10.368C139.596 10.368 140.372 10.56 140.916 10.944C141.476 11.328 141.868 11.92 142.092 12.72C142.316 13.504 142.428 14.568 142.428 15.912V22.632L144.108 22.8V24H138.42V22.824L139.908 22.632V15.888C139.908 14.944 139.844 14.208 139.716 13.68C139.588 13.136 139.348 12.736 138.996 12.48C138.644 12.208 138.132 12.072 137.46 12.072C136.884 12.072 136.268 12.216 135.612 12.504C134.956 12.792 134.372 13.128 133.86 13.512V22.608L135.492 22.824V24H129.828V22.824L131.34 22.608V12.528Z" fill="black"/>
<path d="M46.8039 33.828L45.8199 33.684V33.084H47.4399C47.7119 33.084 48.0559 33.068 48.4719 33.036C48.8559 33.004 49.1399 32.988 49.3239 32.988C50.4279 32.988 51.2159 33.16 51.6879 33.504C52.1679 33.848 52.4079 34.352 52.4079 35.016C52.4079 35.584 52.2439 36.072 51.9159 36.48C51.5879 36.888 51.1399 37.144 50.5719 37.248C51.3399 37.232 51.9439 37.412 52.3839 37.788C52.8239 38.164 53.0439 38.676 53.0439 39.324C53.0439 40.132 52.7559 40.792 52.1799 41.304C51.6119 41.816 50.6679 42.072 49.3479 42.072C49.0599 42.072 48.7839 42.06 48.5199 42.036C47.8959 42.012 47.5239 42 47.4039 42H45.8079V41.412L46.8039 41.292V33.828ZM48.0759 37.02C48.1879 37.028 48.4159 37.032 48.7599 37.032H49.4199C49.9799 37.032 50.4039 36.876 50.6919 36.564C50.9799 36.252 51.1239 35.808 51.1239 35.232C51.1239 34.672 50.9799 34.264 50.6919 34.008C50.4039 33.744 49.9119 33.612 49.2159 33.612C48.9279 33.612 48.6319 33.628 48.3279 33.66L48.0759 33.684V37.02ZM48.0759 41.328C48.2599 41.392 48.6759 41.424 49.3239 41.424C50.1319 41.424 50.7159 41.26 51.0759 40.932C51.4439 40.596 51.6279 40.116 51.6279 39.492C51.6279 38.876 51.4679 38.428 51.1479 38.148C50.8359 37.868 50.3279 37.728 49.6239 37.728C48.8079 37.728 48.2919 37.736 48.0759 37.752V41.328ZM54.0107 38.652C54.0107 37.932 54.1587 37.308 54.4547 36.78C54.7507 36.252 55.1387 35.852 55.6187 35.58C56.1067 35.3 56.6267 35.16 57.1787 35.16C58.1867 35.16 58.9427 35.48 59.4467 36.12C59.9587 36.76 60.2147 37.6 60.2147 38.64C60.2147 39.368 60.0667 39.996 59.7707 40.524C59.4747 41.052 59.0827 41.452 58.5947 41.724C58.1147 41.996 57.5987 42.132 57.0467 42.132C56.0387 42.132 55.2787 41.812 54.7667 41.172C54.2627 40.532 54.0107 39.692 54.0107 38.652ZM57.1187 41.448C57.6707 41.448 58.0947 41.22 58.3907 40.764C58.6867 40.308 58.8347 39.632 58.8347 38.736C58.8347 37.848 58.6987 37.144 58.4267 36.624C58.1547 36.104 57.7187 35.844 57.1187 35.844C56.5667 35.844 56.1387 36.072 55.8347 36.528C55.5387 36.984 55.3907 37.66 55.3907 38.556C55.3907 39.444 55.5307 40.148 55.8107 40.668C56.0907 41.188 56.5267 41.448 57.1187 41.448ZM56.1947 33.768L58.1147 31.38L59.0267 32.148C58.8587 32.42 58.4987 32.792 57.9467 33.264C57.3947 33.736 56.9667 34.036 56.6627 34.164L56.1947 33.768ZM61.9475 33.048L61.0115 32.916V32.4L62.9195 32.172H62.9315L63.1955 32.352V38.22L63.1715 38.928L65.9435 36.06L65.0435 35.892V35.34H67.9475V35.892L66.9995 36.06L65.2355 37.776L67.5155 41.316L68.2595 41.412V42H65.3435V41.412L66.0995 41.304L64.4075 38.52L63.1715 39.744L63.1955 40.356V41.304L64.0475 41.412V42H61.1915V41.412L61.9475 41.304V33.048ZM69.1548 33.048L68.1468 32.916V32.4L70.1028 32.172H70.1268L70.3908 32.352V35.136L70.3428 36.156C70.5988 35.924 70.9508 35.704 71.3988 35.496C71.8468 35.288 72.2988 35.184 72.7548 35.184C73.2588 35.184 73.6508 35.28 73.9308 35.472C74.2108 35.664 74.4068 35.96 74.5188 36.36C74.6308 36.752 74.6868 37.284 74.6868 37.956V41.304L75.5268 41.412V42H72.6588V41.412L73.4388 41.304V37.944C73.4388 37.472 73.4068 37.104 73.3428 36.84C73.2788 36.568 73.1588 36.368 72.9828 36.24C72.8068 36.104 72.5428 36.036 72.1908 36.036C71.9028 36.036 71.5948 36.108 71.2668 36.252C70.9388 36.396 70.6508 36.564 70.4028 36.756V41.304L71.2308 41.412V42H68.4348V41.412L69.1548 41.316V33.048ZM76.417 40.2C76.417 39.448 76.793 38.896 77.545 38.544C78.297 38.184 79.249 37.992 80.401 37.968V37.632C80.401 37.256 80.361 36.96 80.281 36.744C80.201 36.528 80.061 36.372 79.861 36.276C79.669 36.172 79.393 36.12 79.033 36.12C78.625 36.12 78.257 36.18 77.929 36.3C77.609 36.412 77.289 36.552 76.969 36.72L76.669 36.096C76.773 36.008 76.965 35.892 77.245 35.748C77.525 35.604 77.849 35.476 78.217 35.364C78.585 35.252 78.953 35.196 79.321 35.196C79.889 35.196 80.337 35.276 80.665 35.436C81.001 35.588 81.241 35.836 81.385 36.18C81.529 36.524 81.601 36.984 81.601 37.56V41.412H82.309V41.94C82.149 41.98 81.945 42.02 81.697 42.06C81.457 42.1 81.245 42.12 81.061 42.12C80.837 42.12 80.685 42.084 80.605 42.012C80.525 41.948 80.485 41.8 80.485 41.568V41.172C80.245 41.412 79.949 41.632 79.597 41.832C79.253 42.032 78.861 42.132 78.421 42.132C77.845 42.132 77.365 41.968 76.981 41.64C76.605 41.304 76.417 40.824 76.417 40.2ZM78.937 41.316C79.145 41.316 79.385 41.252 79.657 41.124C79.929 40.996 80.177 40.844 80.401 40.668V38.604C79.529 38.604 78.869 38.74 78.421 39.012C77.981 39.276 77.761 39.624 77.761 40.056C77.761 40.488 77.865 40.808 78.073 41.016C78.289 41.216 78.577 41.316 78.937 41.316ZM84.0195 33.048L83.0475 32.916V32.4L84.9795 32.172H85.0035L85.2675 32.352V41.316L86.2875 41.412V42H83.0475V41.412L84.0195 41.304V33.048ZM89.7316 42.132C89.2516 42.132 88.8116 42.012 88.4116 41.772C88.0116 41.532 87.6916 41.164 87.4516 40.668C87.2196 40.172 87.1036 39.56 87.1036 38.832C87.1036 38.152 87.2436 37.532 87.5236 36.972C87.8036 36.412 88.2036 35.972 88.7236 35.652C89.2516 35.324 89.8716 35.16 90.5836 35.16C90.9916 35.16 91.3636 35.204 91.6996 35.292V33.048L90.4756 32.904V32.388L92.6356 32.172H92.6716L92.9356 32.364V41.388H93.6316V41.94C93.3756 41.996 93.1516 42.04 92.9596 42.072C92.7756 42.104 92.5796 42.12 92.3716 42.12C92.1636 42.12 92.0156 42.084 91.9276 42.012C91.8396 41.94 91.7956 41.788 91.7956 41.556V41.172C91.5716 41.444 91.2756 41.672 90.9076 41.856C90.5476 42.04 90.1556 42.132 89.7316 42.132ZM90.2116 41.28C90.5236 41.28 90.8156 41.212 91.0876 41.076C91.3596 40.932 91.5636 40.768 91.6996 40.584V36.192C91.6356 36.096 91.4836 36.012 91.2436 35.94C91.0116 35.86 90.7636 35.82 90.4996 35.82C89.8756 35.82 89.3756 36.06 88.9996 36.54C88.6316 37.012 88.4476 37.744 88.4476 38.736C88.4476 39.6 88.6116 40.24 88.9396 40.656C89.2676 41.072 89.6916 41.28 90.2116 41.28ZM95.7087 41.04C95.7887 41.16 95.9567 41.268 96.2127 41.364C96.4767 41.46 96.7527 41.508 97.0407 41.508C97.4967 41.508 97.8327 41.42 98.0487 41.244C98.2647 41.068 98.3727 40.824 98.3727 40.512C98.3727 40.296 98.3047 40.108 98.1687 39.948C98.0327 39.788 97.8407 39.648 97.5927 39.528C97.3527 39.4 97.0047 39.248 96.5487 39.072C95.9327 38.84 95.4807 38.564 95.1927 38.244C94.9127 37.916 94.7727 37.488 94.7727 36.96C94.7727 36.608 94.8767 36.3 95.0847 36.036C95.3007 35.772 95.5927 35.568 95.9607 35.424C96.3367 35.272 96.7527 35.196 97.2087 35.196C97.5767 35.196 97.8967 35.224 98.1687 35.28C98.4487 35.336 98.6727 35.392 98.8407 35.448C99.0087 35.504 99.1207 35.54 99.1767 35.556V37.044H98.4447L98.2047 36.156C98.1567 36.06 98.0287 35.98 97.8207 35.916C97.6127 35.844 97.3807 35.808 97.1247 35.808C96.7647 35.808 96.4727 35.888 96.2487 36.048C96.0327 36.208 95.9247 36.424 95.9247 36.696C95.9247 36.936 95.9807 37.136 96.0927 37.296C96.2127 37.448 96.3607 37.572 96.5367 37.668C96.7127 37.764 96.9527 37.876 97.2567 38.004L97.4967 38.1C97.9447 38.276 98.3087 38.444 98.5887 38.604C98.8687 38.764 99.1007 38.976 99.2847 39.24C99.4767 39.496 99.5727 39.812 99.5727 40.188C99.5727 40.78 99.3407 41.252 98.8767 41.604C98.4207 41.956 97.7927 42.132 96.9927 42.132C96.6007 42.132 96.1887 42.08 95.7567 41.976C95.3327 41.864 94.9847 41.752 94.7127 41.64V40.104H95.4927L95.7087 41.04ZM102.031 32.172H102.055L102.331 32.352V35.964C102.555 35.74 102.835 35.552 103.171 35.4C103.515 35.24 103.887 35.16 104.287 35.16C104.767 35.16 105.203 35.276 105.595 35.508C105.995 35.74 106.311 36.1 106.543 36.588C106.783 37.076 106.903 37.692 106.903 38.436C106.903 39.124 106.759 39.748 106.471 40.308C106.191 40.868 105.787 41.312 105.259 41.64C104.739 41.968 104.131 42.132 103.435 42.132C103.067 42.132 102.687 42.096 102.295 42.024L102.319 42.792L102.331 44.22L103.639 44.364V44.904H100.207V44.364L101.083 44.22V33.036L100.099 32.904V32.4L102.031 32.172ZM103.795 36.012C103.499 36.012 103.219 36.084 102.955 36.228C102.691 36.372 102.483 36.528 102.331 36.696V41.112C102.379 41.224 102.515 41.316 102.739 41.388C102.971 41.452 103.227 41.484 103.507 41.484C104.131 41.484 104.627 41.236 104.995 40.74C105.371 40.236 105.559 39.496 105.559 38.52C105.559 37.68 105.395 37.052 105.067 36.636C104.739 36.22 104.315 36.012 103.795 36.012ZM109.356 34.14C109.108 34.14 108.92 34.068 108.792 33.924C108.664 33.78 108.6 33.596 108.6 33.372C108.6 33.116 108.676 32.904 108.828 32.736C108.988 32.568 109.204 32.484 109.476 32.484C109.748 32.484 109.948 32.556 110.076 32.7C110.204 32.844 110.268 33.028 110.268 33.252C110.268 33.524 110.188 33.74 110.028 33.9C109.876 34.06 109.656 34.14 109.368 34.14H109.356ZM107.916 35.412L109.776 35.184H109.8L110.064 35.4V41.916C110.064 42.58 109.968 43.136 109.776 43.584C109.584 44.04 109.324 44.376 108.996 44.592C108.668 44.808 108.3 44.916 107.892 44.916C107.58 44.916 107.396 44.9 107.34 44.868L107.28 44.304C107.344 44.312 107.436 44.304 107.556 44.28C107.684 44.256 107.812 44.22 107.94 44.172C108.268 44.06 108.496 43.788 108.624 43.356C108.76 42.932 108.828 42.36 108.828 41.64V36.3L107.916 36.084V35.412ZM111.761 38.652C111.761 37.932 111.909 37.308 112.205 36.78C112.501 36.252 112.889 35.852 113.369 35.58C113.857 35.3 114.377 35.16 114.929 35.16C115.937 35.16 116.693 35.48 117.197 36.12C117.709 36.76 117.965 37.6 117.965 38.64C117.965 39.368 117.817 39.996 117.521 40.524C117.225 41.052 116.833 41.452 116.345 41.724C115.865 41.996 115.349 42.132 114.797 42.132C113.789 42.132 113.029 41.812 112.517 41.172C112.013 40.532 111.761 39.692 111.761 38.652ZM114.869 41.448C115.421 41.448 115.845 41.22 116.141 40.764C116.437 40.308 116.585 39.632 116.585 38.736C116.585 37.848 116.449 37.144 116.177 36.624C115.905 36.104 115.469 35.844 114.869 35.844C114.317 35.844 113.889 36.072 113.585 36.528C113.289 36.984 113.141 37.66 113.141 38.556C113.141 39.444 113.281 40.148 113.561 40.668C113.841 41.188 114.277 41.448 114.869 41.448ZM113.945 33.768L115.865 31.38L116.777 32.148C116.609 32.42 116.249 32.792 115.697 33.264C115.145 33.736 114.717 34.036 114.413 34.164L113.945 33.768ZM119.781 36.264L118.917 36.048V35.4L120.633 35.184H120.669L120.921 35.4V35.904L120.909 36.192C121.197 35.936 121.577 35.704 122.049 35.496C122.521 35.288 122.973 35.184 123.405 35.184C123.909 35.184 124.297 35.28 124.569 35.472C124.849 35.664 125.045 35.96 125.157 36.36C125.269 36.752 125.325 37.284 125.325 37.956V41.316L126.165 41.4V42H123.321V41.412L124.065 41.316V37.944C124.065 37.472 124.033 37.104 123.969 36.84C123.905 36.568 123.785 36.368 123.609 36.24C123.433 36.104 123.177 36.036 122.841 36.036C122.553 36.036 122.245 36.108 121.917 36.252C121.589 36.396 121.297 36.564 121.041 36.756V41.304L121.857 41.412V42H119.025V41.412L119.781 41.304V36.264ZM132.49 42.108C132.266 42.108 132.098 42.064 131.986 41.976C131.882 41.888 131.83 41.744 131.83 41.544V41.136C131.566 41.4 131.234 41.632 130.834 41.832C130.442 42.032 130.046 42.132 129.646 42.132C128.902 42.132 128.374 41.932 128.062 41.532C127.75 41.132 127.594 40.472 127.594 39.552V36.072L126.922 35.88V35.352L128.602 35.196H128.614L128.842 35.34V39.456C128.842 39.92 128.874 40.284 128.938 40.548C129.01 40.804 129.13 40.996 129.298 41.124C129.474 41.244 129.726 41.304 130.054 41.304C130.374 41.304 130.674 41.236 130.954 41.1C131.234 40.964 131.478 40.804 131.686 40.62V36.072L130.822 35.88V35.352L132.646 35.196H132.658L132.934 35.34V41.388H133.654L133.642 41.928C133.418 41.984 133.222 42.028 133.054 42.06C132.894 42.092 132.706 42.108 132.49 42.108ZM135.728 41.04C135.808 41.16 135.976 41.268 136.232 41.364C136.496 41.46 136.772 41.508 137.06 41.508C137.516 41.508 137.852 41.42 138.068 41.244C138.284 41.068 138.392 40.824 138.392 40.512C138.392 40.296 138.324 40.108 138.188 39.948C138.052 39.788 137.86 39.648 137.612 39.528C137.372 39.4 137.024 39.248 136.568 39.072C135.952 38.84 135.5 38.564 135.212 38.244C134.932 37.916 134.792 37.488 134.792 36.96C134.792 36.608 134.896 36.3 135.104 36.036C135.32 35.772 135.612 35.568 135.98 35.424C136.356 35.272 136.772 35.196 137.228 35.196C137.596 35.196 137.916 35.224 138.188 35.28C138.468 35.336 138.692 35.392 138.86 35.448C139.028 35.504 139.14 35.54 139.196 35.556V37.044H138.464L138.224 36.156C138.176 36.06 138.048 35.98 137.84 35.916C137.632 35.844 137.4 35.808 137.144 35.808C136.784 35.808 136.492 35.888 136.268 36.048C136.052 36.208 135.944 36.424 135.944 36.696C135.944 36.936 136 37.136 136.112 37.296C136.232 37.448 136.38 37.572 136.556 37.668C136.732 37.764 136.972 37.876 137.276 38.004L137.516 38.1C137.964 38.276 138.328 38.444 138.608 38.604C138.888 38.764 139.12 38.976 139.304 39.24C139.496 39.496 139.592 39.812 139.592 40.188C139.592 40.78 139.36 41.252 138.896 41.604C138.44 41.956 137.812 42.132 137.012 42.132C136.62 42.132 136.208 42.08 135.776 41.976C135.352 41.864 135.004 41.752 134.732 41.64V40.104H135.512L135.728 41.04ZM142.723 42.12C142.267 42.12 141.927 42.016 141.703 41.808C141.479 41.6 141.367 41.244 141.367 40.74V36.132H140.503V35.592C140.543 35.584 140.655 35.556 140.839 35.508C141.023 35.46 141.147 35.416 141.211 35.376C141.339 35.304 141.439 35.16 141.511 34.944C141.575 34.792 141.651 34.548 141.739 34.212C141.827 33.876 141.879 33.676 141.895 33.612H142.603L142.627 35.34H144.631V36.132H142.627V39.816C142.627 40.272 142.639 40.592 142.663 40.776C142.695 40.96 142.755 41.08 142.843 41.136C142.939 41.192 143.099 41.22 143.323 41.22C143.539 41.22 143.775 41.192 144.031 41.136C144.295 41.08 144.499 41.02 144.643 40.956L144.823 41.496C144.631 41.64 144.319 41.78 143.887 41.916C143.463 42.052 143.075 42.12 142.723 42.12ZM145.558 40.2C145.558 39.448 145.934 38.896 146.686 38.544C147.438 38.184 148.39 37.992 149.542 37.968V37.632C149.542 37.256 149.502 36.96 149.422 36.744C149.342 36.528 149.202 36.372 149.002 36.276C148.81 36.172 148.534 36.12 148.174 36.12C147.766 36.12 147.398 36.18 147.07 36.3C146.75 36.412 146.43 36.552 146.11 36.72L145.81 36.096C145.914 36.008 146.106 35.892 146.386 35.748C146.666 35.604 146.99 35.476 147.358 35.364C147.726 35.252 148.094 35.196 148.462 35.196C149.03 35.196 149.478 35.276 149.806 35.436C150.142 35.588 150.382 35.836 150.526 36.18C150.67 36.524 150.742 36.984 150.742 37.56V41.412H151.45V41.94C151.29 41.98 151.086 42.02 150.838 42.06C150.598 42.1 150.386 42.12 150.202 42.12C149.978 42.12 149.826 42.084 149.746 42.012C149.666 41.948 149.626 41.8 149.626 41.568V41.172C149.386 41.412 149.09 41.632 148.738 41.832C148.394 42.032 148.002 42.132 147.562 42.132C146.986 42.132 146.506 41.968 146.122 41.64C145.746 41.304 145.558 40.824 145.558 40.2ZM148.078 41.316C148.286 41.316 148.526 41.252 148.798 41.124C149.07 40.996 149.318 40.844 149.542 40.668V38.604C148.67 38.604 148.01 38.74 147.562 39.012C147.122 39.276 146.902 39.624 146.902 40.056C146.902 40.488 147.006 40.808 147.214 41.016C147.43 41.216 147.718 41.316 148.078 41.316Z" fill="black"/>
<mask id="mask0_61_192" style="mask-type:luminance" maskUnits="userSpaceOnUse" x="0" y="3" width="34" height="43">
<path d="M34 3H0V45.5H34V3Z" fill="white"/>
</mask>
<g mask="url(#mask0_61_192)">
<path d="M17.0016 35.8075V45.5003L34 35.682V25.9904L17.0016 35.8075Z" fill="#3FAAD7"/>
<path d="M24.6108 17.0876L32.9981 12.2412L17.0016 3V12.6925L24.6108 17.0876Z" fill="#0064AF"/>
<path d="M10.3951 19.9816V29.6773L17.0013 33.4922V23.8009L10.3951 19.9816Z" fill="#A1D9DF"/>
<path d="M34 13.9785L17.0016 23.8009V33.4922L34 23.6739V13.9785Z" fill="#3FAAD7"/>
<path d="M1.01221 12.2356L9.34921 17.1103L17.0012 12.6925V3L1.01221 12.2356Z" fill="#3FAAD7"/>
<path d="M8.39013 30.8355V18.8189L0 13.9741V35.6816L17.0013 45.5V35.8072L8.39013 30.8355Z" fill="#A1D9DF"/>
</g>
</svg>
