<svg width="683" height="385" viewBox="0 0 683 385" fill="none" xmlns="http://www.w3.org/2000/svg">
<mask id="mask0_5_6483" style="mask-type:luminance" maskUnits="userSpaceOnUse" x="0" y="0" width="683" height="385">
<path d="M683 0H0V384.188H683V0Z" fill="white"/>
</mask>
<g mask="url(#mask0_5_6483)">
<mask id="mask1_5_6483" style="mask-type:luminance" maskUnits="userSpaceOnUse" x="54" y="21" width="596" height="341">
<path d="M54.4265 21.6997H649.561V361.777H54.4265V21.6997Z" fill="white"/>
</mask>
<g mask="url(#mask1_5_6483)">
<path d="M635.326 361.777H70.7405C70.7405 361.777 45.9928 329.107 57.8137 289.944C69.631 250.779 99.9917 220.848 90.1989 175.531C81.978 137.497 93.1692 103.674 117.462 89.1745C120.19 87.5452 123.09 86.1579 126.142 85.0409C134.359 82.0243 143.708 80.9322 154.017 82.1844C158.346 82.7109 162.604 83.0346 166.801 83.1733C169.726 83.2694 172.621 83.2765 175.481 83.1982C181.144 83.0488 186.68 82.5757 192.083 81.8251C195.014 81.4231 197.907 80.9358 200.76 80.3773C215.33 77.5243 228.901 72.786 241.423 67.2367C244.372 65.9311 247.264 64.5794 250.095 63.1991C281.997 47.6253 306.432 28.1313 322.472 24.8195C399.69 8.87572 421.255 58.3861 457.663 74.7674C458.602 75.1908 459.549 75.5892 460.509 75.9662C464.557 77.5528 468.798 78.7196 473.33 79.3386C475.098 79.5804 476.844 79.8295 478.57 80.0927C480.185 80.331 481.782 80.5836 483.361 80.8433C554.845 92.5752 588.953 121.002 599.664 170.181C599.852 171.042 600.033 171.906 600.204 172.782C601.399 178.793 602.256 185.108 602.801 191.731C602.861 192.457 602.915 193.186 602.964 193.919C603.623 203.083 603.698 212.829 603.256 223.178C602.054 251.273 680.19 307.532 635.326 361.777Z" fill="#E1E9FA"/>
<path d="M241.423 67.2367V99.8037H200.76V80.3774C197.907 80.9359 195.015 81.4232 192.083 81.8252V108.48H250.096V63.1992C247.264 64.5794 244.372 65.9312 241.423 67.2367Z" fill="#D2DDF8"/>
<path d="M192.082 178.334H250.096V120.317H192.082V178.334ZM241.422 169.656H200.758V128.996H241.422V169.656Z" fill="#D2DDF8"/>
<path d="M166.802 83.1736V99.8039H126.142V85.0412C123.09 86.1582 120.19 87.5455 117.462 89.1747V108.48H175.481V83.1985C172.621 83.2767 169.726 83.2696 166.802 83.1736Z" fill="#D2DDF8"/>
<path d="M117.462 178.334H175.48V120.317H117.462V178.334ZM166.803 169.656H126.141V128.996H166.803V169.656Z" fill="#D2DDF8"/>
<path d="M600.204 172.781C600.033 171.906 599.852 171.042 599.663 170.181L483.361 80.8432L467.425 68.6026L457.663 74.7673L377.884 125.16L328.509 85.5104L325.261 82.9029L365.551 78.0401L365.907 77.9974L364.107 63.0105L295.113 71.3168L295.714 74.2409L308.844 138.208L322.988 134.437L323.447 134.316L317.858 99.334L317.311 95.8977L376.824 143.686L466.66 86.9511L602.801 191.731C602.257 185.107 601.399 178.793 600.204 172.781Z" fill="white"/>
<path d="M602.801 191.731C602.257 185.107 601.4 178.793 600.204 172.781L478.57 80.0926L467.425 71.5978L460.509 75.9661L377.884 128.155L325.261 85.9017L328.509 85.5104L365.907 80.9961L365.551 78.04L364.107 66.0093L295.714 74.2408L295.113 74.312L308.844 141.207L323.447 137.312L322.988 134.437L317.311 98.8929L317.858 99.334L376.824 146.685L466.66 89.9463L602.965 193.919C602.915 193.186 602.862 192.457 602.801 191.731Z" fill="#D2DDF8"/>
<path d="M265.959 301.809C265.958 297.804 265.247 293.887 263.914 290.214L270.662 285.053L263.461 273.739L255.927 277.668C253.164 274.907 249.931 272.607 246.286 270.909L247.405 262.486L234.301 259.576L231.751 267.681C227.746 267.682 223.826 268.393 220.155 269.726L214.993 262.98L203.679 270.179L207.608 277.714C204.846 280.477 202.545 283.725 200.849 287.353L192.426 286.237L189.517 299.341L197.621 301.89C197.619 305.912 198.333 309.815 199.667 313.486L192.918 318.649L200.121 329.961L207.653 326.032C210.415 328.794 213.665 331.096 217.294 332.792L216.176 341.214L229.28 344.123L231.832 336.019C235.851 336.022 239.754 335.308 243.426 333.974L248.588 340.722L259.901 333.518L255.972 325.988C258.735 323.223 261.033 319.99 262.731 316.347L271.154 317.465L274.063 304.361L265.959 301.809ZM255.437 307.101C252.54 320.163 239.601 328.398 226.541 325.499C213.48 322.6 205.242 309.659 208.141 296.6C211.042 283.54 223.982 275.301 237.042 278.202C250.102 281.101 258.337 294.04 255.437 307.101Z" fill="white"/>
<path d="M264.052 300.729C264.052 296.725 263.34 292.807 262.008 289.135L268.754 283.973L261.553 272.659L254.019 276.588C251.257 273.828 248.024 271.527 244.38 269.83L245.499 261.408L232.394 258.497L229.842 266.601C225.837 266.602 221.919 267.314 218.247 268.646L213.084 261.899L201.773 269.1L205.701 276.634C202.939 279.397 200.638 282.645 198.942 286.273L190.52 285.158L187.61 298.261L195.715 300.811C195.712 304.833 196.425 308.735 197.759 312.407L191.011 317.569L198.213 328.881L205.746 324.953C208.508 327.715 211.757 330.016 215.386 331.713L214.268 340.135L227.373 343.044L229.924 334.94C233.944 334.942 237.846 334.229 241.519 332.895L246.681 339.643L257.995 332.439L254.063 324.907C256.827 322.144 259.127 318.911 260.824 315.268L269.246 316.385L272.157 303.282L264.052 300.729ZM253.531 306.023C250.632 319.083 237.694 327.318 224.632 324.419C211.571 321.519 203.335 308.58 206.233 295.521C209.135 282.461 222.073 274.221 235.134 277.122C248.194 280.021 256.431 292.961 253.531 306.023Z" fill="#D2DDF8"/>
<path d="M328.139 265.085C325.805 263.685 323.274 262.729 320.67 262.221L320.02 256.486L310.913 256.726L310.568 262.487C307.995 263.133 305.525 264.213 303.261 265.742L298.746 262.145L292.47 268.762L296.3 273.08C294.9 275.414 293.945 277.945 293.437 280.551L287.702 281.198L287.942 290.306L293.702 290.65C294.347 293.227 295.435 295.702 296.956 297.957L293.36 302.473L299.976 308.75L304.295 304.921C306.637 306.328 309.159 307.276 311.766 307.784L312.414 313.518L321.522 313.279L321.866 307.516C324.439 306.873 326.917 305.785 329.173 304.265L333.688 307.859L339.965 301.242L336.136 296.923C337.542 294.582 338.492 292.06 339 289.454L344.734 288.807L344.493 279.699L338.732 279.353C338.088 276.779 337.008 274.31 335.48 272.046L339.074 267.531L332.458 261.256L328.139 265.085ZM327.544 273.062C334.136 279.318 334.413 289.735 328.158 296.328C321.904 302.922 311.486 303.197 304.892 296.943C298.297 290.689 298.022 280.27 304.278 273.676C310.532 267.081 320.949 266.808 327.544 273.062Z" fill="white"/>
<path d="M326.843 265.819C324.509 264.418 321.979 263.461 319.373 262.955L318.726 257.218L309.618 257.46L309.273 263.221C306.699 263.867 304.229 264.947 301.966 266.474L297.449 262.88L291.174 269.495L295.003 273.814C293.602 276.148 292.648 278.68 292.14 281.285L286.405 281.932L286.646 291.04L292.407 291.384C293.052 293.96 294.139 296.436 295.659 298.691L292.064 303.207L298.681 309.483L303.001 305.654C305.342 307.061 307.864 308.01 310.469 308.518L311.118 314.252L320.226 314.013L320.57 308.25C323.145 307.606 325.62 306.519 327.879 304.998L332.393 308.592L338.667 301.977L334.838 297.658C336.246 295.316 337.196 292.793 337.703 290.189L343.438 289.54L343.197 280.432L337.435 280.088C336.792 277.512 335.713 275.044 334.184 272.78L337.779 268.264L331.164 261.989L326.843 265.819ZM326.247 273.797C332.842 280.051 333.116 290.47 326.861 297.063C320.606 303.656 310.19 303.931 303.595 297.677C297.003 291.421 296.726 281.004 302.981 274.41C309.235 267.816 319.654 267.542 326.247 273.797Z" fill="#D2DDF8"/>
<path d="M394.273 173.108C401.12 170.013 405.409 161.417 404.237 151.955C403.075 142.559 396.899 135.302 389.572 133.896L389.49 133.233L385.309 133.75C376.238 134.873 370.007 144.841 371.388 156.019C372.772 167.195 381.247 175.345 390.316 174.223L394.358 173.828L394.273 173.108Z" fill="#D2DDF8"/>
<path d="M408.418 151.438C409.8 162.613 403.431 172.705 394.358 173.828C385.288 174.949 376.952 166.678 375.57 155.5C374.186 144.324 380.42 134.356 389.49 133.233C398.562 132.111 407.037 140.26 408.418 151.438Z" fill="white"/>
<path d="M405.486 151.811C406.621 160.99 401.387 169.277 393.938 170.2C386.487 171.121 379.64 164.327 378.506 155.147C377.368 145.968 382.488 137.779 389.939 136.856C397.39 135.935 404.351 142.63 405.486 151.811Z" fill="#D2DDF8"/>
<path d="M392.025 145.096C392.538 145.092 393.038 145.152 393.519 145.275C394.003 145.399 394.454 145.594 394.871 145.861C395.287 146.128 395.656 146.474 395.981 146.903C396.304 147.332 396.563 147.847 396.756 148.448L394.93 148.704C394.624 148.111 394.257 147.662 393.83 147.361C393.4 147.058 392.881 146.895 392.275 146.872L392.989 151.96C393.379 152.067 393.766 152.173 394.149 152.286C394.532 152.397 394.899 152.522 395.256 152.662C395.613 152.804 395.947 152.966 396.261 153.147C396.574 153.331 396.854 153.545 397.103 153.794C397.351 154.042 397.559 154.326 397.721 154.648C397.885 154.969 397.995 155.336 398.054 155.748C398.151 156.438 398.105 157.055 397.918 157.599C397.73 158.14 397.45 158.616 397.078 159.023C396.707 159.431 396.269 159.772 395.764 160.042C395.257 160.31 394.74 160.513 394.208 160.649L394.566 163.193L392.721 163.452L392.356 160.863C391.791 160.82 391.25 160.685 390.734 160.454C390.215 160.225 389.738 159.919 389.302 159.537C388.865 159.153 388.48 158.702 388.148 158.184C387.814 157.664 387.553 157.092 387.367 156.468L389.302 156.197C389.425 156.569 389.578 156.916 389.766 157.239C389.951 157.561 390.164 157.845 390.402 158.09C390.64 158.337 390.9 158.538 391.187 158.697C391.473 158.855 391.775 158.964 392.098 159.018L391.322 153.491C390.78 153.337 390.255 153.168 389.747 152.984C389.239 152.798 388.775 152.567 388.358 152.289C387.941 152.01 387.592 151.674 387.309 151.278C387.029 150.88 386.846 150.389 386.765 149.803C386.692 149.285 386.731 148.793 386.878 148.325C387.027 147.857 387.258 147.428 387.569 147.039C387.884 146.653 388.264 146.313 388.712 146.024C389.161 145.737 389.65 145.512 390.18 145.354L389.951 143.722L391.796 143.461L392.025 145.096ZM388.667 149.468C388.707 149.736 388.79 149.975 388.924 150.183C389.056 150.391 389.226 150.576 389.432 150.737C389.639 150.901 389.877 151.043 390.154 151.173C390.425 151.298 390.723 151.409 391.043 151.51L390.432 147.154C389.787 147.361 389.315 147.672 389.014 148.095C388.714 148.515 388.598 148.972 388.667 149.468ZM396.146 156.062C396.109 155.791 396.006 155.551 395.834 155.343C395.662 155.134 395.445 154.944 395.18 154.774C394.917 154.605 394.618 154.455 394.291 154.325C393.962 154.195 393.624 154.079 393.272 153.975L393.961 158.882C394.343 158.776 394.681 158.624 394.97 158.432C395.26 158.236 395.501 158.016 395.693 157.767C395.883 157.518 396.016 157.249 396.095 156.958C396.173 156.668 396.19 156.369 396.146 156.062Z" fill="white"/>
<path d="M403.174 127.999C409.444 123.859 412.316 114.692 409.66 105.536C407.024 96.4419 399.776 90.255 392.319 90.0283L392.132 89.3865L388.087 90.5592C379.308 93.1055 374.735 103.936 377.87 114.753C381.007 125.569 390.667 132.272 399.443 129.728L403.372 128.698L403.174 127.999Z" fill="#D2DDF8"/>
<path d="M413.706 104.363C416.842 115.177 412.152 126.151 403.372 128.697C394.594 131.242 385.053 124.396 381.917 113.579C378.779 102.763 383.355 91.9325 392.132 89.3864C400.912 86.8418 410.571 93.5449 413.706 104.363Z" fill="white"/>
<path d="M410.87 105.195C413.446 114.078 409.591 123.09 402.382 125.182C395.171 127.272 387.335 121.649 384.759 112.765C382.181 103.882 385.939 94.985 393.15 92.8933C400.36 90.8033 408.295 96.3106 410.87 105.195Z" fill="#D2DDF8"/>
<path d="M396.516 100.699C397.022 100.613 397.524 100.594 398.019 100.638C398.516 100.684 398.993 100.805 399.446 101.002C399.9 101.2 400.319 101.484 400.708 101.855C401.095 102.228 401.432 102.696 401.718 103.258L399.956 103.801C399.56 103.264 399.126 102.879 398.656 102.649C398.184 102.417 397.646 102.339 397.043 102.412L398.555 107.323C398.957 107.367 399.356 107.41 399.752 107.461C400.148 107.509 400.53 107.575 400.905 107.657C401.28 107.741 401.635 107.847 401.973 107.977C402.312 108.108 402.623 108.275 402.908 108.482C403.192 108.687 403.442 108.935 403.653 109.227C403.866 109.517 404.032 109.863 404.156 110.26C404.362 110.926 404.414 111.543 404.315 112.11C404.215 112.674 404.014 113.188 403.712 113.649C403.409 114.11 403.031 114.516 402.575 114.863C402.118 115.208 401.639 115.49 401.136 115.709L401.892 118.164L400.111 118.712L399.34 116.214C398.776 116.261 398.221 116.213 397.674 116.067C397.126 115.923 396.606 115.696 396.115 115.388C395.623 115.078 395.171 114.694 394.761 114.235C394.349 113.774 394.001 113.252 393.718 112.665L395.586 112.091C395.766 112.438 395.972 112.757 396.209 113.046C396.442 113.335 396.698 113.581 396.972 113.785C397.246 113.992 397.534 114.149 397.843 114.26C398.151 114.371 398.466 114.43 398.794 114.433L397.152 109.098C396.592 109.033 396.047 108.949 395.516 108.848C394.985 108.744 394.491 108.589 394.035 108.381C393.579 108.172 393.181 107.896 392.839 107.549C392.499 107.201 392.24 106.745 392.068 106.179C391.914 105.68 391.874 105.187 391.945 104.702C392.018 104.216 392.178 103.756 392.423 103.323C392.674 102.891 392.995 102.496 393.391 102.14C393.789 101.785 394.236 101.485 394.735 101.245L394.25 99.6704L396.03 99.1202L396.516 100.699ZM393.893 105.547C393.974 105.806 394.095 106.028 394.26 106.212C394.423 106.396 394.62 106.553 394.85 106.679C395.079 106.808 395.337 106.911 395.631 106.995C395.919 107.075 396.23 107.138 396.562 107.187L395.269 102.983C394.665 103.289 394.248 103.671 394.018 104.136C393.788 104.598 393.746 105.068 393.893 105.547ZM402.322 110.873C402.242 110.611 402.103 110.39 401.9 110.212C401.697 110.033 401.453 109.88 401.164 109.754C400.877 109.629 400.559 109.528 400.215 109.452C399.87 109.375 399.517 109.314 399.153 109.268L400.612 114.003C400.971 113.838 401.282 113.635 401.537 113.399C401.792 113.16 401.994 112.904 402.145 112.628C402.293 112.352 402.382 112.065 402.414 111.766C402.445 111.467 402.415 111.169 402.322 110.873Z" fill="white"/>
<g opacity="0.0896187">
<path d="M358.187 63.5934C365.701 63.5303 373.098 57.3999 375.85 48.2722C378.584 39.2075 375.868 30.0736 369.734 25.8268L369.927 25.1869L365.894 23.9702C357.143 21.3316 347.414 27.9317 344.16 38.7141C340.91 49.4962 345.368 60.3755 354.117 63.0144L357.974 64.2873L358.187 63.5934Z" fill="#D2DDF8"/>
<path d="M379.882 49.4889C376.631 60.269 366.726 66.9262 357.974 64.2869C349.224 61.6472 344.942 50.7129 348.195 39.9299C351.445 29.1474 361.177 22.549 369.926 25.1867C378.678 27.8275 383.137 38.7065 379.882 49.4889Z" fill="white"/>
<path d="M377.05 48.6443C374.379 57.4995 366.243 62.9649 359.056 60.7989C351.868 58.6301 348.351 49.6488 351.023 40.7932C353.692 31.9371 361.685 26.5159 368.873 28.6829C376.06 30.8515 379.722 39.7888 377.05 48.6443Z" fill="#D2DDF8"/>
<path d="M367.451 37.0636C367.922 37.2672 368.354 37.5239 368.745 37.8304C369.138 38.1399 369.472 38.5001 369.745 38.9125C370.018 39.3248 370.216 39.7914 370.339 40.3142C370.462 40.8383 370.49 41.4134 370.424 42.0412L368.65 41.5377C368.61 40.8717 368.456 40.3126 368.186 39.8642C367.916 39.4133 367.507 39.0549 366.962 38.7887L365.559 43.7313C365.872 43.9866 366.183 44.2401 366.488 44.4979C366.794 44.7542 367.079 45.0172 367.349 45.2899C367.618 45.5642 367.858 45.847 368.072 46.1395C368.284 46.4339 368.454 46.7429 368.581 47.0714C368.708 47.3986 368.782 47.7424 368.801 48.1025C368.822 48.462 368.774 48.8419 368.661 49.2427C368.472 49.9132 368.18 50.4591 367.789 50.8813C367.398 51.3003 366.95 51.6226 366.445 51.8446C365.94 52.0672 365.402 52.2019 364.831 52.2449C364.259 52.2854 363.705 52.2622 363.163 52.1722L362.462 54.6434L360.669 54.1348L361.381 51.6193C360.882 51.3513 360.442 51.0092 360.063 50.5894C359.682 50.17 359.369 49.6974 359.124 49.1714C358.88 48.6438 358.71 48.0762 358.615 47.4676C358.52 46.8568 358.512 46.2288 358.594 45.5825L360.474 46.117C360.437 46.5064 360.436 46.8861 360.477 47.2571C360.516 47.6268 360.597 47.9724 360.715 48.2929C360.833 48.615 360.989 48.9041 361.188 49.1648C361.386 49.4259 361.618 49.6469 361.892 49.8273L363.416 44.4578C362.982 44.0983 362.57 43.7316 362.179 43.3579C361.791 42.982 361.459 42.5832 361.19 42.1605C360.921 41.7373 360.738 41.2883 360.639 40.8118C360.543 40.3349 360.574 39.8114 360.738 39.2425C360.88 38.7401 361.115 38.3049 361.438 37.9362C361.763 37.5682 362.148 37.2695 362.589 37.0396C363.034 36.8136 363.519 36.6565 364.045 36.5732C364.573 36.492 365.111 36.4834 365.659 36.5536L366.109 34.9681L367.903 35.4752L367.451 37.0636ZM362.613 39.7055C362.54 39.9667 362.52 40.2189 362.559 40.4628C362.596 40.7065 362.676 40.9446 362.8 41.1755C362.923 41.4082 363.083 41.6352 363.284 41.8651C363.482 42.0895 363.709 42.3112 363.961 42.5328L365.163 38.3021C364.489 38.2304 363.932 38.3243 363.485 38.5897C363.041 38.8519 362.75 39.2236 362.613 39.7055ZM366.789 48.7593C366.864 48.496 366.868 48.2348 366.794 47.9756C366.722 47.7144 366.6 47.453 366.426 47.191C366.253 46.9298 366.041 46.6719 365.794 46.4207C365.546 46.1688 365.283 45.9257 365.003 45.6887L363.651 50.4558C364.043 50.5127 364.413 50.511 364.756 50.4515C365.1 50.3898 365.409 50.2853 365.685 50.1356C365.96 49.985 366.191 49.7922 366.38 49.5586C366.569 49.3243 366.705 49.0582 366.789 48.7593Z" fill="white"/>
</g>
</g>
<mask id="mask2_5_6483" style="mask-type:luminance" maskUnits="userSpaceOnUse" x="519" y="223" width="105" height="139">
<path d="M519.009 223.398H623.237V361.421H519.009V223.398Z" fill="white"/>
</mask>
<g mask="url(#mask2_5_6483)">
<path d="M623.072 361.29H535.137V264.237H623.072V361.29Z" fill="#2546C7"/>
<path d="M610.39 361.29H522.453V264.237H610.39V361.29Z" fill="#83A4F1"/>
<path d="M605.168 295.835H527.674C527.028 295.835 526.504 295.311 526.504 294.665V271.247C526.504 270.601 527.028 270.077 527.674 270.077H605.168C605.813 270.077 606.337 270.601 606.337 271.247V294.666C606.337 295.311 605.813 295.835 605.168 295.835Z" fill="#DCE3FA"/>
<path d="M603.568 276.034V289.878C603.568 291.939 601.885 293.622 599.808 293.622H533.037C530.96 293.622 529.275 291.939 529.275 289.878V276.034C529.275 275.371 529.455 274.725 529.776 274.171C530.422 273.062 531.639 272.29 533.037 272.29H599.808C601.206 272.29 602.422 273.062 603.067 274.171C603.39 274.725 603.568 275.371 603.568 276.034Z" fill="#83A4F1"/>
<path d="M603.067 274.171H529.776C530.422 273.062 531.639 272.29 533.037 272.29H599.807C601.206 272.29 602.422 273.062 603.067 274.171Z" fill="#0E1666"/>
<path d="M569.9 282.957C569.9 281.034 568.342 279.477 566.421 279.477C564.499 279.477 562.941 281.034 562.941 282.957C562.941 284.877 564.499 286.436 566.421 286.436C568.342 286.436 569.9 284.877 569.9 282.957Z" fill="#E1E9FA"/>
<path d="M605.168 326.029H527.674C527.028 326.029 526.504 325.505 526.504 324.859V301.441C526.504 300.795 527.028 300.271 527.673 300.271H605.168C605.813 300.271 606.337 300.795 606.337 301.44V324.859C606.337 325.505 605.813 326.029 605.168 326.029Z" fill="#DCE3FA"/>
<path d="M603.568 306.227V320.071C603.568 322.133 601.885 323.816 599.808 323.816H533.037C530.96 323.816 529.275 322.133 529.275 320.071V306.227C529.275 305.565 529.455 304.919 529.776 304.366C530.422 303.254 531.639 302.484 533.037 302.484H599.808C601.206 302.484 602.422 303.254 603.067 304.366C603.39 304.919 603.568 305.565 603.568 306.227Z" fill="#83A4F1"/>
<path d="M603.067 304.365H529.776C530.422 303.253 531.639 302.484 533.037 302.484H599.807C601.206 302.484 602.422 303.253 603.067 304.365Z" fill="#0E1666"/>
<path d="M569.9 313.151C569.9 311.228 568.342 309.668 566.421 309.668C564.499 309.668 562.941 311.228 562.941 313.151C562.941 315.07 564.499 316.629 566.421 316.629C568.342 316.629 569.9 315.07 569.9 313.151Z" fill="#E1E9FA"/>
<path d="M605.168 356.222H527.674C527.028 356.222 526.504 355.698 526.504 355.052V331.634C526.504 330.988 527.028 330.465 527.673 330.465H605.168C605.813 330.465 606.337 330.988 606.337 331.634V355.053C606.337 355.698 605.813 356.222 605.168 356.222Z" fill="#DCE3FA"/>
<path d="M603.568 336.42V350.265C603.568 352.325 601.885 354.01 599.808 354.01H533.037C530.96 354.01 529.275 352.325 529.275 350.265V336.42C529.275 335.757 529.455 335.113 529.776 334.56C530.422 333.448 531.639 332.678 533.037 332.678H599.808C601.206 332.678 602.422 333.448 603.067 334.56C603.39 335.113 603.568 335.757 603.568 336.42Z" fill="#83A4F1"/>
<path d="M603.067 334.559H529.776C530.422 333.447 531.639 332.677 533.037 332.677H599.807C601.206 332.677 602.422 333.447 603.067 334.559Z" fill="#0E1666"/>
<path d="M569.9 343.344C569.9 341.421 568.342 339.862 566.421 339.862C564.499 339.862 562.941 341.421 562.941 343.344C562.941 345.263 564.499 346.823 566.421 346.823C568.342 346.823 569.9 345.263 569.9 343.344Z" fill="#E1E9FA"/>
<path d="M567.753 264.269H533.281C529.544 264.269 526.505 261.229 526.505 257.493C526.505 253.757 529.544 250.717 533.281 250.717H567.753C568.316 250.717 568.772 251.172 568.772 251.735V263.251C568.772 263.814 568.316 264.269 567.753 264.269Z" fill="#FF8D00"/>
<path d="M595.22 263.249H560.747C557.569 263.249 554.991 260.672 554.991 257.492C554.991 254.313 557.569 251.734 560.747 251.734H595.22V263.249Z" fill="white"/>
<path d="M595.22 264.269H560.749C557.013 264.269 553.973 261.229 553.973 257.493C553.973 253.757 557.013 250.717 560.749 250.717H595.22C595.783 250.717 596.24 251.172 596.24 251.735C596.24 252.299 595.783 252.754 595.22 252.754H560.749C558.136 252.754 556.011 254.879 556.011 257.493C556.011 260.106 558.136 262.231 560.749 262.231H595.22C595.783 262.231 596.24 262.686 596.24 263.251C596.24 263.814 595.783 264.269 595.22 264.269Z" fill="#FFA900"/>
<path d="M577.164 250.717H542.692C538.956 250.717 535.918 247.677 535.918 243.941C535.918 240.204 538.956 237.164 542.692 237.164H577.164C577.727 237.164 578.182 237.621 578.182 238.182V249.697C578.182 250.26 577.727 250.717 577.164 250.717Z" fill="#120D80"/>
<path d="M604.632 249.697H570.161C566.981 249.697 564.404 247.12 564.404 243.941C564.404 240.761 566.981 238.182 570.161 238.182H604.632V249.697Z" fill="white"/>
<path d="M604.632 250.717H570.161C566.424 250.717 563.385 247.677 563.385 243.941C563.385 240.204 566.424 237.164 570.161 237.164H604.632C605.195 237.164 605.651 237.621 605.651 238.182C605.651 238.746 605.195 239.202 604.632 239.202H570.161C567.547 239.202 565.422 241.328 565.422 243.941C565.422 246.554 567.547 248.679 570.161 248.679H604.632C605.195 248.679 605.651 249.134 605.651 249.697C605.651 250.26 605.195 250.717 604.632 250.717Z" fill="#2546C7"/>
<path d="M560.388 237.164H525.917C522.179 237.164 519.141 234.124 519.141 230.388C519.141 226.652 522.179 223.612 525.917 223.612H560.388C560.95 223.612 561.406 224.067 561.406 224.632V236.145C561.406 236.708 560.95 237.164 560.388 237.164Z" fill="#FF9F00"/>
<path d="M587.855 236.144H553.384C550.204 236.144 547.627 233.568 547.627 230.388C547.627 227.208 550.204 224.632 553.384 224.632H587.855V236.144Z" fill="white"/>
<path d="M587.855 237.164H553.384C549.648 237.164 546.608 234.124 546.608 230.388C546.608 226.652 549.648 223.612 553.384 223.612H587.855C588.418 223.612 588.873 224.067 588.873 224.632C588.873 225.195 588.418 225.65 587.855 225.65H553.384C550.773 225.65 548.646 227.776 548.646 230.388C548.646 233 550.773 235.126 553.384 235.126H587.855C588.418 235.126 588.873 235.583 588.873 236.145C588.873 236.708 588.418 237.164 587.855 237.164Z" fill="#FFC260"/>
</g>
<mask id="mask3_5_6483" style="mask-type:luminance" maskUnits="userSpaceOnUse" x="210" y="102" width="360" height="286">
<path d="M210.679 102.237H569.966V387.888H210.679V102.237Z" fill="white"/>
</mask>
<g mask="url(#mask3_5_6483)">
<path d="M453.783 358.011C453.783 360.493 451.769 362.509 449.284 362.509C446.801 362.509 444.786 360.493 444.786 358.011C444.786 355.526 446.801 353.512 449.284 353.512C451.769 353.512 453.783 355.526 453.783 358.011Z" fill="#2546C7"/>
<path d="M473.605 358.011C473.605 360.493 471.593 362.509 469.109 362.509C466.624 362.509 464.61 360.493 464.61 358.011C464.61 355.526 466.624 353.512 469.109 353.512C471.593 353.512 473.605 355.526 473.605 358.011Z" fill="#2546C7"/>
<path d="M493.43 358.011C493.43 360.493 491.416 362.509 488.933 362.509C486.447 362.509 484.435 360.493 484.435 358.011C484.435 355.526 486.447 353.512 488.933 353.512C491.416 353.512 493.43 355.526 493.43 358.011Z" fill="#2546C7"/>
<path d="M474.107 355.596H464.111V246.659H474.107V355.596Z" fill="#2546C7"/>
<path d="M477.975 296.801H460.243V279.558H477.975V296.801Z" fill="#1D3599"/>
<path d="M475.791 303.464H462.425V286.223H475.791V303.464Z" fill="#1D3599"/>
<path d="M495.982 355.01H442.237C442.237 351.699 444.922 349.015 448.233 349.015H489.983C493.295 349.015 495.982 351.699 495.982 355.01Z" fill="#120D80"/>
<path d="M518.98 199.972L518.314 203.904L505.965 279.521H451.398L463.211 206.979C463.892 202.937 467.411 199.972 471.501 199.972H518.98Z" fill="#6E8FE3"/>
<path d="M518.314 203.904L505.966 279.521H454.441L465.587 210.895C466.27 206.851 469.788 203.904 473.879 203.904H518.314Z" fill="#2546C7"/>
<path d="M511.307 281.055L501.294 279.523L513.581 204.2C513.997 201.757 516.116 199.972 518.594 199.972C521.747 199.972 524.142 202.811 523.609 205.919L511.307 281.055Z" fill="#1D3599"/>
<path d="M414.367 286.603H477.983C480.517 286.603 482.572 284.55 482.572 282.015C482.572 279.479 480.517 277.425 477.983 277.425H414.367C411.833 277.425 409.776 279.479 409.776 282.015C409.776 284.55 411.833 286.603 414.367 286.603Z" fill="#2546C7"/>
<path d="M470.423 286.603H507.647C510.183 286.603 512.236 284.55 512.236 282.015C512.236 279.479 510.183 277.425 507.647 277.425H470.423C467.887 277.425 465.832 279.479 465.832 282.015C465.832 284.55 467.887 286.603 470.423 286.603Z" fill="#1D3599"/>
<path d="M506.115 215.824H471.238C470.545 215.824 469.985 215.263 469.985 214.57C469.985 213.876 470.545 213.314 471.238 213.314H506.115C506.809 213.314 507.37 213.876 507.37 214.57C507.37 215.263 506.809 215.824 506.115 215.824Z" fill="#1D3599"/>
<path d="M502.628 232.074H467.752C467.059 232.074 466.495 231.513 466.495 230.82C466.495 230.126 467.059 229.564 467.752 229.564H502.628C503.322 229.564 503.882 230.126 503.882 230.82C503.882 231.513 503.322 232.074 502.628 232.074Z" fill="#1D3599"/>
<path d="M499.139 248.323H464.262C463.572 248.323 463.009 247.763 463.009 247.069C463.009 246.376 463.572 245.812 464.262 245.812H499.139C499.834 245.812 500.395 246.376 500.395 247.069C500.395 247.763 499.834 248.323 499.139 248.323Z" fill="#1D3599"/>
<path d="M365.443 342.962L355.155 340.012C351.077 347.346 346.03 349.818 345.588 351.357C344.003 356.887 344.581 356.804 344.581 356.804L355.548 360.504C355.548 360.504 361.686 361.541 359.757 353.569C359.287 351.619 365.443 342.962 365.443 342.962Z" fill="#FABBBD"/>
<path d="M360.465 362.906L328.735 362.352C328.735 362.352 328.41 355.288 334.146 354.865C336.187 354.715 338.56 354.096 340.749 353.244L340.742 353.244C340.742 353.244 346.222 350.12 346.933 347.29C347.641 344.462 350.968 347.096 351.281 347.896C351.462 348.35 350.109 350.042 347.705 351.405C353.654 354.629 358.433 353.539 360.417 352.456C364.343 359.654 360.465 362.906 360.465 362.906Z" fill="#0B1440"/>
<path d="M384.184 271.251C367.92 280.055 356.173 333.006 350.447 341.375C350.447 341.375 357.514 348.032 365.826 351.678C365.826 351.678 397.857 294.847 400.467 288.099C405.917 273.991 389.535 268.354 384.184 271.251Z" fill="#F5F8FF"/>
<path d="M455.639 244.401C470.195 248.781 461.92 272.516 444.538 280.282C427.156 288.044 406.632 286.49 391.1 289.271C386.687 290.061 374.55 283.858 381.936 273.854C389.321 263.85 435.974 238.482 455.639 244.401Z" fill="#F5F8FF"/>
<path d="M437.667 249.768C437.667 249.768 405.441 260.181 402.131 267.7C397.89 277.334 385.921 305.278 366.978 348.524L403.63 288.009L428.247 284.917L453.137 255.065L437.667 249.768Z" fill="#D2DDF8"/>
<path d="M409.101 353.449C408.071 351.728 411.296 341.702 411.296 341.702L400.598 341.943C398.885 350.159 394.698 353.952 393.723 356.719C393.719 356.732 396.447 359.372 396.447 359.372L405.672 359.284C405.672 359.284 413.31 360.487 409.101 353.449Z" fill="#FABBBD"/>
<path d="M409.62 363.174L405.667 363.151L387.339 363.072L376.988 362.655C376.988 362.655 378.026 353.922 385.002 355.065C385.719 355.437 387.808 354.455 389.497 353.887C389.59 353.848 389.684 353.813 389.776 353.774C389.776 353.774 389.779 353.776 389.781 353.773C389.955 353.669 395.222 350.531 395.884 347.737C396.559 344.9 399.915 347.493 400.241 348.286C400.429 348.744 399.095 350.45 396.715 351.84C402.703 354.991 407.469 353.829 409.441 352.731C413.458 359.877 409.62 363.174 409.62 363.174Z" fill="#0B1440"/>
<path d="M409.14 269.073C395.217 281.25 399.726 336.023 395.988 345.448C395.988 345.448 406.158 347.556 413.739 345.726C413.739 345.726 427.683 289.071 428.738 281.914C430.943 266.952 413.721 265.067 409.14 269.073Z" fill="#F5F8FF"/>
<path d="M488.966 244.529C494.753 255.277 491.705 270.69 473.826 277.221C455.945 283.755 435.786 283.144 418.846 284.878C414.385 285.335 401.143 278.642 409.208 269.176C417.274 259.713 479.232 226.446 488.966 244.529Z" fill="#F5F8FF"/>
<path d="M471.873 248.675C471.873 248.675 487.951 253.153 479.892 262.925C471.832 272.699 434.811 283.178 434.811 283.178C434.811 283.178 481.36 284.788 489.284 264.671C496.153 247.234 485.193 239.803 485.193 239.803L471.873 248.675Z" fill="#D2DDF8"/>
<path d="M483.29 149.181C486.843 150.498 493.025 157.6 497.043 157.81C500.758 158.003 501.95 156.225 505.493 155.389C507.436 154.933 508.313 153.422 507.832 152.234C508.31 151.852 509.697 151.889 510.304 150.935C511.315 149.342 509.679 148.075 506.822 149.002C505.416 149.458 508.612 148.003 509.628 147.578C512.03 146.574 509.024 143.971 506.604 144.981C505.423 145.475 503.524 146.082 503.549 145.852C503.567 145.713 505.093 144.876 505.584 144.649C507.645 143.696 504.583 141.348 502.508 142.307C500.884 143.058 496.56 144.082 494.762 144.69C494.448 144.717 493.381 143.945 491.883 143.2C492.701 142.574 493.854 142.513 494.932 142.332C495.762 142.192 496.478 141.663 496.299 140.73C496.107 139.726 495.138 139.514 494.275 139.444C493.034 139.34 492 138.923 490.793 139.464C489.881 139.872 486.766 141.823 486.076 141.898C484.805 142.038 481.854 148.649 483.29 149.181Z" fill="#FABBBD"/>
<path d="M448.232 128.207C456.194 128.451 483.781 138.512 489.027 140.314C495.349 142.482 495.531 152.967 488.813 151.47C482.33 150.026 444.931 144.046 441.426 142.255C435.101 139.023 438.27 127.902 448.232 128.207Z" fill="#FABBBD"/>
<path d="M456.141 182.985C450.805 176.642 439.844 145.152 437.668 139.282C435.045 132.206 444.96 123.628 449.866 128.498C454.204 132.806 471.358 169.148 472.332 173.677C474.09 181.856 462.813 190.919 456.141 182.985Z" fill="#FABBBD"/>
<path d="M444.764 164.797C448.762 175.355 456.444 185.705 459.353 189.202C466.263 197.515 478.182 190.363 476.501 182.067C476.083 179.997 473.882 165.59 468.62 155.657C459.337 154.901 445.913 163.541 444.764 164.797Z" fill="#FF8D00"/>
<path d="M476.092 175.647C476.092 175.647 469.876 172.549 465.121 174.641C460.368 176.732 450.627 190.135 443.92 207.663C436.277 227.637 433.052 242.8 433.052 242.8C433.052 242.8 452.22 256.269 492.451 263.146C492.451 263.146 500.51 221.683 509.285 193.894C511.264 187.623 495.548 182.164 493.632 181.205C491.717 180.246 476.092 175.647 476.092 175.647Z" fill="#FF9F00"/>
<path d="M480.695 168.692C480.695 168.692 479.357 175.094 477.16 175.139C474.96 175.186 472.339 174.457 472.339 174.457C472.339 174.457 476.745 193.434 494.897 181.788C494.897 181.788 491.384 180.449 490.857 178.609C490.333 176.771 492.425 169.521 494.786 165.125L480.695 168.692Z" fill="#FABBBD"/>
<path d="M490.857 178.609C490.334 176.771 492.425 169.521 494.786 165.125L486.753 167.16C487.551 168.754 488.206 172.595 488.069 172.767C488.485 176.475 487.707 181.145 483.592 182.243C480.431 183.088 477.22 181.717 474.567 179.644C477.405 184.241 483.383 189.176 494.897 181.789C494.897 181.789 491.384 180.449 490.857 178.609Z" fill="#DA91A7"/>
<path d="M495.205 181.91C495.205 181.91 488.774 187.106 480.442 184.858L484.001 193.06C484.001 193.06 493.381 189.929 497.544 182.734L495.205 181.91Z" fill="white"/>
<path d="M472.647 174.578C472.647 174.578 473.303 180.991 480.92 185.047L472.716 188.6C472.716 188.6 467.668 181.975 469.548 173.877L472.647 174.578Z" fill="white"/>
<path d="M480.92 185.047L484.001 193.06L478.365 197.729L472.941 195.585L472.715 188.6L480.92 185.047Z" fill="#1D3599"/>
<path d="M478.366 197.729L472.49 222.186L461.965 227.237L458.853 217.027L472.941 195.585L478.366 197.729Z" fill="#120D80"/>
<path d="M502.257 183.064C509.041 178.307 541.376 170.159 547.415 168.507C554.693 166.517 560.849 174.346 556.544 179.75C552.876 184.355 514.7 199.44 510.103 200.011C501.803 201.046 493.765 189.014 502.257 183.064Z" fill="#FABBBD"/>
<path d="M517.287 174.099C506.936 178.608 496.972 186.784 493.622 189.86C485.655 197.167 493.38 208.723 501.583 206.642C503.631 206.123 514.953 203.285 524.619 197.548C524.922 188.24 518.597 175.186 517.287 174.099Z" fill="#FFA900"/>
<path d="M489.379 143.225C492.422 143.229 495.353 143.165 493.075 142.973C490.161 142.726 489.092 139.302 491.985 139.547C495.612 139.85 499.736 139.824 503.207 141.159C506.961 142.604 510.639 151.272 513.61 153.627C514.808 154.575 509.954 159.948 508.703 159.687C504.531 158.816 501.937 154.489 501.311 154.339C499.411 154.359 498.388 154.612 496.612 154.824C494.343 155.093 492.159 151.911 494.413 151.643C495.846 151.473 495.589 150.847 493.547 151.011C490.934 151.221 488.882 147.813 491.476 147.603C492.574 147.515 492.957 147.152 491.478 147.151C488.475 147.144 486.398 143.219 489.379 143.225Z" fill="#FABBBD"/>
<path d="M546.737 179.878C538.907 178.419 513.186 164.247 508.279 161.664C502.364 158.553 503.791 148.166 510.199 150.673C516.384 153.093 552.427 164.734 555.615 167.039C561.371 171.204 556.536 181.707 546.737 179.878Z" fill="#FABBBD"/>
<path d="M486.987 152.95L481.825 148.868L482.251 148.334L487.413 152.414L486.987 152.95Z" fill="#0B1440"/>
<path d="M506.449 162.348C506.658 161.82 505.013 157.283 504.567 157.244C504.513 157.219 498.075 168.397 496.954 169.086C496.128 169.595 494.555 170.926 495.364 171.989C496.115 172.977 497.692 173.169 498.731 172.678C505.38 169.534 505.92 163.688 506.449 162.348Z" fill="#0B1440"/>
<path d="M489.599 143.05L479.526 159.739C476.802 164.253 478.583 170.319 483.501 173.288C488.42 176.257 494.615 175.003 497.339 170.49L497.564 170.117C497.564 170.117 501.539 173.874 504.56 168.868C507.583 163.861 504.283 162.824 504.283 162.824L509.11 154.826L489.599 143.05Z" fill="#FABBBD"/>
<path d="M504.283 162.824L510.421 152.655L503.495 148.475C503.466 148.523 501.293 152.134 501.263 152.183L490.81 169.502C488.983 172.529 484.575 173.218 481.597 171.282C480.674 170.681 479.959 169.898 479.454 169.02C480.345 170.702 481.706 172.204 483.502 173.288C488.421 176.257 494.616 175.003 497.34 170.49L497.565 170.117C497.565 170.117 501.539 173.874 504.561 168.868C507.583 163.86 504.283 162.824 504.283 162.824Z" fill="#DA91A7"/>
<path d="M514.407 146.693C514.409 146.675 514.42 146.662 514.421 146.642C515.024 140.145 506.708 135.438 503.4 135.461C502.803 134.04 499.957 130.685 496.408 132.025C492.244 129.64 489.2 131.687 488.164 132.848C485.696 135.604 485.023 140.233 487.803 142.975C489.67 144.817 491.951 146.624 494.541 146.116C495.385 148.622 500.249 150.683 502.821 151.03C501.559 155.197 498.048 162.811 500.036 164.005C501.008 164.587 503.988 164.187 504.283 162.824C509.703 164.99 518.289 150.985 514.407 146.693Z" fill="#0B1440"/>
<path d="M483.493 155.593C483.426 155.553 483.362 155.511 483.299 155.465L480.259 153.296C479.689 152.889 479.569 152.028 479.985 151.338L481.744 148.424C482.183 147.696 483.053 147.415 483.684 147.796L489.133 151.084C489.46 151.282 489.668 151.615 489.719 152.025C489.782 152.521 489.598 153.045 489.225 153.422L487.898 154.761C486.602 156.072 484.824 156.396 483.493 155.593ZM483.696 154.909C484.734 155.692 486.293 155.41 487.412 154.28L488.739 152.941C488.96 152.716 489.077 152.396 489.041 152.108C489.027 151.996 488.972 151.787 488.779 151.67L483.331 148.381C483.023 148.195 482.575 148.375 482.332 148.778L480.573 151.692C480.339 152.079 480.376 152.538 480.658 152.739L483.696 154.909Z" fill="#0B1440"/>
<path d="M491.88 160.655C490.548 159.852 490.008 158.128 490.564 156.37L491.132 154.573C491.29 154.068 491.666 153.659 492.136 153.484C492.517 153.34 492.919 153.369 493.242 153.564L498.692 156.854C499.322 157.234 499.478 158.135 499.039 158.862L497.28 161.777C496.864 162.467 496.046 162.761 495.42 162.446L492.084 160.767C492.014 160.732 491.946 160.695 491.88 160.655ZM492.888 154.15C492.693 154.032 492.484 154.083 492.378 154.124C492.106 154.226 491.879 154.477 491.784 154.779L491.216 156.576C490.738 158.094 491.224 159.603 492.389 160.157L495.728 161.835C496.037 161.99 496.461 161.809 496.694 161.423L498.453 158.508C498.693 158.111 498.64 157.622 498.338 157.439L492.888 154.15Z" fill="#0B1440"/>
<path d="M488.939 153.52L489.025 152.843C489.108 152.852 491.11 153.118 491.766 154.53L491.147 154.82C490.645 153.744 488.956 153.523 488.939 153.52Z" fill="#0B1440"/>
<path d="M505.899 163.883L498.555 158.97L498.938 158.4L506.281 163.315L505.899 163.883Z" fill="#0B1440"/>
<path d="M331.197 228.381H397.605V224.875H331.197V228.381Z" fill="#1D3599"/>
<path d="M397.605 228.381H428.172V226.409C428.172 225.562 427.485 224.875 426.639 224.875H397.605V228.381Z" fill="#120D80"/>
<path d="M333.068 224.875H399.213L390.504 184.152C390.251 182.964 389.256 182.117 388.11 182.117H328.541C326.177 182.117 324.424 184.454 324.949 186.907L333.068 224.875Z" fill="#1D3599"/>
<path d="M331.461 224.875H397.605L388.897 184.152C388.644 182.964 387.65 182.117 386.504 182.117H325.679C323.957 182.117 322.681 183.819 323.063 185.605L331.461 224.875Z" fill="#120D80"/>
<g opacity="0.3">
<path d="M357.429 182.117L338.803 224.875H347.322L366.645 182.117H357.429Z" fill="#EFF5FF"/>
</g>
<g opacity="0.2">
<path d="M371.352 182.117L352.722 224.875H356.041L375.365 182.117H371.352Z" fill="#EFF5FF"/>
</g>
<path d="M317.257 208.781C314.842 206.601 311.384 208.441 309.567 209.703C308.713 210.267 308.142 210.767 308.071 210.83L309.375 212.303C309.378 212.3 309.477 212.214 309.636 212.089L309.657 212.109C309.663 212.105 310.035 211.78 310.611 211.373C310.998 211.114 311.448 210.84 311.936 210.597C313.606 209.769 314.859 209.715 315.656 210.436C316.051 210.794 316.264 212.05 315.846 214.058C315.434 216.038 314.532 218.186 313.429 219.806C313.016 220.414 312.407 221.184 311.697 221.732C310.999 222.194 310.223 222.415 309.442 222.028L308.286 223.986C308.847 224.263 309.423 224.4 310.005 224.4C310.916 224.4 311.837 224.056 312.735 223.404C313.638 222.819 314.519 221.923 315.338 220.72C317.686 217.266 319.601 210.899 317.257 208.781Z" fill="#FF8D00"/>
<path d="M285.008 205.454L287.156 228.273C287.156 229.312 293.085 230.155 298.318 230.155C303.552 230.155 309.763 229.312 309.763 228.273L311.629 205.454H285.008Z" fill="#FF9F00"/>
<path d="M311.629 205.453C311.629 206.569 305.67 207.472 298.318 207.472C290.968 207.472 285.008 206.569 285.008 205.453C285.008 204.338 290.968 203.435 298.318 203.435C305.67 203.435 311.629 204.338 311.629 205.453Z" fill="#FFB533"/>
<path d="M310.668 205.454C310.668 205.684 310.209 205.902 309.391 206.099C307.376 206.578 303.173 206.906 298.318 206.906C293.461 206.906 289.258 206.578 287.243 206.099C286.427 205.902 285.969 205.684 285.969 205.454C285.969 204.65 291.496 204 298.318 204C305.141 204 310.668 204.65 310.668 205.454Z" fill="#FF8D00"/>
<path d="M309.391 206.1C307.376 206.578 303.173 206.906 298.318 206.906C293.461 206.906 289.258 206.578 287.243 206.1C289.258 205.62 293.461 205.293 298.318 205.293C303.173 205.293 307.376 205.62 309.391 206.1Z" fill="#0B1440"/>
<path d="M294.286 230.002C292.653 229.879 291.116 229.69 289.893 229.448L287.885 206.745C289.366 207.033 291.329 207.262 293.594 207.398L294.286 230.002Z" fill="#FFB533"/>
<path d="M297.169 230.142C296.699 230.134 296.23 230.115 295.762 230.094L295.183 207.472C295.644 207.489 296.114 207.504 296.593 207.513L297.169 230.142Z" fill="#FFB533"/>
<path d="M236.801 362.466H230.385V234.855H236.801V362.466Z" fill="#6E8FE3"/>
<path d="M228.628 362.466H230.385V234.855H228.628V362.466Z" fill="#83A4F1"/>
<path d="M290.837 362.466H284.418V234.855H290.837V362.466Z" fill="#6E8FE3"/>
<path d="M282.662 362.466H284.418V234.855H282.662V362.466Z" fill="#83A4F1"/>
<path d="M388.566 280.717H233.18V234.855H388.566V280.717Z" fill="#2546C7"/>
<path d="M388.566 243.075H233.18V234.855H388.566V243.075Z" fill="#1D3599"/>
<path d="M396.74 362.466H390.323V234.855H396.74V362.466Z" fill="#1D3599"/>
<path d="M388.566 362.466H390.324V234.855H388.566V362.466Z" fill="#6E8FE3"/>
<path d="M460.515 362.466H454.098V234.855H460.515V362.466Z" fill="#1D3599"/>
<path d="M452.343 362.466H454.099V234.855H452.343V362.466Z" fill="#6E8FE3"/>
<path d="M464.969 236.109H220.851V228.381H464.969V236.109Z" fill="#6E8FE3"/>
<path d="M464.969 236.109H381.603V228.381H464.969V236.109Z" fill="#2546C7"/>
</g>
<mask id="mask4_5_6483" style="mask-type:luminance" maskUnits="userSpaceOnUse" x="31" y="175" width="173" height="200">
<path d="M31.5819 175.164H203.57V374.002H31.5819V175.164Z" fill="white"/>
</mask>
<g mask="url(#mask4_5_6483)">
<path d="M169.805 271.962C160.213 271.093 140.291 268.405 140.581 283.516C140.591 284.001 140.926 284.222 141.296 284.241C150.897 293.324 166.615 283.604 170.448 273.158C170.625 272.677 170.39 272.015 169.805 271.962Z" fill="#5E8FE7"/>
<path d="M132.85 289.898C132.704 289.795 132.58 289.672 132.438 289.565C132.467 282.182 131.727 273.741 124.001 270.5C123.498 270.288 122.888 270.636 122.827 271.184C121.955 279.11 125.318 286.649 131.822 291.269C132.72 291.907 133.751 290.539 132.85 289.898Z" fill="#5E8FE7"/>
<path d="M183.89 254.914C183.784 254.889 183.677 254.849 183.57 254.807C180.02 253.666 176.703 251.176 173.347 248.794C173.346 248.779 173.328 248.781 173.31 248.763C169.638 246.156 165.913 243.705 161.802 243.356C161.767 243.342 161.733 243.346 161.698 243.349C159.807 243.185 157.841 243.492 155.744 244.415C147.424 248.097 142.99 257.55 142.957 266.238C142.96 266.446 143.044 266.61 143.14 266.721C143.128 266.774 143.114 266.81 143.102 266.863C143.012 267.354 143.327 267.959 143.982 267.984C151.431 268.15 158.577 266.611 165.645 264.407C171.911 262.453 179.034 260.673 184.241 256.447C184.849 255.959 184.597 255.122 183.89 254.914Z" fill="#5E8FE7"/>
<path d="M183.075 254.132C179.789 253.033 176.592 250.894 173.348 248.794C173.347 248.779 173.329 248.78 173.311 248.764C169.588 246.349 165.82 243.988 161.803 243.356C161.767 243.342 161.733 243.345 161.698 243.349C159.808 243.185 157.842 243.492 155.745 244.415C147.425 248.097 142.99 257.549 142.957 266.238C142.96 266.446 143.045 266.61 143.14 266.721C143.129 266.774 143.115 266.81 143.102 266.862C143.391 266.817 143.651 266.655 143.796 266.383C143.964 266.333 144.113 266.267 144.234 266.101C146.745 262.85 149.466 259.789 152.127 256.661C153.413 255.164 154.63 253.31 156.123 252.016C159.301 249.254 162.277 249.435 165.957 250.133C170.355 250.972 174.469 252.817 178.559 254.577C180.086 255.257 181.632 256.506 183.214 255.597C183.493 255.451 183.599 255.114 183.57 254.807C183.54 254.499 183.36 254.224 183.075 254.132Z" fill="#73A6F4"/>
<path d="M165.895 254.132C162.306 253.818 158.97 254.452 155.896 255.729C157.254 254.466 158.701 253.305 160.254 252.277C161.159 251.678 160.412 250.136 159.492 250.743C156.474 252.74 153.815 255.111 151.493 257.89C151.403 257.998 151.349 258.11 151.323 258.217C145.232 262.36 140.484 268.994 137.372 275.42C135.482 279.324 134.001 283.394 132.781 287.557C131.937 285.89 131.527 284.06 131.055 282.251C130.679 280.808 130.337 279.498 129.082 278.587C128.188 277.938 127.228 279.357 128.118 280.003C129.441 280.964 129.59 283.487 129.991 284.96C130.381 286.39 130.828 287.753 131.605 289.024C131.764 289.286 132 289.403 132.243 289.433C129.465 299.619 128.156 310.313 126.455 320.59C126.275 321.676 127.985 321.787 128.164 320.708C129.747 311.142 131.018 301.336 133.419 291.875C133.545 291.843 133.672 291.787 133.791 291.671C137.261 288.326 140.854 284.973 145.097 282.773C146.247 283.996 147.615 284.954 149.176 285.609C150.195 286.037 150.756 284.417 149.743 283.994C148.608 283.517 147.603 282.849 146.73 282.016C147.901 281.514 149.108 281.078 150.393 280.785C151.465 280.543 151.131 278.863 150.052 279.108C148.361 279.49 146.778 280.069 145.269 280.78C145.007 280.776 144.762 280.919 144.59 281.127C140.749 283.071 137.41 285.894 134.229 288.893C134.981 286.242 135.809 283.616 136.802 281.045C138.816 275.832 141.832 270.111 145.806 265.43C145.838 265.426 145.864 265.434 145.898 265.425C147.887 264.91 149.899 264.585 151.95 264.45C153.044 264.378 152.696 262.7 151.609 262.772C150.322 262.857 149.055 263.043 147.795 263.276C152.606 258.434 158.617 255.214 165.777 255.842C166.876 255.937 166.993 254.228 165.895 254.132Z" fill="#1F3EA7"/>
<path d="M123.091 176.522C122.897 176.215 122.384 176.15 122.079 176.297C114.792 179.789 105.597 184.04 101.465 191.437C97.6153 198.327 100.177 206.194 103.364 212.783C103.705 213.489 104.582 213.322 104.892 212.815C104.918 212.814 104.939 212.826 104.964 212.823C123.052 211.503 132.718 191.704 123.091 176.522Z" fill="#73A6F4"/>
<path d="M97.7201 220.953C95.9705 215.607 92.9032 210.641 87.5573 208.332C81.4266 205.685 73.8217 205.572 67.3002 204.578C66.638 204.477 65.9022 205.286 66.4208 205.899C71.0946 211.426 73.3905 219.341 79.7035 223.379C85.0696 226.813 91.973 226.24 97.0381 222.578C97.295 222.394 97.3854 222.144 97.3819 221.899C97.6715 221.712 97.8583 221.377 97.7201 220.953Z" fill="#5E8FE7"/>
<path d="M145.05 225.328C140.244 223.851 135.563 225.955 131.14 227.851C126.233 229.954 121.507 232.614 117.779 236.493C111.287 243.249 108.861 253.667 115.053 261.383C115.12 261.78 115.421 262.144 115.937 262.115C124.387 261.652 126.126 255.234 128.773 248.499C132.163 239.871 137.901 232.47 145.203 226.801C145.659 226.447 145.702 225.529 145.05 225.328Z" fill="#5E8FE7"/>
<path d="M116.112 289.168C116.065 289.097 116.023 289.028 115.945 288.965C110.476 284.506 107.876 277.362 101.322 274.151C100.816 273.902 100.231 274.212 100.106 274.748C99.0101 279.408 99.4164 284.419 102.787 288.083C106.437 292.045 111.213 291.844 116.108 290.726C116.97 290.53 116.772 289.462 116.112 289.168Z" fill="#5E8FE7"/>
<path d="M115.603 220.605C114.345 220.011 113.19 221.229 112.284 221.932C110.578 223.25 108.95 224.681 107.6 226.369C105.075 229.524 103.79 233.397 104.616 237.355C104.616 237.459 104.636 237.561 104.677 237.662C104.704 237.776 104.714 237.891 104.744 238.005C104.997 238.944 106.315 238.715 106.423 237.915C110.204 235.986 112.698 232.572 114.518 228.784C115.352 227.046 118.545 221.993 115.603 220.605Z" fill="#5E8FE7"/>
<path d="M125.239 249.065C123.862 250.382 122.569 251.759 121.345 253.189C121.754 250.067 122.654 247.099 124.12 244.269C124.628 243.287 123.042 242.64 122.538 243.612C120.75 247.065 119.714 250.763 119.447 254.644C119.429 254.905 119.515 255.112 119.652 255.271C116.378 259.483 113.726 264.121 111.753 269.15C110.495 263.363 109.312 257.558 108.229 251.736C107.459 247.599 106.5 242.982 105.727 238.199C107.331 235.284 109.053 232.397 111.908 230.549C112.832 229.95 111.773 228.604 110.852 229.199C108.43 230.767 106.76 233.047 105.315 235.477C104.996 233.228 104.726 230.956 104.557 228.688C104.66 228.44 104.654 228.157 104.497 227.902C103.716 215.807 105.769 203.995 116.521 197.138C117.45 196.547 116.389 195.201 115.466 195.79C112.743 197.526 110.56 199.567 108.827 201.837C108.509 200.205 108.556 198.553 108.952 196.911C109.209 195.841 107.51 195.622 107.254 196.684C106.694 199.004 106.811 201.319 107.499 203.598C107.511 203.634 107.533 203.654 107.548 203.687C103.458 210.176 102.503 218.232 102.87 226.393C100.022 223.876 97.174 221.358 94.3267 218.838C94.5475 218.685 94.693 218.433 94.6208 218.075C94.1421 215.711 93.0896 213.584 91.4426 211.812C90.6975 211.012 89.3407 212.06 90.0941 212.87C91.3116 214.179 92.1674 215.683 92.6654 217.37C91.6073 216.434 90.5495 215.501 89.4913 214.564C88.6647 213.832 87.633 215.199 88.4556 215.927C93.3089 220.22 98.1639 224.511 103.019 228.805C103.242 231.796 103.625 234.78 104.063 237.692C104.033 237.747 104 237.802 103.97 237.858C103.738 238.284 103.922 238.635 104.237 238.829C104.684 241.677 105.178 244.45 105.64 247.062C108.028 260.518 110.903 273.881 114.214 287.134C110.927 285.863 108.816 282.912 106.878 280.072C106.256 279.161 104.909 280.218 105.53 281.129C107.754 284.389 110.254 287.773 114.2 288.966C114.37 289.016 114.523 289.006 114.666 288.97C116.821 297.477 119.156 305.938 121.672 314.348C121.987 315.401 123.561 314.722 123.246 313.675C119.116 299.866 115.484 285.915 112.352 271.851C112.498 271.77 112.626 271.645 112.699 271.439C115.564 263.412 120.133 256.305 126.295 250.412C127.084 249.658 126.037 248.301 125.239 249.065Z" fill="#1F3EA7"/>
<path d="M83.0149 248.067C78.0558 244.538 70.1405 242.525 64.1395 243.607C63.5867 243.707 63.3538 244.419 63.619 244.866C69.2103 254.257 75.5633 270.463 88.8747 269.69C88.9701 269.684 89.0474 269.653 89.1252 269.624C89.6383 269.874 90.3933 269.641 90.3798 268.904C90.2425 261.392 89.7053 252.824 83.0149 248.067Z" fill="#73A6F4"/>
<path d="M59.7849 264.502C52.4713 262.837 43.8024 265.993 39.2805 272.067C33.0093 280.494 39.5335 289.853 42.124 298.274C42.3743 299.089 43.436 299.214 43.7774 298.384C48.4548 286.993 58.6001 278.395 60.1947 265.727C60.1941 265.726 60.1941 265.726 60.1941 265.724C60.4797 265.287 60.4295 264.649 59.7849 264.502Z" fill="#5E8FE7"/>
<path d="M62.8018 272.638C62.3889 272.379 61.9728 272.517 61.71 272.796C61.3695 272.622 60.933 272.631 60.6389 273.027C57.4772 277.269 54.0084 282.765 55.5088 288.248C57.2975 294.785 63.4299 299.161 66.5556 304.978C66.9851 305.777 68.4257 305.481 68.1801 304.487C66.6299 298.233 71.3993 292.88 71.2263 286.697C71.0836 281.605 67.0615 275.326 62.8018 272.638Z" fill="#73A6F4"/>
<path d="M103.119 299.1C94.4542 295.469 86.2445 292.863 76.9347 295.815C76.2607 296.028 76.0709 297.07 76.7755 297.393C80.2764 298.994 82.1541 302.105 85.3761 303.911C87.282 304.981 89.5141 305.28 91.6679 305.299C96.4418 305.341 102.085 304.566 104.55 300.001C105.052 299.074 103.699 298.317 103.119 299.1Z" fill="#73A6F4"/>
<path d="M97.3332 287.873C95.4204 285.039 93.401 282.199 91.2065 279.502C91.2076 279.472 91.2199 279.447 91.2193 279.416C90.8467 273.948 89.5495 268.724 87.4144 263.833C87.667 263.691 87.8585 263.438 87.8407 263.065C87.6815 259.769 86.9631 256.613 85.6778 253.573C85.2493 252.562 83.6388 253.147 84.0695 254.165C84.9591 256.268 85.5548 258.423 85.8785 260.645C84.6778 258.384 83.3051 256.198 81.7216 254.117C81.0554 253.241 79.6593 254.234 80.3284 255.113C85.3176 261.672 88.3095 269.113 89.2679 277.209C86.3546 273.929 83.1176 270.962 79.3914 268.653C70.6326 263.222 58.103 262.574 50.8545 269.32C50.7262 269.034 50.4519 268.826 50.0424 268.875C46.4256 269.298 43.272 271.026 40.9913 273.866C40.3023 274.727 41.6223 275.82 42.3142 274.956C44.1713 272.643 46.6483 271.181 49.5369 270.689C47.9643 272.537 46.7288 274.819 45.9601 277.579C45.6638 278.643 47.3525 278.934 47.6461 277.88C49.6561 270.668 56.4675 266.125 63.7916 265.841C65.9211 265.759 68.0011 266.015 70.0222 266.506C63.1196 268.884 59.6151 275.383 56.6094 281.668C56.1338 282.664 57.6895 283.381 58.1651 282.387C58.7626 281.136 59.3754 279.878 60.0297 278.649C60.3595 280.365 60.9042 282.018 61.686 283.607C62.1657 284.586 63.7782 284.005 63.2925 283.016C62.2944 280.984 61.6792 278.871 61.4599 276.617C61.4485 276.496 61.41 276.395 61.3638 276.304C63.7131 272.469 66.7139 269.202 71.3775 267.855C71.8123 267.729 71.9565 267.385 71.9167 267.044C76.6229 268.581 80.9281 271.435 84.5279 274.8C91.6838 281.495 97.4975 290.02 102.292 298.935C98.651 299.298 95.1171 298.63 91.85 296.934C90.8695 296.425 90.1541 297.983 91.1304 298.489C92.7763 299.342 94.5026 299.946 96.2725 300.317C95.3448 300.655 94.4021 300.951 93.4277 301.145C92.3572 301.36 92.492 303.068 93.5703 302.854C95.1997 302.526 96.7651 302.051 98.2857 301.38C98.6136 301.235 98.7584 300.966 98.7883 300.685C100.174 300.795 101.579 300.772 102.99 300.591C103.052 300.585 103.095 300.554 103.149 300.538C105.414 304.879 107.442 309.291 109.269 313.612C109.697 314.625 111.306 314.04 110.875 313.021C107.16 304.23 102.676 295.79 97.3332 287.873Z" fill="#1F3EA7"/>
<path d="M147.386 304.981L146.025 313.47L143.577 328.669L138.255 361.806H99.2972L93.9743 328.669L91.5291 313.47L90.1674 304.981H147.386Z" fill="#FFAD00"/>
<path d="M106.432 313.47L105.072 304.981H90.1674L91.5291 313.47L93.9743 328.669L99.2972 361.806H114.201L108.879 328.669L106.432 313.47Z" fill="#FF9F00"/>
<g opacity="0.7">
<path d="M133.689 359.075C133.638 359.075 133.587 359.075 133.535 359.071C132.53 359.018 131.784 358.459 131.868 357.825L138.564 307.406C138.648 306.771 139.518 306.292 140.535 306.352C141.54 306.407 142.286 306.966 142.202 307.599L135.506 358.017C135.427 358.621 134.628 359.075 133.689 359.075Z" fill="white"/>
</g>
</g>
</g>
</svg>
