<svg width="731" height="458" viewBox="0 0 731 458" fill="none" xmlns="http://www.w3.org/2000/svg">
<g clip-path="url(#clip0_5_4465)">
<rect width="731" height="458" fill="#F2F4FF"/>
<mask id="mask0_5_4465" style="mask-type:luminance" maskUnits="userSpaceOnUse" x="0" y="0" width="731" height="458">
<path d="M731 0H0V458H731V0Z" fill="white"/>
</mask>
<g mask="url(#mask0_5_4465)">
<path d="M85.2384 391.448C85.2384 391.448 5.66928 311.53 71.7819 225.01C130.442 148.242 198.833 153.489 249.01 184.642C270.381 197.911 331.996 186.277 384.439 108.163C455.956 1.63701 703.862 66.2454 658.661 230.139C636.787 309.451 725.232 312.335 680.166 391.615L85.2384 391.448Z" fill="#EBF3F9"/>
<path d="M700.08 392.27H43.8064C43.3265 392.27 42.9342 391.878 42.9342 391.397C42.9342 390.916 43.3265 390.524 43.8064 390.524H700.08C700.559 390.524 700.952 390.916 700.952 391.397C700.952 391.878 700.559 392.27 700.08 392.27Z" fill="#2D3552"/>
<path d="M592.917 271.531L590.775 273.384C590.775 273.384 584.702 271.411 583.565 278.597C583.565 278.597 583.296 281.654 585.223 281.6C587.15 281.547 586.345 281.232 589.077 281.229C591.809 281.225 594.026 279.716 594.358 277.488L595.606 275.569L592.917 271.531Z" fill="#EA8E50"/>
<path d="M593.279 275.353C591.471 273.576 591.571 272.218 591.571 272.218C591.571 272.218 611.351 254.973 613.367 253.555C614.74 252.59 629.276 238.874 636.014 230.578C639.356 226.463 643.695 227.887 648.647 229.146L652.724 230.183C657.649 231.435 659.128 238.229 655.224 241.673C644.228 251.371 625.782 262.468 622.337 264.786C613.789 270.541 596.925 277.586 596.925 277.586C596.925 277.586 594.832 276.879 593.279 275.353Z" fill="#1E3C6F"/>
<path d="M573.254 378.204C573.254 378.204 568.443 382.048 560.84 380.328C560.84 380.328 554.715 379.128 553.474 382.205C553.474 382.205 562.948 386.662 565.346 387.886C567.156 388.809 569.06 390.295 570.408 391.448C571.476 392.36 573.09 392.183 573.943 391.066C574.337 390.548 574.788 389.932 575.282 389.219C576.661 387.224 579.82 380.819 579.82 380.819L573.254 378.204Z" fill="#223861"/>
<path d="M625.3 241.592C624.719 222.565 608.837 207.613 589.826 208.196C570.815 208.779 555.874 224.677 556.455 243.705C557.035 262.733 572.918 277.686 591.928 277.103C610.939 276.52 625.88 260.621 625.3 241.592Z" fill="#E1810E"/>
<path d="M628.304 241.5C627.723 222.473 611.84 207.521 592.829 208.104C573.818 208.687 558.876 224.585 559.457 243.613C560.038 262.641 575.92 277.594 594.931 277.011C613.942 276.428 628.884 260.529 628.304 241.5Z" fill="#FFB83D"/>
<path d="M572.392 265.843C566.288 260.095 562.785 252.312 562.529 243.927C562.273 235.542 565.296 227.559 571.037 221.449C576.781 215.338 584.557 211.833 592.935 211.576C601.312 211.319 609.288 214.34 615.392 220.088C621.497 225.835 624.999 233.618 625.255 242.002C625.511 250.387 622.49 258.37 616.746 264.482C611.004 270.592 603.228 274.098 594.85 274.355C586.472 274.612 578.497 271.589 572.392 265.843ZM564.4 243.869C564.897 260.146 578.531 272.982 594.793 272.484C611.055 271.985 623.88 258.336 623.383 242.059C622.887 225.784 609.253 212.948 592.992 213.447C576.73 213.946 563.904 227.594 564.4 243.869Z" fill="#FFA312"/>
<path d="M590.411 253.812C590.695 254.287 591.071 254.678 591.54 254.985C592.01 255.292 592.567 255.504 593.21 255.621C593.856 255.738 594.585 255.735 595.396 255.614C596.105 255.507 596.786 255.31 597.439 255.024C598.095 254.737 598.656 254.323 599.122 253.786C599.589 253.248 599.927 252.573 600.131 251.762C600.337 250.952 600.355 249.976 600.184 248.836L607.673 247.713C607.961 249.64 607.898 251.342 607.482 252.816C607.067 254.29 606.408 255.558 605.508 256.622C604.607 257.684 603.524 258.557 602.257 259.24C600.991 259.922 599.651 260.444 598.24 260.803L598.951 265.573L594.832 266.19L594.115 261.397C592.539 261.485 591.079 261.376 589.735 261.068C588.391 260.76 587.208 260.265 586.187 259.58C585.166 258.897 584.326 258.029 583.666 256.978C583.006 255.928 582.569 254.697 582.358 253.283C582.125 251.726 582.195 250.336 582.568 249.114C582.942 247.892 583.556 246.777 584.411 245.771C585.268 244.764 586.334 243.828 587.609 242.963C588.883 242.099 590.312 241.228 591.894 240.351C592.873 239.809 593.685 239.306 594.33 238.84C594.976 238.373 595.48 237.903 595.842 237.431C596.204 236.957 596.435 236.467 596.536 235.96C596.637 235.451 596.642 234.901 596.553 234.307C596.465 233.713 596.295 233.172 596.045 232.684C595.797 232.195 595.46 231.79 595.041 231.466C594.622 231.144 594.117 230.915 593.523 230.783C592.929 230.651 592.244 230.643 591.467 230.759C590.032 230.975 588.96 231.624 588.247 232.707C587.535 233.791 587.323 235.297 587.611 237.224L580.122 238.348C579.884 236.741 579.895 235.258 580.159 233.897C580.424 232.535 580.908 231.317 581.612 230.242C582.317 229.168 583.231 228.242 584.351 227.467C585.471 226.692 586.758 226.097 588.215 225.68L587.434 220.453L591.578 219.831L592.35 224.986C593.926 224.898 595.38 225.021 596.711 225.354C598.042 225.689 599.218 226.206 600.241 226.906C601.265 227.607 602.102 228.483 602.754 229.534C603.406 230.586 603.834 231.794 604.037 233.16C604.273 234.733 604.204 236.131 603.83 237.353C603.456 238.575 602.842 239.686 601.985 240.685C601.128 241.683 600.056 242.611 598.771 243.469C597.487 244.327 596.044 245.18 594.44 246.028C593.505 246.513 592.723 246.983 592.094 247.439C591.464 247.895 590.966 248.364 590.596 248.846C590.226 249.328 589.985 249.841 589.872 250.383C589.759 250.925 589.752 251.534 589.853 252.207C589.942 252.803 590.127 253.337 590.411 253.812Z" fill="#FFA312"/>
<path d="M570.302 376.418C570.302 376.418 573.51 383.244 580.391 381.761C580.391 381.761 594.156 369.655 603.472 357.233C606.498 353.198 609.055 349.13 610.518 345.434C616.488 330.352 633.147 307.619 643.826 296.029L615.944 286.89C615.944 286.89 607.652 304.946 596.566 327.154C588.576 343.153 579.137 361.308 570.302 376.418Z" fill="#2B468A"/>
<path d="M596.565 327.153L603.471 357.233C606.498 353.197 609.054 349.13 610.517 345.434C616.486 330.353 633.145 307.62 643.825 296.03L615.943 286.891C615.943 286.891 607.651 304.946 596.565 327.153Z" fill="#223861"/>
<path d="M620.768 380.768C620.768 380.768 621.237 386.28 614.574 387.222C614.574 387.222 610.752 387.359 610.849 390.872L630.285 390.339C630.285 390.339 630.805 388.904 630.85 385.863C630.884 383.529 628.335 377.507 628.335 377.507L620.768 380.768Z" fill="#223861"/>
<path d="M624.988 286.613C624.988 286.613 613.113 300.502 606.057 325.084C602.218 338.459 615.255 371.39 617.952 382.889C617.952 382.889 626.036 383.326 631.485 381.023C631.485 381.023 631.175 357.114 627.388 338.794C625.269 328.542 642.893 316.253 650.181 297.386C655.141 284.551 648.645 284.967 640.643 284.907L624.988 286.613Z" fill="#2B468A"/>
<path d="M637.323 225.893C644.276 229.547 658.161 225.555 658.161 225.555C658.161 225.555 652.28 219.226 654.543 208.675L649.259 211.567L643.585 214.674C643.585 214.674 643.268 216.535 643.11 219.865C643.07 220.722 643.04 221.68 643.031 222.725C639.554 223.898 637.323 225.893 637.323 225.893Z" fill="#FFAF7A"/>
<path d="M614.08 286.246C614.116 287.449 615.518 287.983 615.814 288.033C618.586 288.452 626.376 291.213 633.332 291.687C639.189 292.121 644.593 291.373 650.512 289.994C651.296 289.811 653.132 289.253 653.241 288.494C653.379 287.663 674.793 241.25 656.464 222.158C656.033 221.71 652.558 222.647 649.381 223.506C646.446 224.298 643.722 223.991 641.272 223.092L638.319 224.764C634.695 226.933 627.942 234.452 627.301 240.208C626.976 243.135 625.376 245.346 624.972 247.925C624.822 248.878 624.668 249.81 624.509 250.719C624.201 252.501 623.878 254.196 623.541 255.811C622.63 260.178 621.644 263.945 620.661 267.201C619.615 270.659 618.574 273.54 617.638 275.952C616.425 279.08 615.392 281.423 614.754 283.211C614.304 284.47 614.055 285.455 614.08 286.246Z" fill="#D2E2FB"/>
<path d="M614.755 283.211C646.489 267.041 656.749 237.546 656.749 237.546C656.749 237.546 630.885 248.007 624.51 250.719C624.2 252.501 623.877 254.198 623.541 255.813C622.631 260.179 621.644 263.945 620.661 267.202C619.615 270.66 618.575 273.541 617.639 275.953C616.426 279.081 615.391 281.422 614.755 283.211Z" fill="#A3C7FB"/>
<path d="M595.653 274.989L592.902 276.096C592.902 276.096 587.21 272.323 583.937 278.842C583.937 278.842 582.767 281.682 584.772 282.229C586.777 282.776 586.037 282.227 588.857 283.072C591.677 283.917 594.407 283.163 595.401 281.134L597.25 279.688L595.653 274.989Z" fill="#FFAF7A"/>
<path d="M593.48 278.998C592.37 276.344 591.862 275.142 591.862 275.142C591.862 275.142 612.362 257.345 614.46 255.809C615.889 254.762 630.089 243.443 636.915 234.754C640.301 230.443 645.785 228.352 651.178 229.312L655.619 230.103C660.982 231.058 662.919 237.756 658.894 241.429C647.557 251.776 628.274 263.965 624.686 266.487C615.78 272.748 595.933 281.749 595.933 281.749C595.933 281.749 594.352 281.083 593.48 278.998Z" fill="#D2E2FB"/>
<path d="M643.11 219.865C649.843 220.037 654.044 214.349 654.044 214.349C654.044 214.349 650.954 212.757 649.259 211.567L643.584 214.675C643.584 214.675 643.267 216.536 643.11 219.865Z" fill="#EA8E50"/>
<path d="M640.034 213.044C640.034 213.044 650.442 220.048 654.701 213.493C658.959 206.939 663.169 203.427 656.705 198.679C650.239 193.93 647.31 195.583 645.357 197.425C643.404 199.267 637.437 211.054 640.034 213.044Z" fill="#FFAF7A"/>
<path d="M644.105 191.662C644.395 189.184 645.162 187.424 645.162 187.424C645.162 187.424 645.882 190.053 650.709 189.539C655.537 189.025 663.232 189.633 665.957 195.073C666.131 195.419 666.286 195.776 666.425 196.142C666.851 194.904 666.907 193.067 666.907 193.067C667.898 195.415 667.07 198.414 667.07 198.414C667.087 198.5 667.099 198.588 667.115 198.674C668.21 199.544 669.194 202.326 669.194 202.326C668.847 201.552 668.045 201.064 667.335 200.771C667.487 205.065 665.877 209.316 662.861 210.659C658.451 212.624 658.444 211.229 654.044 214.347C654.044 214.347 652.793 212.889 653.584 211.858C654.376 210.828 657.435 209.271 655.656 207.864C653.877 206.454 653.288 208.119 652.618 207.133C651.948 206.148 655.054 203.126 650.863 200.51C646.671 197.895 643.815 194.141 644.105 191.662Z" fill="#223861"/>
<path d="M211.391 385.021V389.005C211.391 389.322 211.275 389.617 211.078 389.862C210.869 390.119 210.571 390.322 210.22 390.437C210.113 390.472 210.001 390.498 209.885 390.516C209.781 390.531 209.674 390.54 209.564 390.54H134.074C133.102 390.54 132.299 389.891 132.25 389.084C132.249 389.058 132.248 389.031 132.248 389.005V385.021C132.248 384.995 132.249 384.968 132.25 384.942C132.299 384.134 133.102 383.486 134.074 383.486H209.564C209.674 383.486 209.781 383.494 209.885 383.511C210.001 383.527 210.113 383.553 210.22 383.588C210.571 383.702 210.869 383.906 211.078 384.164C211.275 384.409 211.391 384.704 211.391 385.021Z" fill="#FFB83D"/>
<path d="M174.322 390.54H133.879C133.011 390.54 132.296 389.891 132.251 389.084C132.25 389.058 132.249 389.031 132.249 389.005V385.021C132.249 384.995 132.25 384.968 132.251 384.942C132.296 384.134 133.011 383.486 133.879 383.486H169.355C169.922 385.563 171.243 388.434 174.322 390.54Z" fill="#FFA312"/>
<path d="M202.206 390.54H201.348V383.486H202.206V390.54Z" fill="#FFA312"/>
<path d="M199.301 390.54H198.443V383.486H199.301V390.54Z" fill="#FFA312"/>
<path d="M195.819 390.54H194.961V383.486H195.819V390.54Z" fill="#FFA312"/>
<path d="M190.481 390.54H189.623V383.486H190.481V390.54Z" fill="#FFA312"/>
<path d="M184.836 390.54H183.978V383.486H184.836V390.54Z" fill="#FFA312"/>
<path d="M176.182 390.54H175.324V383.486H176.182V390.54Z" fill="#FFA312"/>
<path d="M168.078 390.54H167.22V383.486H168.078V390.54Z" fill="#FFA312"/>
<path d="M160.843 390.54H159.985V383.486H160.843V390.54Z" fill="#FFA312"/>
<path d="M204.97 390.54H204.113V383.486H204.97V390.54Z" fill="#FFA312"/>
<path d="M206.796 390.54H205.938V383.486H206.796V390.54Z" fill="#FFA312"/>
<path d="M208.56 390.54H207.702V383.486H208.56V390.54Z" fill="#FFA312"/>
<path d="M209.886 383.51V390.515C209.782 390.531 209.675 390.54 209.565 390.54H209.028V383.486H209.565C209.675 383.486 209.782 383.493 209.886 383.51Z" fill="#FFA312"/>
<path d="M211.079 384.164V389.862C210.87 390.119 210.571 390.322 210.221 390.437V383.588C210.571 383.702 210.87 383.906 211.079 384.164Z" fill="#FFA312"/>
<path d="M203.321 377.966V381.951C203.321 382.268 203.205 382.563 203.007 382.807C202.799 383.066 202.5 383.268 202.149 383.382C202.043 383.418 201.93 383.444 201.815 383.461C201.71 383.477 201.604 383.486 201.493 383.486H126.004C125.031 383.486 124.229 382.836 124.18 382.028C124.179 382.002 124.178 381.976 124.178 381.951V377.966C124.178 377.94 124.179 377.914 124.18 377.887C124.229 377.079 125.031 376.431 126.004 376.431H201.493C201.542 376.431 201.591 376.432 201.638 376.436C201.658 376.437 201.679 376.438 201.7 376.441C201.721 376.443 201.744 376.446 201.767 376.449C201.784 376.45 201.799 376.455 201.815 376.456C201.93 376.473 202.043 376.499 202.149 376.535C202.165 376.54 202.181 376.545 202.197 376.551C202.213 376.557 202.229 376.562 202.244 376.568C202.274 376.579 202.306 376.592 202.335 376.605C202.352 376.612 202.371 376.622 202.389 376.63C202.404 376.638 202.419 376.644 202.434 376.653C202.464 376.667 202.492 376.682 202.52 376.698C202.552 376.718 202.584 376.737 202.614 376.757C202.638 376.773 202.661 376.788 202.685 376.805C202.685 376.805 202.687 376.807 202.689 376.809C202.704 376.82 202.72 376.831 202.735 376.844C202.782 376.879 202.827 376.918 202.868 376.958C202.881 376.97 202.893 376.982 202.904 376.994C202.916 377.006 202.928 377.018 202.939 377.031C202.962 377.056 202.986 377.082 203.007 377.108C203.205 377.354 203.321 377.649 203.321 377.966Z" fill="#FFB83D"/>
<path d="M166.251 383.486H125.808C124.938 383.486 124.224 382.836 124.18 382.028C124.179 382.002 124.178 381.977 124.178 381.951V377.966C124.178 377.94 124.179 377.914 124.18 377.887C124.224 377.079 124.938 376.431 125.808 376.431H161.283C161.299 376.489 161.316 376.546 161.333 376.605C161.925 378.665 163.255 381.438 166.251 383.486Z" fill="#FFA312"/>
<path d="M194.134 383.486H193.276V376.431H194.134V383.486Z" fill="#FFA312"/>
<path d="M191.231 383.486H190.373V376.431H191.231V383.486Z" fill="#FFA312"/>
<path d="M187.747 383.486H186.889V376.431H187.747V383.486Z" fill="#FFA312"/>
<path d="M182.409 383.486H181.551V376.431H182.409V383.486Z" fill="#FFA312"/>
<path d="M176.764 383.486H175.906V376.431H176.764V383.486Z" fill="#FFA312"/>
<path d="M168.109 383.486H167.252V376.431H168.109V383.486Z" fill="#FFA312"/>
<path d="M160.008 383.486H159.15V376.431H160.008V383.486Z" fill="#FFA312"/>
<path d="M152.772 383.486H151.914V376.431H152.772V383.486Z" fill="#FFA312"/>
<path d="M196.899 383.486H196.041V376.431H196.899V383.486Z" fill="#FFA312"/>
<path d="M198.725 383.486H197.867V376.431H198.725V383.486Z" fill="#FFA312"/>
<path d="M200.489 383.486H199.631V376.431H200.489V383.486Z" fill="#FFA312"/>
<path d="M201.816 376.455V383.461C201.711 383.477 201.604 383.486 201.494 383.486H200.958V376.431H201.494C201.604 376.431 201.711 376.439 201.816 376.455Z" fill="#FFA312"/>
<path d="M203.007 377.108V382.807C202.8 383.066 202.5 383.268 202.149 383.382V376.535C202.5 376.649 202.8 376.851 203.007 377.108Z" fill="#FFA312"/>
<path d="M207.221 371.086V375.07C207.221 375.387 207.105 375.682 206.907 375.927C206.7 376.185 206.401 376.388 206.05 376.502C205.943 376.538 205.831 376.564 205.716 376.581C205.611 376.597 205.504 376.605 205.394 376.605H129.904C129.602 376.605 129.315 376.542 129.063 376.431C128.528 376.196 128.147 375.744 128.087 375.217C128.083 375.195 128.081 375.171 128.081 375.149C128.079 375.123 128.078 375.096 128.078 375.07V371.086C128.078 371.06 128.079 371.033 128.081 371.007C128.13 370.199 128.931 369.551 129.904 369.551H205.394C205.504 369.551 205.611 369.559 205.716 369.576C205.831 369.593 205.943 369.619 206.05 369.654C206.401 369.768 206.7 369.971 206.907 370.229C207.105 370.474 207.221 370.769 207.221 371.086Z" fill="#FFB83D"/>
<path d="M170.151 376.605H129.708C129.437 376.605 129.181 376.542 128.956 376.431C128.479 376.196 128.139 375.744 128.086 375.217C128.082 375.195 128.081 375.171 128.08 375.149C128.078 375.123 128.077 375.096 128.077 375.07V371.086C128.077 371.06 128.078 371.033 128.08 371.007C128.123 370.199 128.839 369.551 129.708 369.551H165.184C165.735 371.57 167 374.343 169.902 376.431C169.983 376.489 170.067 376.548 170.151 376.605Z" fill="#FFA312"/>
<path d="M198.035 376.605H197.177V369.551H198.035V376.605Z" fill="#FFA312"/>
<path d="M195.131 376.605H194.273V369.551H195.131V376.605Z" fill="#FFA312"/>
<path d="M191.648 376.605H190.79V369.551H191.648V376.605Z" fill="#FFA312"/>
<path d="M186.309 376.605H185.451V369.551H186.309V376.605Z" fill="#FFA312"/>
<path d="M180.664 376.605H179.806V369.551H180.664V376.605Z" fill="#FFA312"/>
<path d="M172.01 376.605H171.152V369.551H172.01V376.605Z" fill="#FFA312"/>
<path d="M163.908 376.605H163.05V369.551H163.908V376.605Z" fill="#FFA312"/>
<path d="M156.673 376.605H155.815V369.551H156.673V376.605Z" fill="#FFA312"/>
<path d="M200.8 376.605H199.942V369.551H200.8V376.605Z" fill="#FFA312"/>
<path d="M202.626 376.605H201.768V369.551H202.626V376.605Z" fill="#FFA312"/>
<path d="M204.39 376.605H203.532V369.551H204.39V376.605Z" fill="#FFA312"/>
<path d="M205.716 369.575V376.58C205.61 376.597 205.504 376.605 205.394 376.605H204.858V369.551H205.394C205.504 369.551 205.61 369.558 205.716 369.575Z" fill="#FFA312"/>
<path d="M206.908 370.229V375.927C206.701 376.184 206.4 376.387 206.05 376.502V369.653C206.4 369.767 206.701 369.971 206.908 370.229Z" fill="#FFA312"/>
<path d="M209.028 364.031V368.016C209.028 368.333 208.913 368.627 208.715 368.872C208.507 369.13 208.209 369.333 207.858 369.447C207.751 369.483 207.639 369.508 207.524 369.526C207.419 369.542 207.312 369.551 207.202 369.551H131.712C130.739 369.551 129.937 368.902 129.888 368.094C129.887 368.068 129.886 368.041 129.886 368.016V364.031C129.886 364.005 129.887 363.978 129.888 363.953C129.934 363.205 130.623 362.595 131.497 362.507C131.568 362.499 131.639 362.496 131.712 362.496H207.202C207.312 362.496 207.419 362.504 207.524 362.521C207.639 362.537 207.751 362.563 207.858 362.599C208.209 362.713 208.507 362.917 208.715 363.174C208.913 363.419 209.028 363.715 209.028 364.031Z" fill="#FFB83D"/>
<path d="M171.96 369.551H131.517C130.648 369.551 129.932 368.902 129.888 368.094C129.887 368.068 129.886 368.041 129.886 368.016V364.031C129.886 364.005 129.887 363.978 129.888 363.953C129.929 363.206 130.544 362.595 131.324 362.507C131.386 362.499 131.451 362.496 131.517 362.496H166.992C166.993 362.499 166.995 362.503 166.997 362.507C167.565 364.582 168.886 367.447 171.96 369.551Z" fill="#FFA312"/>
<path d="M199.843 369.551H198.985V362.496H199.843V369.551Z" fill="#FFA312"/>
<path d="M196.939 369.551H196.081V362.496H196.939V369.551Z" fill="#FFA312"/>
<path d="M193.456 369.551H192.598V362.496H193.456V369.551Z" fill="#FFA312"/>
<path d="M188.118 369.551H187.26V362.496H188.118V369.551Z" fill="#FFA312"/>
<path d="M182.473 369.551H181.615V362.496H182.473V369.551Z" fill="#FFA312"/>
<path d="M173.819 369.551H172.961V362.496H173.819V369.551Z" fill="#FFA312"/>
<path d="M165.716 369.551H164.858V362.496H165.716V369.551Z" fill="#FFA312"/>
<path d="M158.48 369.551H157.623V362.496H158.48V369.551Z" fill="#FFA312"/>
<path d="M202.608 369.551H201.75V362.496H202.608V369.551Z" fill="#FFA312"/>
<path d="M204.433 369.551H203.575V362.496H204.433V369.551Z" fill="#FFA312"/>
<path d="M206.197 369.551H205.34V362.496H206.197V369.551Z" fill="#FFA312"/>
<path d="M207.524 362.52V369.525C207.419 369.542 207.313 369.551 207.203 369.551H206.667V362.496H207.203C207.313 362.496 207.419 362.504 207.524 362.52Z" fill="#FFA312"/>
<path d="M208.716 363.174V368.872C208.508 369.131 208.208 369.333 207.858 369.447V362.6C208.208 362.714 208.508 362.916 208.716 363.174Z" fill="#FFA312"/>
<path d="M203.479 356.988V360.972C203.479 361.29 203.364 361.584 203.165 361.829C202.957 362.087 202.659 362.291 202.308 362.404C202.201 362.439 202.089 362.466 201.974 362.483C201.938 362.487 201.904 362.493 201.869 362.496C201.85 362.498 201.828 362.499 201.808 362.502C201.789 362.503 201.769 362.503 201.749 362.504C201.717 362.506 201.685 362.507 201.652 362.507H126.162C125.19 362.507 124.388 361.858 124.338 361.051C124.337 361.025 124.336 360.998 124.336 360.972V356.988C124.336 356.962 124.337 356.935 124.338 356.909C124.339 356.888 124.341 356.865 124.343 356.845C124.416 356.194 124.977 355.658 125.712 355.5C125.73 355.496 125.751 355.493 125.769 355.489C125.896 355.465 126.027 355.453 126.162 355.453H201.652C201.708 355.453 201.762 355.455 201.815 355.459C201.84 355.462 201.864 355.463 201.888 355.465C201.916 355.469 201.945 355.473 201.974 355.478C202.089 355.494 202.201 355.521 202.308 355.556C202.659 355.67 202.957 355.873 203.165 356.131C203.364 356.376 203.479 356.671 203.479 356.988Z" fill="#FFB83D"/>
<path d="M166.409 362.507H125.967C125.098 362.507 124.383 361.858 124.338 361.051C124.337 361.025 124.336 360.998 124.336 360.972V356.988C124.336 356.962 124.337 356.935 124.338 356.909C124.339 356.888 124.341 356.865 124.343 356.845C124.409 356.181 124.93 355.635 125.608 355.491C125.631 355.485 125.655 355.481 125.677 355.478C125.771 355.462 125.868 355.453 125.967 355.453H161.442C161.446 355.47 161.452 355.486 161.456 355.503C162.029 357.572 163.35 360.408 166.393 362.496C166.398 362.499 166.404 362.503 166.409 362.507Z" fill="#FFA312"/>
<path d="M194.293 362.507H193.435V355.453H194.293V362.507Z" fill="#FFA312"/>
<path d="M191.389 362.507H190.531V355.453H191.389V362.507Z" fill="#FFA312"/>
<path d="M187.906 362.507H187.048V355.453H187.906V362.507Z" fill="#FFA312"/>
<path d="M182.568 362.507H181.71V355.453H182.568V362.507Z" fill="#FFA312"/>
<path d="M176.923 362.507H176.065V355.453H176.923V362.507Z" fill="#FFA312"/>
<path d="M168.269 362.507H167.411V355.453H168.269V362.507Z" fill="#FFA312"/>
<path d="M160.166 362.507H159.308V355.453H160.166V362.507Z" fill="#FFA312"/>
<path d="M152.931 362.507H152.073V355.453H152.931V362.507Z" fill="#FFA312"/>
<path d="M197.058 362.507H196.2V355.453H197.058V362.507Z" fill="#FFA312"/>
<path d="M198.884 362.507H198.026V355.453H198.884V362.507Z" fill="#FFA312"/>
<path d="M200.648 362.507H199.79V355.453H200.648V362.507Z" fill="#FFA312"/>
<path d="M201.974 355.477V362.482C201.869 362.498 201.762 362.507 201.652 362.507H201.116V355.453H201.652C201.762 355.453 201.869 355.46 201.974 355.477Z" fill="#FFA312"/>
<path d="M203.166 356.131V361.83C202.959 362.087 202.659 362.29 202.308 362.403V355.556C202.659 355.67 202.959 355.873 203.166 356.131Z" fill="#FFA312"/>
<path d="M203.321 349.984V353.968C203.321 354.285 203.205 354.58 203.007 354.825C202.799 355.082 202.5 355.285 202.149 355.4C202.066 355.428 201.979 355.449 201.889 355.465H201.887C201.863 355.471 201.84 355.475 201.815 355.479C201.71 355.494 201.604 355.503 201.493 355.503H126.004C125.925 355.503 125.845 355.498 125.769 355.489C125.738 355.487 125.707 355.482 125.678 355.478C124.857 355.353 124.224 354.762 124.18 354.047C124.179 354.021 124.178 353.994 124.178 353.968V349.984C124.178 349.958 124.179 349.931 124.18 349.905C124.229 349.097 125.031 348.449 126.004 348.449H201.493C201.542 348.449 201.591 348.45 201.638 348.454C201.658 348.456 201.679 348.457 201.7 348.459C201.721 348.46 201.744 348.463 201.767 348.466C201.784 348.468 201.799 348.471 201.815 348.474C201.93 348.49 202.043 348.516 202.149 348.551C202.165 348.557 202.181 348.562 202.197 348.568C202.213 348.574 202.229 348.579 202.244 348.585C202.275 348.597 202.306 348.61 202.335 348.623C202.369 348.637 202.402 348.653 202.434 348.669C202.464 348.685 202.492 348.699 202.52 348.716C202.552 348.735 202.584 348.754 202.614 348.774C202.638 348.789 202.661 348.806 202.685 348.822C202.685 348.822 202.687 348.824 202.689 348.826C202.704 348.838 202.72 348.848 202.735 348.861C202.782 348.897 202.827 348.935 202.868 348.975C202.881 348.988 202.893 348.999 202.904 349.011C202.916 349.024 202.928 349.035 202.939 349.049C202.962 349.074 202.986 349.101 203.007 349.127C203.205 349.372 203.321 349.667 203.321 349.984Z" fill="#FFB83D"/>
<path d="M166.251 355.503H125.808C125.776 355.503 125.744 355.502 125.712 355.5C125.677 355.498 125.643 355.495 125.609 355.491C124.831 355.402 124.22 354.792 124.18 354.047C124.179 354.021 124.178 353.994 124.178 353.968V349.984C124.178 349.958 124.179 349.931 124.18 349.905C124.224 349.097 124.938 348.449 125.808 348.449H161.283C161.299 348.507 161.316 348.564 161.333 348.623C161.92 350.666 163.234 353.41 166.177 355.453C166.202 355.47 166.227 355.486 166.251 355.503Z" fill="#FFA312"/>
<path d="M194.134 355.503H193.276V348.449H194.134V355.503Z" fill="#FFA312"/>
<path d="M191.231 355.503H190.373V348.449H191.231V355.503Z" fill="#FFA312"/>
<path d="M187.747 355.503H186.889V348.449H187.747V355.503Z" fill="#FFA312"/>
<path d="M182.409 355.503H181.551V348.449H182.409V355.503Z" fill="#FFA312"/>
<path d="M176.764 355.503H175.906V348.449H176.764V355.503Z" fill="#FFA312"/>
<path d="M168.109 355.503H167.252V348.449H168.109V355.503Z" fill="#FFA312"/>
<path d="M160.008 355.503H159.15V348.449H160.008V355.503Z" fill="#FFA312"/>
<path d="M152.772 355.503H151.914V348.449H152.772V355.503Z" fill="#FFA312"/>
<path d="M196.899 355.503H196.041V348.449H196.899V355.503Z" fill="#FFA312"/>
<path d="M198.725 355.503H197.867V348.449H198.725V355.503Z" fill="#FFA312"/>
<path d="M200.489 355.503H199.631V348.449H200.489V355.503Z" fill="#FFA312"/>
<path d="M201.816 348.473V355.478C201.711 355.495 201.604 355.503 201.494 355.503H200.958V348.449H201.494C201.604 348.449 201.711 348.457 201.816 348.473Z" fill="#FFA312"/>
<path d="M203.007 349.127V354.825C202.8 355.082 202.5 355.286 202.149 355.4V348.551C202.5 348.666 202.8 348.869 203.007 349.127Z" fill="#FFA312"/>
<path d="M207.221 343.104V347.087C207.221 347.406 207.105 347.7 206.907 347.945C206.7 348.203 206.401 348.406 206.05 348.52C205.943 348.555 205.831 348.581 205.716 348.599C205.611 348.614 205.504 348.623 205.394 348.623H129.904C129.602 348.623 129.315 348.56 129.063 348.449C128.528 348.214 128.147 347.762 128.087 347.235C128.083 347.212 128.081 347.189 128.081 347.167C128.079 347.141 128.078 347.114 128.078 347.087V343.104C128.078 343.078 128.079 343.051 128.081 343.025C128.13 342.217 128.931 341.569 129.904 341.569H205.394C205.504 341.569 205.611 341.577 205.716 341.594C205.831 341.61 205.943 341.636 206.05 341.672C206.401 341.785 206.7 341.989 206.907 342.247C207.105 342.492 207.221 342.787 207.221 343.104Z" fill="#FFB83D"/>
<path d="M170.151 348.623H129.708C129.437 348.623 129.181 348.56 128.956 348.449C128.479 348.214 128.139 347.762 128.086 347.235C128.082 347.212 128.081 347.189 128.08 347.167C128.078 347.141 128.077 347.114 128.077 347.087V343.104C128.077 343.078 128.078 343.051 128.08 343.025C128.123 342.217 128.839 341.569 129.708 341.569H165.184C165.735 343.589 167 346.362 169.902 348.449C169.983 348.508 170.067 348.566 170.151 348.623Z" fill="#FFA312"/>
<path d="M198.035 348.623H197.177V341.569H198.035V348.623Z" fill="#FFA312"/>
<path d="M195.131 348.623H194.273V341.569H195.131V348.623Z" fill="#FFA312"/>
<path d="M191.648 348.623H190.79V341.569H191.648V348.623Z" fill="#FFA312"/>
<path d="M186.309 348.623H185.451V341.569H186.309V348.623Z" fill="#FFA312"/>
<path d="M180.664 348.623H179.806V341.569H180.664V348.623Z" fill="#FFA312"/>
<path d="M172.01 348.623H171.152V341.569H172.01V348.623Z" fill="#FFA312"/>
<path d="M163.908 348.623H163.05V341.569H163.908V348.623Z" fill="#FFA312"/>
<path d="M156.673 348.623H155.815V341.569H156.673V348.623Z" fill="#FFA312"/>
<path d="M200.8 348.623H199.942V341.569H200.8V348.623Z" fill="#FFA312"/>
<path d="M202.626 348.623H201.768V341.569H202.626V348.623Z" fill="#FFA312"/>
<path d="M204.39 348.623H203.532V341.569H204.39V348.623Z" fill="#FFA312"/>
<path d="M205.716 341.593V348.598C205.61 348.614 205.504 348.623 205.394 348.623H204.858V341.569H205.394C205.504 341.569 205.61 341.576 205.716 341.593Z" fill="#FFA312"/>
<path d="M206.908 342.247V347.945C206.701 348.203 206.4 348.406 206.05 348.52V341.672C206.4 341.785 206.701 341.989 206.908 342.247Z" fill="#FFA312"/>
<path d="M213.389 336.049V340.034C213.389 340.351 213.273 340.646 213.076 340.891C212.868 341.149 212.569 341.351 212.218 341.465C212.112 341.501 211.999 341.528 211.884 341.545C211.779 341.561 211.673 341.57 211.562 341.57H136.072C135.1 341.57 134.298 340.919 134.248 340.112C134.248 340.086 134.247 340.06 134.247 340.034V336.049C134.247 336.024 134.248 335.996 134.248 335.97C134.294 335.223 134.984 334.613 135.857 334.525C135.928 334.517 136 334.514 136.072 334.514H211.562C211.673 334.514 211.779 334.522 211.884 334.539C211.999 334.556 212.112 334.582 212.218 334.617C212.569 334.731 212.868 334.934 213.076 335.192C213.273 335.437 213.389 335.732 213.389 336.049Z" fill="#FFB83D"/>
<path d="M176.32 341.569H135.878C135.009 341.569 134.294 340.919 134.249 340.112C134.248 340.086 134.248 340.061 134.248 340.034V336.049C134.248 336.024 134.248 335.998 134.249 335.971C134.29 335.224 134.905 334.614 135.685 334.526C135.748 334.518 135.812 334.514 135.878 334.514H171.353C171.354 334.518 171.356 334.522 171.357 334.526C171.925 336.601 173.246 339.466 176.32 341.569Z" fill="#FFA312"/>
<path d="M204.205 341.569H203.347V334.514H204.205V341.569Z" fill="#FFA312"/>
<path d="M201.3 341.569H200.442V334.514H201.3V341.569Z" fill="#FFA312"/>
<path d="M197.818 341.569H196.96V334.514H197.818V341.569Z" fill="#FFA312"/>
<path d="M192.479 341.569H191.621V334.514H192.479V341.569Z" fill="#FFA312"/>
<path d="M186.834 341.569H185.976V334.514H186.834V341.569Z" fill="#FFA312"/>
<path d="M178.18 341.569H177.322V334.514H178.18V341.569Z" fill="#FFA312"/>
<path d="M170.077 341.569H169.219V334.514H170.077V341.569Z" fill="#FFA312"/>
<path d="M162.841 341.569H161.984V334.514H162.841V341.569Z" fill="#FFA312"/>
<path d="M206.969 341.569H206.111V334.514H206.969V341.569Z" fill="#FFA312"/>
<path d="M208.795 341.569H207.937V334.514H208.795V341.569Z" fill="#FFA312"/>
<path d="M210.558 341.569H209.701V334.514H210.558V341.569Z" fill="#FFA312"/>
<path d="M211.885 334.539V341.544C211.78 341.561 211.674 341.569 211.564 341.569H211.028V334.514H211.564C211.674 334.514 211.78 334.522 211.885 334.539Z" fill="#FFA312"/>
<path d="M213.078 335.192V340.891C212.869 341.149 212.57 341.351 212.22 341.465V334.618C212.57 334.732 212.869 334.934 213.078 335.192Z" fill="#FFA312"/>
<path d="M203.479 329.006V332.99C203.479 333.309 203.364 333.603 203.165 333.848C202.957 334.106 202.659 334.308 202.308 334.421C202.201 334.457 202.089 334.484 201.974 334.502C201.938 334.505 201.904 334.511 201.869 334.514C201.841 334.518 201.811 334.52 201.784 334.522C201.769 334.522 201.756 334.523 201.742 334.524C201.712 334.525 201.682 334.526 201.652 334.526H126.162C125.19 334.526 124.388 333.878 124.338 333.07C124.337 333.043 124.336 333.016 124.336 332.99V329.006C124.336 328.98 124.337 328.953 124.338 328.927C124.388 328.119 125.19 327.47 126.162 327.47H201.652C201.685 327.47 201.717 327.471 201.749 327.473C201.826 327.476 201.9 327.484 201.974 327.495C202.089 327.512 202.201 327.538 202.308 327.574C202.362 327.592 202.416 327.611 202.466 327.634C202.499 327.647 202.53 327.661 202.56 327.677C202.564 327.678 202.567 327.678 202.57 327.681C202.602 327.696 202.632 327.712 202.662 327.729C202.668 327.732 202.674 327.735 202.677 327.737C202.706 327.754 202.735 327.77 202.76 327.788C202.825 327.829 202.885 327.873 202.941 327.921C202.959 327.936 202.976 327.95 202.993 327.966L203.002 327.975C203.012 327.983 203.024 327.993 203.034 328.003C203.036 328.005 203.037 328.008 203.039 328.009C203.057 328.027 203.075 328.046 203.093 328.065C203.118 328.093 203.142 328.12 203.165 328.149C203.364 328.393 203.479 328.689 203.479 329.006Z" fill="#FFB83D"/>
<path d="M166.409 334.525H125.967C125.098 334.525 124.383 333.878 124.338 333.07C124.337 333.043 124.336 333.017 124.336 332.99V329.006C124.336 328.98 124.337 328.954 124.338 328.928C124.383 328.12 125.098 327.471 125.967 327.471H161.442C161.456 327.525 161.471 327.579 161.489 327.635C162.077 329.693 163.404 332.464 166.393 334.514C166.398 334.518 166.404 334.522 166.409 334.525Z" fill="#FFA312"/>
<path d="M194.293 334.525H193.435V327.471H194.293V334.525Z" fill="#FFA312"/>
<path d="M191.389 334.525H190.531V327.471H191.389V334.525Z" fill="#FFA312"/>
<path d="M187.906 334.525H187.048V327.471H187.906V334.525Z" fill="#FFA312"/>
<path d="M182.568 334.525H181.71V327.471H182.568V334.525Z" fill="#FFA312"/>
<path d="M176.923 334.525H176.065V327.471H176.923V334.525Z" fill="#FFA312"/>
<path d="M168.269 334.525H167.411V327.471H168.269V334.525Z" fill="#FFA312"/>
<path d="M160.166 334.525H159.308V327.471H160.166V334.525Z" fill="#FFA312"/>
<path d="M152.931 334.525H152.073V327.471H152.931V334.525Z" fill="#FFA312"/>
<path d="M197.058 334.525H196.2V327.471H197.058V334.525Z" fill="#FFA312"/>
<path d="M198.884 334.525H198.026V327.471H198.884V334.525Z" fill="#FFA312"/>
<path d="M200.648 334.525H199.79V327.471H200.648V334.525Z" fill="#FFA312"/>
<path d="M201.974 327.495V334.501C201.869 334.517 201.762 334.525 201.652 334.525H201.116V327.471H201.652C201.762 327.471 201.869 327.479 201.974 327.495Z" fill="#FFA312"/>
<path d="M203.166 328.149V333.848C202.959 334.106 202.659 334.308 202.308 334.421V327.575C202.659 327.688 202.959 327.89 203.166 328.149Z" fill="#FFA312"/>
<path d="M209.028 322.114V326.099C209.028 326.416 208.913 326.711 208.715 326.956C208.507 327.213 208.209 327.416 207.858 327.53C207.751 327.566 207.639 327.592 207.524 327.61C207.419 327.625 207.312 327.634 207.202 327.634H131.712C131.42 327.634 131.142 327.575 130.896 327.47C130.347 327.239 129.953 326.779 129.893 326.24C129.891 326.219 129.889 326.198 129.888 326.177C129.887 326.151 129.886 326.124 129.886 326.099V322.114C129.886 322.089 129.887 322.062 129.888 322.036C129.934 321.288 130.623 320.678 131.497 320.59C131.568 320.582 131.639 320.579 131.712 320.579H207.202C207.312 320.579 207.419 320.587 207.524 320.604C207.639 320.621 207.751 320.647 207.858 320.682C208.209 320.796 208.507 320.999 208.715 321.257C208.913 321.502 209.028 321.798 209.028 322.114Z" fill="#FFB83D"/>
<path d="M171.96 327.634H131.517C131.256 327.634 131.008 327.576 130.789 327.47C130.297 327.239 129.946 326.779 129.893 326.24C129.891 326.219 129.889 326.199 129.888 326.177C129.887 326.151 129.886 326.125 129.886 326.099V322.114C129.886 322.089 129.887 322.062 129.888 322.036C129.929 321.289 130.544 320.678 131.324 320.59C131.386 320.582 131.451 320.579 131.517 320.579H166.992C166.993 320.582 166.995 320.587 166.997 320.59C167.55 322.613 168.819 325.385 171.728 327.47C171.804 327.526 171.882 327.58 171.96 327.634Z" fill="#FFA312"/>
<path d="M199.843 327.634H198.985V320.579H199.843V327.634Z" fill="#FFA312"/>
<path d="M196.939 327.634H196.081V320.579H196.939V327.634Z" fill="#FFA312"/>
<path d="M193.456 327.634H192.598V320.579H193.456V327.634Z" fill="#FFA312"/>
<path d="M188.118 327.634H187.26V320.579H188.118V327.634Z" fill="#FFA312"/>
<path d="M182.473 327.634H181.615V320.579H182.473V327.634Z" fill="#FFA312"/>
<path d="M173.819 327.634H172.961V320.579H173.819V327.634Z" fill="#FFA312"/>
<path d="M165.716 327.634H164.858V320.579H165.716V327.634Z" fill="#FFA312"/>
<path d="M158.48 327.634H157.623V320.579H158.48V327.634Z" fill="#FFA312"/>
<path d="M202.608 327.634H201.75V320.579H202.608V327.634Z" fill="#FFA312"/>
<path d="M204.433 327.634H203.575V320.579H204.433V327.634Z" fill="#FFA312"/>
<path d="M206.197 327.634H205.34V320.579H206.197V327.634Z" fill="#FFA312"/>
<path d="M207.524 320.604V327.61C207.419 327.626 207.313 327.634 207.203 327.634H206.667V320.579H207.203C207.313 320.579 207.419 320.587 207.524 320.604Z" fill="#FFA312"/>
<path d="M208.716 321.257V326.955C208.508 327.213 208.208 327.416 207.858 327.53V320.683C208.208 320.797 208.508 320.999 208.716 321.257Z" fill="#FFA312"/>
<path d="M211.391 315.071V319.055C211.391 319.373 211.275 319.667 211.078 319.912C210.869 320.17 210.571 320.373 210.22 320.487C210.113 320.522 210.001 320.549 209.885 320.566C209.851 320.57 209.816 320.576 209.781 320.579C209.761 320.58 209.741 320.582 209.72 320.584C209.701 320.586 209.681 320.587 209.66 320.587C209.628 320.589 209.596 320.59 209.564 320.59H134.074C133.102 320.59 132.299 319.942 132.25 319.134C132.249 319.108 132.248 319.081 132.248 319.055V315.071C132.248 315.045 132.249 315.018 132.25 314.992C132.299 314.184 133.102 313.536 134.074 313.536H209.564C209.674 313.536 209.781 313.545 209.885 313.561C210.001 313.577 210.113 313.603 210.22 313.639C210.571 313.752 210.869 313.956 211.078 314.214C211.275 314.459 211.391 314.754 211.391 315.071Z" fill="#FFB83D"/>
<path d="M174.322 320.59H133.879C133.011 320.59 132.296 319.942 132.251 319.134C132.25 319.108 132.249 319.081 132.249 319.055V315.071C132.249 315.045 132.25 315.018 132.251 314.992C132.296 314.184 133.011 313.536 133.879 313.536H169.355C169.921 315.609 171.237 318.475 174.306 320.579C174.31 320.582 174.317 320.587 174.322 320.59Z" fill="#FFA312"/>
<path d="M202.206 320.59H201.348V313.536H202.206V320.59Z" fill="#FFA312"/>
<path d="M199.301 320.59H198.443V313.536H199.301V320.59Z" fill="#FFA312"/>
<path d="M195.819 320.59H194.961V313.536H195.819V320.59Z" fill="#FFA312"/>
<path d="M190.481 320.59H189.623V313.536H190.481V320.59Z" fill="#FFA312"/>
<path d="M184.836 320.59H183.978V313.536H184.836V320.59Z" fill="#FFA312"/>
<path d="M176.182 320.59H175.324V313.536H176.182V320.59Z" fill="#FFA312"/>
<path d="M168.078 320.59H167.22V313.536H168.078V320.59Z" fill="#FFA312"/>
<path d="M160.843 320.59H159.985V313.536H160.843V320.59Z" fill="#FFA312"/>
<path d="M204.97 320.59H204.113V313.536H204.97V320.59Z" fill="#FFA312"/>
<path d="M206.796 320.59H205.938V313.536H206.796V320.59Z" fill="#FFA312"/>
<path d="M208.56 320.59H207.702V313.536H208.56V320.59Z" fill="#FFA312"/>
<path d="M209.887 313.56V320.566C209.782 320.582 209.675 320.59 209.565 320.59H209.029V313.536H209.565C209.675 313.536 209.782 313.543 209.887 313.56Z" fill="#FFA312"/>
<path d="M211.079 314.214V319.912C210.87 320.17 210.571 320.373 210.221 320.487V313.639C210.571 313.752 210.87 313.956 211.079 314.214Z" fill="#FFA312"/>
<path d="M86.2253 359.759C83.2838 340.149 96.7865 321.86 116.385 318.907C135.983 315.954 154.256 329.457 157.197 349.067C160.139 368.677 146.635 386.965 127.037 389.917C107.438 392.87 89.1669 379.369 86.2253 359.759Z" fill="#E1810E"/>
<path d="M86.2253 359.759C83.2838 340.149 96.7865 321.86 116.385 318.907C135.983 315.954 154.256 329.457 157.197 349.067C160.139 368.677 146.635 386.965 127.037 389.917C107.438 392.87 89.1669 379.369 86.2253 359.759Z" fill="#E1810E"/>
<path d="M86.2253 359.759C83.2838 340.149 96.7865 321.86 116.385 318.907C135.983 315.954 154.256 329.457 157.197 349.067C160.139 368.677 146.635 386.965 127.037 389.917C107.438 392.87 89.1669 379.369 86.2253 359.759Z" fill="#E1810E"/>
<path d="M83.1306 360.225C80.189 340.615 93.6918 322.325 113.29 319.373C132.888 316.42 151.161 329.923 154.102 349.532C157.044 369.142 143.54 387.431 123.942 390.383C104.344 393.336 86.0721 379.835 83.1306 360.225Z" fill="#FFB83D"/>
<path d="M123.532 387.648C114.895 388.949 106.271 386.807 99.2477 381.617C92.2253 376.427 87.6433 368.809 86.3471 360.168C85.051 351.528 87.1956 342.897 92.385 335.867C97.5755 328.837 105.19 324.248 113.827 322.947C122.463 321.645 131.086 323.788 138.109 328.978C145.132 334.168 149.714 341.786 151.01 350.426C152.306 359.067 150.161 367.699 144.972 374.728C139.782 381.758 132.169 386.347 123.532 387.648ZM114.116 324.877C97.3522 327.403 85.7606 343.104 88.2767 359.878C90.7928 376.651 106.478 388.243 123.242 385.717C140.006 383.191 151.597 367.49 149.081 350.717C146.565 333.943 130.88 322.352 114.116 324.877Z" fill="#FFA312"/>
<path d="M124.54 364.017C124.518 363.307 124.397 362.685 124.181 362.15C123.963 361.615 123.621 361.134 123.153 360.709C122.684 360.283 122.085 359.896 121.355 359.547C120.625 359.198 119.737 358.862 118.689 358.539C116.887 357.969 115.247 357.364 113.771 356.726C112.295 356.086 111.023 355.335 109.959 354.472C108.894 353.608 108.057 352.585 107.447 351.402C106.837 350.22 106.507 348.8 106.456 347.143C106.411 345.705 106.624 344.387 107.097 343.187C107.57 341.987 108.267 340.934 109.186 340.025C110.105 339.115 111.215 338.366 112.517 337.774C113.819 337.184 115.286 336.787 116.919 336.582L116.75 331.155L121.116 331.018L121.288 336.522C122.858 336.676 124.29 337.046 125.583 337.631C126.875 338.216 127.983 338.995 128.906 339.963C129.827 340.934 130.55 342.092 131.075 343.438C131.598 344.784 131.887 346.303 131.939 347.994L124.053 348.241C123.991 346.212 123.493 344.709 122.561 343.729C121.63 342.753 120.408 342.287 118.898 342.335C118.079 342.361 117.378 342.497 116.795 342.743C116.21 342.989 115.733 343.318 115.363 343.728C114.993 344.138 114.727 344.615 114.561 345.162C114.396 345.708 114.322 346.295 114.342 346.92C114.361 347.547 114.469 348.11 114.667 348.611C114.864 349.113 115.194 349.572 115.653 349.99C116.112 350.406 116.716 350.794 117.464 351.151C118.212 351.508 119.138 351.873 120.243 352.245C122.026 352.848 123.654 353.474 125.122 354.122C126.59 354.77 127.855 355.531 128.92 356.403C129.985 357.274 130.822 358.303 131.433 359.485C132.042 360.668 132.374 362.079 132.424 363.718C132.471 365.207 132.252 366.552 131.77 367.75C131.289 368.95 130.587 369.996 129.667 370.888C128.748 371.781 127.628 372.51 126.307 373.077C124.986 373.642 123.509 374.027 121.877 374.231L122.033 379.278L117.694 379.414L117.539 374.392C116.024 374.288 114.555 374.003 113.129 373.541C111.704 373.077 110.43 372.385 109.309 371.463C108.189 370.543 107.277 369.365 106.577 367.931C105.878 366.498 105.496 364.767 105.434 362.737L113.32 362.49C113.357 363.69 113.557 364.688 113.919 365.48C114.28 366.273 114.749 366.901 115.328 367.366C115.907 367.829 116.558 368.148 117.283 368.319C118.007 368.491 118.743 368.565 119.49 368.541C120.345 368.515 121.091 368.381 121.731 368.142C122.37 367.902 122.901 367.58 123.326 367.177C123.75 366.775 124.064 366.304 124.266 365.765C124.468 365.224 124.559 364.643 124.54 364.017Z" fill="#FFA312"/>
<path d="M190.713 305.334C187.039 311.734 182.419 314.206 182.419 314.206H163.196C163.196 314.206 193.516 300.452 190.713 305.334Z" fill="#223861"/>
<path d="M167.921 217.98C166.089 217.209 163.837 216.567 162.799 216.601C162.052 216.625 159.31 216.632 158.572 216.643C148.109 217.102 145.079 225.763 143.549 229.948C141.878 235.938 140.03 236.844 134.666 241.36C123.912 250.412 124.495 264.558 136.803 266.218C140.647 267.403 145.151 267.062 145.151 267.062C145.239 267.125 160.141 253.961 168.481 249.365C180.166 243.058 172.982 220.143 167.921 217.98Z" fill="#223861"/>
<path d="M163.508 249.085C163.545 249.108 159.404 250.524 156.636 249.297C154.032 248.145 152.059 243.855 152.097 243.853C153.282 243.798 154.582 242.762 155.584 235.959L156.089 236.139L164.572 239.195C164.572 239.195 163.957 241.92 163.559 244.514C163.225 246.691 163.044 248.777 163.508 249.085Z" fill="#FFB17C"/>
<path d="M164.572 239.195C164.572 239.195 163.957 241.92 163.559 244.513C158.688 243.635 156.774 238.776 156.089 236.14L164.572 239.195Z" fill="#EC965D"/>
<path d="M165.835 241.899C165.835 241.899 154.229 240.34 155.311 233.12C156.392 225.9 155.623 220.837 163.078 221.527C170.533 222.218 171.557 225.188 171.781 227.685C172.007 230.183 168.882 242.118 165.835 241.899Z" fill="#FFB17C"/>
<path d="M171.359 223.729C171.359 223.729 163.93 230.137 158.876 230.654C153.823 231.17 151.909 229.547 151.909 229.547C151.909 229.547 154.888 227.071 156.681 223.076C157.21 221.899 158.325 221.091 159.61 220.98C163.219 220.668 170.058 220.525 171.359 223.729Z" fill="#223861"/>
<path d="M166.714 223.154C166.714 223.154 169.2 225.56 169.983 227.344C170.738 229.065 170.964 233.184 170.363 234.819C170.363 234.819 174.235 227.283 172.042 223.62C169.718 219.737 166.714 223.154 166.714 223.154Z" fill="#223861"/>
<path d="M173.281 266.198C172.93 289.714 173.185 284.8 170.615 287.031C169.996 287.569 168.255 287.89 165.964 288.041C158.76 288.519 146.098 287.331 145.616 285.998C143.955 281.386 145.128 279.955 143.742 272.896C143.597 272.145 143.418 271.332 143.208 270.447C142.053 265.599 140.927 263.949 145.027 256.16C148.746 249.105 152.609 243.378 152.956 243.585C162.767 249.414 163.56 244.515 163.56 244.515C163.56 244.515 173.453 254.728 173.281 266.198Z" fill="white"/>
<path d="M213.058 357.31C213.061 358.073 213.437 358.597 214.076 358.948C214.078 358.95 214.082 358.952 214.086 358.952C215.267 359.601 217.338 359.662 219.593 359.56C219.881 359.549 220.14 359.54 220.372 359.54C220.433 359.54 220.494 359.54 220.553 359.542C220.599 359.541 220.647 359.543 220.693 359.543C222.924 359.595 222.688 360.264 226.928 360.621C231.762 361.026 233.541 359.545 233.824 358.87C234.064 358.297 231.989 357.651 229.671 356.914C229.559 356.879 229.447 356.842 229.332 356.806C229.024 356.709 228.714 356.606 228.405 356.507C225.645 355.593 225.151 354.458 222.946 351.422C221.156 348.956 215.295 335.562 215.295 335.562L209.727 338.988C209.727 338.988 215.589 348.599 215.112 351.294C214.854 352.733 213.902 353.588 213.523 354.821C213.495 354.907 213.469 354.993 213.446 355.08C213.25 355.804 213.055 356.545 213.058 357.31Z" fill="#FFB17C"/>
<path d="M212.825 357.224C212.828 357.987 213.204 358.51 213.843 358.861C213.845 358.863 213.848 358.866 213.853 358.866C215.11 359.446 217.149 359.527 219.355 359.461C219.644 359.452 219.904 359.45 220.139 359.454C220.2 359.454 220.261 359.453 220.319 359.456C220.366 359.455 220.414 359.457 220.46 359.457C222.69 359.508 222.455 360.178 226.695 360.534C231.528 360.94 233.308 359.458 233.591 358.784C233.83 358.211 231.755 357.565 229.438 356.827C228.788 357.08 225.69 358.161 222.024 357.471C218.798 356.869 215.593 355.267 213.29 354.734C213.262 354.821 213.236 354.907 213.213 354.994C213.017 355.718 212.821 356.458 212.825 357.224Z" fill="#223861"/>
<path d="M205.345 305.703L211.275 321.206L219.017 341.446C219.017 341.446 217.612 342.948 215.767 343.821C214.067 344.622 211.611 344.965 211.611 344.965C211.611 344.965 198.79 327.202 193.46 315.218C192.091 312.143 191.218 309.448 191.182 307.531C191.003 298.148 205.345 305.703 205.345 305.703Z" fill="#223861"/>
<path d="M211.684 320.782L220.071 340.764C220.071 340.764 218.714 342.311 216.899 343.242C215.226 344.097 212.782 344.518 212.782 344.518C212.782 344.518 199.397 327.177 193.687 315.369L211.684 320.782Z" fill="#2B468A"/>
<path d="M198.328 286.561C194.543 285.339 183.749 286.908 172.906 289.033L170.636 285.284L147.214 283.453C147.214 283.453 139.486 300.609 143.717 311.541C144.339 313.148 145.878 313.826 147.985 313.86L147.987 313.862C147.987 313.862 161.963 314.203 166.489 314.203C178.137 314.203 191.14 306.189 192.821 305.852C195.575 305.301 206.863 289.316 198.328 286.561Z" fill="#2B468A"/>
<path d="M210.438 357.412C210.222 359.429 213.025 359.964 216.277 360.176C219.53 360.389 218.537 361.041 222.985 361.919C227.434 362.796 229.24 361.602 229.572 361.003C229.868 360.473 227.806 359.605 225.61 358.624C225.334 358.502 225.057 358.375 224.78 358.25C222.309 357.116 220.947 354.862 219.038 352.762C217.23 350.774 215.58 344.469 215.58 344.469L209.538 343.08C209.538 343.08 211.156 348.756 211.71 351.178C212.037 352.601 211.5 354.179 211.026 355.38C210.772 356.033 210.513 356.701 210.438 357.412Z" fill="#FFB17C"/>
<path d="M216.228 360.258C219.48 360.471 218.486 361.123 222.934 362.001C227.383 362.878 229.189 361.684 229.521 361.086C229.816 360.556 227.755 359.687 225.56 358.707L225.525 358.743C225.525 358.743 222.371 359.76 218.765 358.72C215.826 357.873 213.001 356.063 210.977 355.462C210.722 356.115 210.463 356.784 210.388 357.494C210.172 359.51 212.975 360.045 216.228 360.258Z" fill="#223861"/>
<path d="M201.353 287.278C198.108 284.976 188.616 303.84 190.322 304.023C193.114 304.325 192.514 309.913 193.408 316.261C194.301 322.608 210.427 348.483 210.427 348.483C210.427 348.483 213.807 349.584 215.373 349.499C217.057 349.409 217.84 348.848 217.84 348.848C217.84 348.848 208.672 292.47 201.353 287.278Z" fill="#2B468A"/>
<path d="M163.559 244.513C163.559 244.513 173.655 246.227 174.839 250.578C176.025 254.93 183.001 280.506 183.001 280.506C183.001 280.506 177.869 281.429 175.498 279.055C173.128 276.683 167.249 257.038 167.249 257.038L163.559 244.513Z" fill="white"/>
<path d="M165.964 288.04C158.76 288.519 146.097 287.332 145.616 285.999C143.954 281.388 145.128 279.955 143.741 272.896L147.215 263.103C147.215 263.103 146.641 274.007 149.854 276.876C153.063 279.745 163.009 282.414 164.571 284.811C165.324 285.961 165.819 287.114 165.964 288.04Z" fill="#EBF3FF"/>
<path d="M157.71 283.453C157.71 283.453 164.817 281.87 165.964 282.502C167.11 283.133 169.913 285.432 170.263 286.231C170.614 287.032 167.711 285.625 166.766 285.372C166.155 285.207 164.544 285.767 163.748 286.033C160.393 287.152 158.338 286.576 158.338 286.576L157.71 283.453Z" fill="#FFB17C"/>
<path d="M152.951 243.58C152.951 243.58 143.408 244.168 140.104 248.78C135.455 255.272 126.23 282.941 131.517 286.631C137.47 290.786 158.613 287.718 158.613 287.718C158.613 287.718 159.317 284.426 158.337 282.834C157.359 281.242 141.45 278.669 140.717 277.934C139.982 277.199 149.893 263.601 149.893 261.396C149.893 259.191 152.951 243.58 152.951 243.58Z" fill="white"/>
<path d="M166.307 284.482C166.307 284.482 167.797 286.403 168.284 286.633C168.773 286.863 169.088 286.806 169.088 286.806L168.084 284.998L166.307 284.482Z" fill="#FFB17C"/>
<path d="M165.964 282.501L170.293 284.607C170.293 284.607 170.109 284.907 169.576 284.883C169.042 284.859 167.698 284.367 167.698 284.367L165.964 282.501Z" fill="#FFB17C"/>
<path d="M168.285 289.579H202.531L212.833 263.936H178.639L168.285 289.579Z" fill="#F89646"/>
<path d="M202.932 288.578H157.71V289.579H202.531L202.932 288.578Z" fill="#EC7C2B"/>
<path d="M442.949 206.728C438.132 212.314 427.248 210.811 427.248 210.811C427.248 210.811 424.172 200.253 428.99 194.668C433.807 189.082 444.691 190.584 444.691 190.584C444.691 190.584 447.766 201.143 442.949 206.728Z" fill="#A3C7FB"/>
<path d="M328.994 151.041C331.207 156.295 326.436 163.324 326.436 163.324C326.436 163.324 318.077 161.836 315.863 156.582C313.651 151.329 318.42 144.298 318.42 144.298C318.42 144.298 326.78 145.786 328.994 151.041Z" fill="#A3C7FB"/>
<path d="M441.434 357.795C441.435 357.749 441.912 352.605 439.476 351.309L439.659 351.147C440.782 351.596 441.991 352.883 442.42 354.646C442.74 355.953 442.442 356.225 442.441 356.273L441.434 357.795Z" fill="#A3C7FB"/>
<path d="M425.526 343.709C425.526 343.709 426.086 350.384 430.044 352.503C434.004 354.623 439.86 351.388 439.86 351.388C439.86 351.388 439.3 344.713 435.342 342.593C431.383 340.473 425.526 343.709 425.526 343.709Z" fill="#A3C7FB"/>
<path d="M440.586 367.447C440.55 367.186 439.918 361.074 442.511 354.409C445.001 348.004 444.022 342.439 444.013 342.384L445.638 342.455C445.67 342.693 445.546 348.107 443.492 355.446C441.644 362.049 444.311 367.611 443.693 367.583L440.586 367.447Z" fill="#A3C7FB"/>
<path d="M444.78 349.672C444.79 349.639 445.76 345.222 447.866 344.808C446.929 344.889 445.716 345.504 444.999 346.718C444.467 347.621 444.627 347.892 444.616 347.928L444.78 349.672Z" fill="#A3C7FB"/>
<path d="M451.45 350.426C448.362 349.66 446.816 345.171 446.816 345.171C446.816 345.171 450.276 341.927 453.365 342.694C456.453 343.461 457.998 347.947 457.998 347.947C457.998 347.947 454.539 351.193 451.45 350.426Z" fill="#A3C7FB"/>
<path d="M427.874 334.985C423.243 327.227 425.77 317.18 433.521 312.545C441.272 307.911 451.312 310.444 455.945 318.203C460.576 325.96 458.047 336.007 450.296 340.642C442.545 345.276 432.507 342.744 427.874 334.985Z" fill="#FFB83D"/>
<path d="M449.649 339.559C446.234 341.601 442.227 342.189 438.37 341.216C434.511 340.243 431.261 337.825 429.221 334.405C427.18 330.987 426.59 326.977 427.563 323.115C428.535 319.254 430.951 316.003 434.366 313.96C437.783 311.918 441.788 311.33 445.646 312.303C449.506 313.276 452.755 315.695 454.796 319.114C456.836 322.533 457.426 326.542 456.453 330.403C455.482 334.266 453.066 337.517 449.649 339.559ZM434.822 314.723C428.192 318.688 426.021 327.312 429.983 333.949C433.946 340.586 442.563 342.76 449.194 338.795C455.824 334.831 457.995 326.206 454.032 319.57C450.07 312.933 441.453 310.759 434.822 314.723Z" fill="#FFA312"/>
<path d="M445.987 329.422C445.855 329.127 445.696 328.885 445.514 328.697C445.329 328.51 445.102 328.366 444.831 328.269C444.56 328.17 444.24 328.11 443.871 328.088C443.504 328.068 443.071 328.08 442.574 328.125C441.715 328.197 440.919 328.225 440.187 328.211C439.454 328.197 438.789 328.1 438.19 327.92C437.591 327.74 437.063 327.453 436.6 327.06C436.138 326.668 435.753 326.126 435.445 325.436C435.178 324.838 435.041 324.246 435.032 323.658C435.024 323.07 435.135 322.506 435.365 321.964C435.595 321.421 435.934 320.913 436.38 320.439C436.827 319.965 437.377 319.543 438.03 319.175L437.02 316.917L438.837 316.103L439.86 318.394C440.549 318.188 441.217 318.095 441.863 318.119C442.509 318.142 443.11 318.278 443.667 318.527C444.223 318.777 444.729 319.14 445.182 319.617C445.636 320.094 446.019 320.684 446.335 321.388L443.053 322.857C442.676 322.012 442.207 321.464 441.644 321.212C441.083 320.962 440.487 320.977 439.859 321.258C439.519 321.409 439.246 321.589 439.042 321.793C438.839 321.999 438.694 322.219 438.61 322.456C438.525 322.693 438.495 322.941 438.52 323.2C438.545 323.459 438.615 323.718 438.732 323.978C438.848 324.24 438.991 324.458 439.161 324.635C439.331 324.813 439.549 324.949 439.815 325.046C440.08 325.143 440.402 325.201 440.78 325.222C441.156 325.244 441.609 325.238 442.14 325.204C442.996 325.149 443.791 325.131 444.521 325.151C445.252 325.17 445.917 325.271 446.517 325.455C447.116 325.638 447.648 325.927 448.11 326.319C448.571 326.713 448.954 327.251 449.259 327.933C449.536 328.553 449.676 329.157 449.681 329.746C449.685 330.335 449.571 330.898 449.338 331.432C449.104 331.967 448.758 332.469 448.3 332.936C447.841 333.402 447.285 333.821 446.632 334.189L447.57 336.29L445.765 337.097L444.83 335.007C444.175 335.224 443.506 335.36 442.825 335.411C442.143 335.463 441.487 335.391 440.855 335.195C440.223 335.002 439.636 334.663 439.093 334.179C438.55 333.696 438.09 333.032 437.713 332.188L440.994 330.719C441.217 331.219 441.474 331.605 441.763 331.876C442.052 332.148 442.359 332.332 442.683 332.428C443.007 332.523 443.337 332.544 443.673 332.491C444.008 332.439 444.33 332.343 444.641 332.203C444.996 332.045 445.289 331.859 445.517 331.647C445.744 331.436 445.913 331.208 446.022 330.965C446.132 330.722 446.183 330.469 446.174 330.206C446.166 329.944 446.104 329.683 445.987 329.422Z" fill="#FFA312"/>
<path d="M456.977 366.587L456.976 366.6L456.431 371.593L454.408 390.133L431.801 389.139L431.272 370.742L431.127 365.672L431.12 365.449L456.977 366.587Z" fill="#B4C8F7"/>
<path d="M456.976 366.599L456.43 371.591C454.753 370.922 450.084 369.288 443.918 369.017C436.131 368.675 431.272 370.742 431.272 370.742L431.127 365.672L456.976 366.599Z" fill="#9BB8EA"/>
<path d="M457.647 369.266L430.186 368.06L430.011 364.852L458.136 366.088L457.647 369.266Z" fill="#B4C8F7"/>
<path d="M454.711 391.141L431.272 390.111L431.052 388.987L455.058 390.042L454.711 391.141Z" fill="#B4C8F7"/>
<path d="M288.319 359.402C288.271 359.047 287.414 350.764 290.928 341.732C294.303 333.052 292.974 325.511 292.964 325.436L295.166 325.533C295.208 325.854 295.04 333.193 292.257 343.139C289.752 352.089 293.368 359.624 292.53 359.587L288.319 359.402Z" fill="#A3C7FB"/>
<path d="M294.003 335.313C294.016 335.267 295.33 329.284 298.185 328.723C296.915 328.831 295.272 329.665 294.3 331.311C293.579 332.535 293.796 332.899 293.782 332.948L294.003 335.313Z" fill="#A3C7FB"/>
<path d="M288.846 333.677C288.846 333.677 286.279 329.063 282.971 327.429C282.971 327.429 283.168 337.62 281.271 337.539C279.374 337.457 281.87 326.168 281.87 326.168C281.87 326.168 273.44 320.206 269.782 319.949C269.782 319.949 273.85 330.551 272.032 330.007C270.213 329.46 265.468 318.622 265.468 318.622C265.468 318.622 256.356 315.294 253.909 320.618C251.462 325.94 253.431 329.141 254.766 329.724C256.1 330.308 265.06 331.698 264.633 332.821C264.205 333.945 257.856 334.786 254.665 333.172C254.665 333.172 256.836 342.978 261.79 343.335C266.745 343.692 268.763 340.927 271.82 341.203C274.878 341.478 276.947 342.664 275.3 343.222C273.655 343.781 268.638 342.374 265.851 344.038C263.064 345.701 260.876 346.646 265.247 348.339C269.619 350.032 276.562 349.414 280.02 347.614C280.03 347.608 282.684 347.686 283.433 360.102C283.721 364.888 282.351 371.792 282.351 371.792L284.048 371.718C286.459 358.156 282.764 346.262 282.764 346.262C282.764 346.262 291.796 340.985 288.846 333.677Z" fill="#A3C7FB"/>
<path d="M299.717 330.486C298.248 330.825 296.633 329.262 296.633 329.262C296.633 329.262 297.4 327.148 298.869 326.808C300.338 326.469 301.952 328.033 301.952 328.033C301.952 328.033 301.185 330.148 299.717 330.486Z" fill="#A3C7FB"/>
<path d="M317.844 298.466C312.631 301.564 312.277 310.602 312.277 310.602C312.277 310.602 320.377 314.616 325.59 311.517C330.803 308.419 331.157 299.382 331.157 299.382C331.157 299.382 323.057 295.367 317.844 298.466Z" fill="#A3C7FB"/>
<path d="M317.844 298.466C312.631 301.564 312.278 310.602 312.278 310.602L331.157 299.382C331.157 299.382 323.058 295.367 317.844 298.466Z" fill="#D2E2FB"/>
<path d="M317.913 289.949C316.303 291.944 317.49 295.577 317.49 295.577C317.49 295.577 321.289 295.975 322.899 293.981C324.509 291.986 323.322 288.353 323.322 288.353C323.322 288.353 319.524 287.954 317.913 289.949Z" fill="#A3C7FB"/>
<path d="M273.171 304.895C272.176 292.687 281.255 281.984 293.451 280.989C305.648 279.994 316.343 289.085 317.34 301.292C318.336 313.499 309.256 324.202 297.059 325.196C284.862 326.192 274.167 317.102 273.171 304.895Z" fill="#E1810E"/>
<path d="M271.245 305.05C270.249 292.844 279.328 282.141 291.525 281.147C303.722 280.151 314.417 289.241 315.414 301.448C316.409 313.655 307.33 324.358 295.133 325.353C282.935 326.349 272.24 317.258 271.245 305.05Z" fill="#FFB83D"/>
<path d="M294.994 323.649C289.619 324.087 284.395 322.405 280.284 318.912C276.174 315.418 273.668 310.532 273.229 305.152C272.79 299.773 274.47 294.545 277.96 290.433C281.45 286.318 286.332 283.811 291.707 283.372C297.081 282.934 302.306 284.617 306.416 288.11C310.527 291.605 313.033 296.491 313.471 301.87C313.91 307.249 312.23 312.477 308.74 316.59C305.25 320.704 300.368 323.211 294.994 323.649ZM291.805 284.574C281.372 285.426 273.577 294.612 274.429 305.054C275.282 315.497 284.463 323.299 294.896 322.447C305.329 321.597 313.123 312.41 312.271 301.968C311.42 291.526 302.238 283.723 291.805 284.574Z" fill="#FFA312"/>
<path d="M296.598 309.13C296.613 308.691 296.566 308.302 296.454 307.965C296.343 307.626 296.152 307.316 295.881 307.033C295.61 306.752 295.258 306.487 294.822 306.242C294.386 305.995 293.853 305.751 293.221 305.509C292.134 305.081 291.15 304.64 290.267 304.184C289.383 303.728 288.632 303.212 288.012 302.635C287.393 302.059 286.92 301.392 286.592 300.638C286.267 299.884 286.121 298.994 286.159 297.972C286.191 297.085 286.379 296.28 286.72 295.561C287.061 294.843 287.533 294.222 288.138 293.701C288.741 293.179 289.456 292.763 290.283 292.455C291.11 292.145 292.03 291.962 293.044 291.906L293.167 288.554L295.863 288.653L295.738 292.051C296.699 292.213 297.566 292.501 298.338 292.916C299.109 293.33 299.76 293.857 300.288 294.492C300.815 295.129 301.212 295.873 301.479 296.724C301.746 297.577 301.86 298.524 301.823 299.568L296.954 299.388C297 298.136 296.756 297.188 296.223 296.547C295.689 295.905 294.957 295.567 294.025 295.532C293.52 295.514 293.082 295.569 292.712 295.697C292.342 295.824 292.034 296.005 291.789 296.242C291.544 296.479 291.359 296.762 291.235 297.092C291.11 297.422 291.041 297.781 291.027 298.166C291.013 298.553 291.056 298.905 291.157 299.222C291.258 299.54 291.441 299.836 291.707 300.113C291.972 300.39 292.328 300.653 292.774 300.905C293.22 301.156 293.776 301.42 294.44 301.695C295.515 302.143 296.491 302.597 297.368 303.058C298.245 303.518 298.993 304.04 299.613 304.622C300.233 305.205 300.706 305.873 301.033 306.627C301.359 307.382 301.504 308.265 301.467 309.278C301.434 310.196 301.243 311.016 300.897 311.734C300.55 312.454 300.074 313.07 299.471 313.579C298.868 314.091 298.147 314.493 297.31 314.786C296.472 315.079 295.547 315.255 294.533 315.311L294.419 318.428L291.74 318.329L291.853 315.228C290.925 315.1 290.031 314.864 289.172 314.518C288.313 314.173 287.557 313.693 286.905 313.078C286.253 312.463 285.741 311.7 285.37 310.786C284.998 309.874 284.836 308.791 284.881 307.538L289.749 307.718C289.722 308.459 289.803 309.081 289.993 309.585C290.182 310.088 290.446 310.496 290.783 310.806C291.121 311.116 291.509 311.34 291.948 311.477C292.388 311.612 292.837 311.689 293.298 311.706C293.826 311.725 294.292 311.675 294.695 311.554C295.099 311.433 295.44 311.257 295.718 311.026C295.997 310.797 296.209 310.519 296.356 310.195C296.503 309.871 296.583 309.516 296.598 309.13Z" fill="#FFA312"/>
<path d="M310.532 358.237L310.531 358.256L309.793 365.022L307.051 390.148L276.413 388.801L275.696 363.868L275.499 356.997L275.49 356.695L310.532 358.237Z" fill="#B4C8F7"/>
<path d="M310.531 358.255L309.793 365.021C307.52 364.113 301.191 361.899 292.835 361.532C282.282 361.068 275.699 363.866 275.699 363.866L275.501 356.996L310.531 358.255Z" fill="#9BB8EA"/>
<path d="M311.441 361.868L274.224 360.233L273.988 355.885L312.103 357.56L311.441 361.868Z" fill="#B4C8F7"/>
<path d="M307.461 391.515L275.695 390.119L275.398 388.596L307.93 390.025L307.461 391.515Z" fill="#B4C8F7"/>
<path d="M418.979 290.254C418.979 290.254 398.755 299.437 397.216 307.314C397.216 307.314 397.7 310.705 396.042 314.846L396.212 316.347C396.212 316.347 397.834 310.995 398.955 310.158C398.955 310.158 393.509 304.086 418.979 290.254Z" fill="#A3C7FB"/>
<path d="M396.042 314.846C396.042 314.846 393.361 320.134 395.884 325.916L396.692 325.597C396.692 325.597 395.137 319.09 396.456 315.58C397.774 312.07 396.042 314.846 396.042 314.846Z" fill="#A3C7FB"/>
<path d="M400.702 303.124C400.702 303.124 392.729 299.771 395.582 293.67C395.582 293.67 397.986 289.851 400.883 288.61C400.883 288.61 400.245 297.298 401.867 297.316C403.49 297.335 401.881 287.585 401.881 287.585C401.881 287.585 409.348 282.888 412.481 282.837C412.481 282.837 408.522 291.697 410.099 291.316C411.676 290.935 416.223 281.906 416.223 281.906C416.223 281.906 424.151 279.487 425.994 284.144C427.836 288.8 426.009 291.44 424.843 291.876C423.677 292.311 415.969 293.083 416.282 294.062C416.595 295.039 421.974 296.052 424.772 294.822C424.772 294.822 422.466 303.09 418.222 303.166C413.978 303.241 412.385 300.787 409.763 300.881C407.141 300.975 405.321 301.891 406.7 302.444C408.078 302.998 412.424 302.029 414.725 303.577C417.027 305.126 418.851 306.034 415.042 307.276C411.234 308.518 404.18 308.811 402.441 305.967L400.702 303.124Z" fill="#D2E2FB"/>
<path d="M348.282 239.247C348.282 239.247 342.089 230.495 335.057 227.926C335.057 227.926 337.686 248.453 333.84 248.706C329.995 248.96 332.557 225.622 332.557 225.622C332.557 225.622 314.238 215.44 306.799 215.723C306.799 215.723 317.331 236.234 313.541 235.532C309.751 234.831 297.801 213.997 297.801 213.997C297.801 213.997 278.683 209.281 274.91 220.564C271.137 231.847 275.812 237.873 278.633 238.758C281.455 239.642 299.843 240.481 299.226 242.841C298.609 245.202 285.977 248.296 279.183 245.74C279.183 245.74 285.714 265.058 295.792 264.691C305.87 264.322 309.335 258.294 315.568 258.18C321.8 258.066 326.236 260.004 323.035 261.494C319.835 262.985 309.402 261.245 304.141 265.215C298.881 269.186 294.671 271.575 303.865 274.032C313.06 276.489 326.937 273.714 333.522 269.322C333.541 269.309 338.913 268.882 343.144 293.779C344.775 303.377 343.521 317.616 343.521 317.616L346.933 317.094C348.826 289.188 338.764 265.986 338.764 265.986C338.764 265.986 355.836 253.352 348.282 239.247Z" fill="#A3C7FB"/>
<path d="M333.463 155.844C342.693 165.677 337.892 185.204 337.892 185.204C337.892 185.204 318.122 188.789 308.891 178.956C299.661 169.125 304.464 149.598 304.464 149.598C304.464 149.598 324.232 146.012 333.463 155.844Z" fill="#A3C7FB"/>
<path d="M333.129 155.844C342.359 165.677 337.558 185.204 337.558 185.204L304.13 149.598C304.13 149.598 323.898 146.012 333.129 155.844Z" fill="#D2E2FB"/>
<path d="M388.397 255.182C385.168 256.078 381.43 252.762 381.43 252.762C381.43 252.762 382.928 247.992 386.157 247.095C389.385 246.199 393.123 249.515 393.123 249.515C393.123 249.515 391.626 254.285 388.397 255.182Z" fill="#A3C7FB"/>
<path d="M369.412 276.706C369.407 276.568 370.168 261.021 362.664 257.443L363.194 256.934C366.63 258.135 370.44 261.85 371.965 267.094C373.098 270.991 372.236 271.847 372.243 271.994L369.412 276.706Z" fill="#A3C7FB"/>
<path d="M346.741 246.107C346.741 246.107 346.864 254.149 351.432 257.014C356.001 259.88 363.286 256.483 363.286 256.483C363.286 256.483 363.164 248.441 358.595 245.576C354.028 242.711 346.741 246.107 346.741 246.107Z" fill="#A3C7FB"/>
<path d="M363.517 321.2C363.376 320.418 360.668 302.106 367.592 281.7C374.244 262.093 370.56 245.47 370.531 245.305H375.427C375.554 246.015 375.892 262.331 370.679 284.692C365.988 304.815 374.747 321.2 372.882 321.2H363.517Z" fill="#A3C7FB"/>
<path d="M373.796 267.143C373.822 267.039 376.159 253.621 382.443 252.095C379.633 252.461 376.064 254.474 374.067 258.224C372.584 261.012 373.103 261.802 373.075 261.913L373.796 267.143Z" fill="#A3C7FB"/>
<path d="M326.984 203.598C323.585 176.58 342.71 151.92 369.701 148.519C396.692 145.117 421.329 164.261 424.726 191.279C428.125 218.297 408.999 242.956 382.008 246.358C355.017 249.76 330.383 230.616 326.984 203.598Z" fill="#E1810E"/>
<path d="M322.72 204.135C319.322 177.117 338.447 152.457 365.437 149.056C392.428 145.654 417.064 164.798 420.463 191.816C423.861 218.834 404.735 243.493 377.745 246.895C350.754 250.297 326.119 231.152 322.72 204.135Z" fill="#FFB83D"/>
<path d="M377.271 243.125C365.378 244.624 353.613 241.397 344.144 234.039C334.675 226.68 328.635 216.071 327.138 204.165C325.64 192.26 328.863 180.483 336.214 171.006C343.566 161.526 354.164 155.481 366.058 153.982C377.952 152.484 389.717 155.71 399.185 163.069C408.654 170.427 414.694 181.036 416.192 192.941C417.689 204.847 414.465 216.624 407.113 226.102C399.763 235.581 389.165 241.625 377.271 243.125ZM366.393 156.641C343.306 159.551 326.887 180.72 329.794 203.831C332.701 226.941 353.849 243.375 376.937 240.466C400.024 237.556 416.442 216.387 413.535 193.277C410.628 170.166 389.48 153.731 366.393 156.641Z" fill="#FFA312"/>
<path d="M379.421 210.718C379.414 209.742 379.271 208.884 378.991 208.143C378.711 207.401 378.256 206.732 377.628 206.132C376.999 205.533 376.189 204.98 375.198 204.476C374.208 203.972 372.999 203.483 371.572 203.005C369.117 202.163 366.888 201.278 364.883 200.353C362.877 199.425 361.159 198.351 359.726 197.131C358.293 195.909 357.178 194.478 356.379 192.834C355.581 191.191 355.173 189.231 355.157 186.954C355.143 184.98 355.479 183.176 356.168 181.545C356.855 179.915 357.844 178.491 359.135 177.273C360.425 176.056 361.973 175.064 363.779 174.297C365.584 173.529 367.611 173.032 369.857 172.807L369.804 165.351L375.799 165.308L375.854 172.867C378.004 173.131 379.956 173.687 381.712 174.533C383.465 175.38 384.96 176.485 386.194 177.846C387.427 179.209 388.383 180.821 389.057 182.687C389.733 184.553 390.08 186.646 390.096 188.969L379.267 189.046C379.247 186.258 378.614 184.18 377.368 182.806C376.121 181.433 374.461 180.752 372.387 180.767C371.263 180.775 370.296 180.94 369.487 181.26C368.677 181.578 368.012 182.014 367.491 182.562C366.971 183.113 366.588 183.76 366.344 184.505C366.099 185.25 365.98 186.053 365.986 186.912C365.992 187.772 366.123 188.548 366.378 189.243C366.631 189.938 367.067 190.58 367.684 191.168C368.3 191.756 369.116 192.307 370.131 192.822C371.147 193.339 372.406 193.869 373.909 194.416C376.338 195.304 378.549 196.218 380.543 197.156C382.535 198.095 384.248 199.179 385.681 200.412C387.113 201.643 388.229 203.083 389.028 204.726C389.827 206.37 390.234 208.318 390.25 210.572C390.265 212.616 389.922 214.454 389.222 216.084C388.521 217.715 387.525 219.128 386.235 220.321C384.945 221.515 383.385 222.478 381.553 223.211C379.722 223.945 377.683 224.424 375.436 224.649L375.486 231.582L369.529 231.625L369.479 224.726C367.403 224.532 365.395 224.093 363.455 223.411C361.513 222.728 359.79 221.736 358.281 220.435C356.773 219.133 355.562 217.486 354.649 215.495C353.735 213.504 353.268 211.115 353.248 208.327L364.077 208.25C364.089 209.899 364.329 211.275 364.8 212.374C365.27 213.474 365.894 214.352 366.673 215.009C367.453 215.665 368.336 216.122 369.325 216.383C370.314 216.643 371.32 216.769 372.344 216.761C373.52 216.753 374.548 216.596 375.433 216.288C376.317 215.979 377.058 215.556 377.653 215.017C378.249 214.478 378.695 213.842 378.989 213.108C379.284 212.374 379.427 211.577 379.421 210.718Z" fill="#FFA312"/>
<path d="M398.79 325.201C398.79 323.493 395.701 318.221 395.701 318.221C395.701 318.221 392.611 323.493 392.611 325.201C392.611 326.908 393.994 328.293 395.701 328.293C397.407 328.293 398.79 326.908 398.79 325.201Z" fill="#AECDFA"/>
<path d="M412.742 316.439L412.739 316.48L411.757 331.583L408.11 387.661H339.936L335.921 332.351L334.815 317.107L334.768 316.439H412.742Z" fill="#739AEF"/>
<path d="M412.739 316.479L411.757 331.584C406.621 329.792 392.349 325.49 373.755 325.49C350.272 325.49 335.921 332.351 335.921 332.351L334.815 317.108L412.739 316.479Z" fill="#608DD7"/>
<path d="M415.111 324.423H332.295L331.347 314.786H416.162L415.111 324.423Z" fill="#739AEF"/>
<path d="M409.159 390.655H338.472L337.663 387.298H410.057L409.159 390.655Z" fill="#608DD7"/>
<path d="M472.591 384.926L476.345 386.325C476.345 386.325 492.649 363.689 494.657 343.771C495.017 340.216 494.897 336.77 494.121 333.589C494.121 333.589 494.28 332.678 494.559 331.068C494.689 330.316 494.848 329.41 495.028 328.373C495.558 325.334 496.288 321.173 497.121 316.437C499.041 305.536 501.527 291.602 503.457 281.359L502.445 281.033L491.501 277.499L489.239 270.308L481.09 268.161C481.09 268.161 479.269 271.726 477.641 288.564C477.34 290.774 477.069 293.209 476.863 295.851C476.229 303.914 476.183 313.914 477.638 325.348C478.012 328.276 478.484 331.298 479.07 334.403C479.498 336.678 479.564 339.78 479.382 343.343C478.561 359.623 472.591 384.926 472.591 384.926Z" fill="#2B468A"/>
<path d="M476.864 295.851L494.56 331.068C494.689 330.316 494.849 329.411 495.029 328.373C495.559 325.334 496.288 321.174 497.122 316.437C499.041 305.536 501.527 291.602 503.457 281.359L502.445 281.034L491.502 277.499L489.24 270.308L481.09 268.161C481.09 268.161 479.269 271.726 477.642 288.564C477.341 290.774 477.069 293.209 476.864 295.851Z" fill="#223861"/>
<path d="M484.649 272.68L485.059 269.164C491.922 270.988 510.259 264.065 510.259 264.065C510.259 264.065 516.909 269.915 516.035 283.939C515.61 290.783 514.83 319.869 514.018 328.476C513.724 331.596 513.467 333.816 513.362 334.702C513.36 334.707 513.36 334.711 513.36 334.711C513.328 334.981 513.422 335.237 513.56 335.472C514.755 337.507 515.747 339.623 516.56 341.79C524.539 363.072 515.331 389.281 515.331 389.281L512.941 388.317C512.941 388.317 507.702 359.149 503.445 346.264C502.722 344.078 502.029 342.36 501.394 341.334C499.543 338.343 497.825 333.457 496.266 327.645C493.319 316.658 490.947 302.364 489.368 291.331C489.151 291.341 484.649 272.68 484.649 272.68Z" fill="#2B468A"/>
<path d="M501.44 391.235H520.347C520.347 391.235 520.801 388.35 519.813 386.162C518.867 384.062 517.385 383.108 517.74 380.567C516.539 381.806 514.58 383.192 511.847 382.825C511.512 383.367 509.684 386.277 508.566 387.081C507.33 387.97 501.821 387.653 501.44 391.235Z" fill="#223861"/>
<path d="M460.843 391.235H479.75C479.75 391.235 480.456 388.218 479.216 386.163C478.117 384.346 478.538 383.31 479.352 381.807C478.496 382.158 477.388 382.476 476.167 382.406C475.226 382.351 474.229 381.925 473.356 381.417C472.542 382.346 469.057 386.298 467.969 387.082C466.733 387.971 461.223 387.653 460.843 391.235Z" fill="#223861"/>
<path d="M437.78 250.426L437.749 253.905C437.749 253.905 437.973 253.941 438.369 253.974C439.618 254.087 442.648 254.394 446.102 254.569C451.29 254.874 457.493 254.936 460.143 253.832C464.174 252.169 471.296 246.247 476.313 239.99C476.452 239.839 476.563 239.686 476.672 239.53C479.299 236.206 481.303 232.808 481.872 229.934C482.236 228.179 482.279 226.631 482.123 225.254C481.922 223.438 481.353 221.935 480.703 220.768C480.616 220.581 480.531 220.396 480.385 220.228C479.29 218.414 478.079 217.53 478.079 217.53C477.449 217.142 476.666 217.364 475.78 218.058L475.776 218.085C475.056 218.633 474.227 219.51 473.387 220.643C473.353 220.666 473.321 220.691 473.317 220.718C473.136 220.95 472.952 221.207 472.734 221.49C472.67 221.537 472.628 221.617 472.591 221.669C472.181 222.266 471.765 222.89 471.346 223.543C466.703 230.521 461.225 241.339 457.628 244.25C456.079 245.502 449.592 247.409 444.456 248.781C440.764 249.75 437.78 250.426 437.78 250.426Z" fill="#FFB17C"/>
<path d="M478.333 225.507C480.305 226.832 482.77 227.914 485.853 228.577C497.409 231.067 501.672 221.262 503.225 214.552C501.641 213.676 500.16 213.501 499.305 213.411C498.472 213.325 497.595 213.272 496.87 213.247C495.561 212.275 493.571 208.249 493.048 201.958L492.509 202.112L483.472 204.733C483.472 204.733 483.933 207.614 484.179 210.339C484.37 212.472 484.425 214.512 484.029 215.017C483.323 215.182 482.9 215.288 482.9 215.288C482.9 215.288 482.9 215.291 482.895 215.297C482.776 215.498 480.211 219.87 478.333 225.507Z" fill="#FFB17C"/>
<path d="M483.475 204.735C483.475 204.735 483.937 207.612 484.181 210.34C489.315 209.748 491.626 204.814 492.512 202.113L483.475 204.735Z" fill="#EC975F"/>
<path d="M474.2 232.699C474.251 232.947 474.311 233.189 474.381 233.439C476.327 240.27 477.627 267.491 477.627 267.491C476.1 272.107 513.365 272.211 514.14 267.912C516.144 263.54 511.481 255.266 508.777 251.057C508.439 250.529 508.148 249.973 507.91 249.397C507.306 247.954 507.026 246.387 507.108 244.81C507.429 238.593 508.58 232.9 509.078 229.407C508.511 228.829 507.959 228.291 507.447 227.78C506.664 226.995 505.978 226.268 505.5 225.565C504.972 224.798 504.684 224.053 504.759 223.276C504.818 222.69 504.931 222.096 505.086 221.509C505.158 221.231 505.238 220.955 505.325 220.679C506.248 217.792 507.907 215.304 507.907 215.304C504.979 213.542 499.297 213.413 499.297 213.413C499.297 213.413 499.255 213.723 499.178 214.229C498.875 216.264 498.032 221.482 497.225 222.367C496.216 223.467 480.463 226.492 479.94 224.698C479.424 222.932 482.763 215.577 482.888 215.299C482.891 215.293 482.892 215.29 482.892 215.29C477.592 216.459 475.549 217.82 475.549 217.82C478.247 220.249 472.85 226.159 474.2 232.699Z" fill="#F89646"/>
<path d="M481.985 207.466C481.985 207.466 494.177 206.61 493.524 199.019C492.871 191.429 494.004 186.206 486.191 186.432C478.378 186.658 477.117 189.684 476.719 192.271C476.322 194.857 478.796 207.493 481.985 207.466Z" fill="#FFB17C"/>
<path d="M492.94 179.313C493.038 178.811 494.29 173.423 502.63 174.455C502.63 174.455 498.474 174.294 497.486 175.977C497.486 175.977 500.614 174.201 502.763 175.273C504.912 176.345 505.614 180.521 505.421 181.827C505.229 183.132 503.307 187.138 501.815 187.268C501.251 187.317 500.629 187.181 500.077 186.994C500.364 187.651 500.634 188.369 500.876 189.16C503.111 196.484 498.648 202.587 495.962 201.408C494.239 200.652 493.245 203.639 493.245 203.639L478.021 186.724C478.021 186.724 486.532 174.466 492.94 179.313Z" fill="#2C3963"/>
<path d="M476.716 188.019C478.399 185.573 479.864 185.95 480.721 186.567C487.057 182.328 491.816 187.368 491.816 187.368C493.105 192.742 497.302 195.521 497.302 195.521C497.302 195.521 495.203 197.085 489.972 196.213C488.375 195.946 486.882 194.956 485.578 193.712C487.952 197.005 490.987 199.262 490.987 199.262C484.631 196.966 481.435 188.675 481.112 187.797C480.427 188.529 479.089 190.108 478.766 191.568C478.328 193.553 478.402 197.555 477.231 197.52C477.231 197.52 474.192 191.687 476.716 188.019Z" fill="#2C3963"/>
<path d="M475.558 217.822C475.558 217.822 471.944 222.315 471.319 223.52C471.319 223.52 475.015 223.962 476.052 227.024C476.052 227.024 477.709 218.846 475.558 217.822Z" fill="#F89646"/>
<path d="M501.421 220.945C507.06 220.313 510.56 225.195 510.56 225.195C511.777 217.054 507.909 215.3 507.909 215.3C506.388 214.368 504.056 216.887 501.421 220.945Z" fill="#F89646"/>
<path d="M422.431 280.106C421.726 279.469 421.009 278.789 420.272 278.062C408.278 266.175 392.149 273.33 392.149 273.33C392.054 272.938 392.057 272.584 392.117 272.278C394.378 271.254 402.764 267.984 412.035 271.027C422.896 274.593 424.667 276.464 422.431 280.106Z" fill="#B13A38"/>
<path d="M437.78 250.437C437.78 250.437 434.427 249.212 433.531 249.762C432.632 250.311 428.277 253.53 428.883 254.91C429.488 256.289 433.703 254.612 434.537 254.523C435.372 254.434 437.749 253.915 437.749 253.915L437.78 250.437Z" fill="#FFB17C"/>
<path d="M488.819 260.191C496.004 261.254 503.256 254.765 507.911 249.397C507.307 247.954 507.027 246.387 507.108 244.81C507.43 238.592 508.581 232.899 509.078 229.405C508.512 228.827 507.96 228.29 507.447 227.779C506.665 226.994 505.979 226.266 505.5 225.564C498.055 234.565 479.075 258.75 488.819 260.191Z" fill="#EC7C2B"/>
<path d="M461.092 259.794L461.507 263.543C461.507 263.543 462.777 263.515 464.799 263.462C465.406 263.443 465.757 263.413 465.757 263.413C467.377 263.353 469.324 263.231 471.444 263.106L471.472 263.111C475.113 262.825 479.204 262.438 482.693 261.84C485.151 261.395 487.309 260.845 488.822 260.193C488.976 260.131 489.101 260.065 489.259 259.975C492.92 258.11 497.931 251.708 502.152 244.663C502.737 243.69 503.294 242.714 503.847 241.766C505.845 238.225 507.553 234.697 508.733 231.603C509.456 229.76 510.012 228.062 510.294 226.639C510.402 226.138 510.506 225.666 510.548 225.212C511.78 217.059 507.916 215.294 507.916 215.294C507.836 215.252 507.756 215.211 507.648 215.165C506.965 214.942 506.159 215.303 505.255 216.11C504.119 217.109 502.81 218.83 501.414 220.94C499.24 224.309 496.815 228.732 494.507 233.144C493.233 235.561 491.987 237.983 490.772 240.209C490.069 241.565 489.379 242.836 488.734 244.001C487.492 246.222 486.403 248.007 485.511 249.103C484.938 249.818 483.474 250.709 481.566 251.672C478.25 253.363 473.486 255.284 469.359 256.816C467.646 257.465 466.03 258.044 464.689 258.522C462.522 259.301 461.092 259.794 461.092 259.794Z" fill="#FFB17C"/>
<path d="M457.352 276.288L454.625 264.751C454.27 263.246 452.836 262.266 451.334 262.435C450.301 259.435 448.631 256.867 446.586 254.924C444.43 252.875 441.859 251.526 439.176 251.111C437.761 250.893 436.309 250.937 434.875 251.276C428.155 252.862 424.066 260.391 425.144 268.592L424.777 268.678C424.777 268.678 423.709 268.433 421.9 268.145C416.185 267.238 403.071 265.936 392.954 270.824C392.954 270.824 392.285 271.344 392.115 272.272C392.055 272.578 392.052 272.933 392.146 273.325C392.146 273.325 408.278 266.167 420.272 278.058C421.009 278.784 421.727 279.465 422.431 280.102L423.177 283.259C424.413 288.494 429.702 291.766 434.934 290.531L448.133 287.415L450.883 286.765C455.541 285.666 458.455 280.95 457.352 276.288ZM434.708 263.693L429.332 264.965C427.873 265.308 426.913 266.687 427.046 268.145L426.47 268.28C425.545 260.817 429.188 254.016 435.188 252.599C436.03 252.4 436.878 252.316 437.717 252.344C440.366 252.413 442.959 253.541 445.151 255.445C447.233 257.249 448.948 259.755 450 262.725L449.207 262.912C448.673 261.553 447.202 260.747 445.741 261.089L440.363 262.361C440.121 261.333 439.275 260.601 438.292 260.445C437.98 260.395 437.652 260.406 437.327 260.48L436.583 260.657C435.232 260.977 434.388 262.341 434.708 263.693Z" fill="#C84B43"/>
<path d="M450.881 286.762L448.13 287.412C452.337 285.912 448.953 276.212 447.082 269.866C445.209 263.519 440.539 265.544 440.539 265.544C439.879 263.412 437.779 263.188 437.779 263.188C437.971 261.264 436.579 260.651 436.579 260.651L437.324 260.473C437.648 260.398 437.977 260.389 438.287 260.439C439.272 260.595 440.117 261.327 440.359 262.354L445.738 261.083C447.2 260.74 448.67 261.546 449.204 262.906L449.998 262.719C448.946 259.749 447.23 257.243 445.147 255.437C442.956 253.533 440.363 252.404 437.713 252.335C438.17 252.071 438.681 251.682 439.173 251.103C441.856 251.517 444.427 252.866 446.582 254.917C448.63 256.859 450.299 259.43 451.332 262.43C452.834 262.261 454.269 263.241 454.624 264.745L457.35 276.285C458.454 280.948 455.54 285.664 450.881 286.762Z" fill="#B13A38"/>
<path d="M448.926 261.442C450.602 262.484 452.71 265.525 457.004 264.566C460.071 263.902 463.254 263.601 464.798 263.472C465.405 263.453 465.756 263.421 465.756 263.421L464.893 258.508C464.893 258.508 464.832 258.526 464.688 258.531C463.614 258.592 458.162 258.878 455.781 257.924C453.105 256.838 447.918 259.44 447.918 259.44C447.918 259.44 447.245 260.426 448.926 261.442Z" fill="#FFB17C"/>
<path d="M482.826 144.96L487.281 143.659L487.387 143.629C487.929 143.466 488.263 142.928 488.165 142.374L487.49 138.555C487.479 138.491 487.474 138.429 487.473 138.367C487.476 137.938 487.726 137.536 488.129 137.367C490.491 136.336 492.62 134.85 494.397 132.985C494.472 132.908 494.555 132.845 494.643 132.793C494.977 132.602 495.402 132.597 495.747 132.792L498.547 134.411C498.917 134.621 499.374 134.595 499.715 134.37C499.816 134.298 499.915 134.21 499.996 134.101L502.793 130.271C503.138 129.8 503.064 129.136 502.619 128.751L499.372 125.925C499.052 125.646 498.923 125.21 499.039 124.8C499.199 124.209 499.337 123.614 499.444 123.002C499.645 121.854 499.74 120.714 499.736 119.592L499.736 119.588C499.735 119.118 500.014 118.703 500.451 118.534L504.526 116.956L504.73 116.873C505.256 116.676 505.547 116.096 505.387 115.548L504.061 110.991C503.896 110.437 503.343 110.089 502.773 110.19L498.526 110.941C498.053 111.026 497.58 110.796 497.358 110.378C496.389 108.623 495.158 107.023 493.699 105.645C493.331 105.291 493.251 104.735 493.507 104.289L495.418 100.962C495.708 100.455 495.568 99.8206 495.103 99.4826L491.264 96.6719C490.808 96.3404 490.175 96.4139 489.812 96.8354L486.488 100.651C486.208 100.977 485.765 101.11 485.35 101.004C484.837 100.87 484.316 100.754 483.786 100.661C482.786 100.486 481.793 100.391 480.814 100.371C480.369 100.365 479.971 100.094 479.815 99.6761L477.925 94.773C477.713 94.2328 477.134 93.9475 476.581 94.1069L472.009 95.4372C471.526 95.581 471.201 96.0374 471.214 96.5315C471.216 96.5815 471.218 96.6379 471.231 96.6908L472.06 101.407C472.139 101.846 471.956 102.288 471.585 102.53C471.552 102.553 471.521 102.574 471.484 102.59C471.38 102.643 471.283 102.694 471.181 102.76C469.973 103.419 468.835 104.213 467.789 105.118C467.446 105.427 466.935 105.469 466.531 105.232L463.02 103.215C462.524 102.927 461.885 103.067 461.547 103.532L460.925 104.383L458.757 107.356C458.414 107.82 458.489 108.472 458.924 108.855L462.123 111.636C462.467 111.932 462.578 112.409 462.42 112.833C462.003 113.943 461.679 115.12 461.465 116.339C461.307 117.243 461.214 118.154 461.186 119.048L460.33 119.378L456.823 120.737C456.387 120.901 456.112 121.328 456.128 121.777C456.127 121.872 456.145 121.964 456.172 122.058L457.498 126.65C457.66 127.192 458.204 127.523 458.756 127.43L461.659 126.912C462.147 126.824 462.648 127.085 462.853 127.54C463.699 129.424 464.834 131.157 466.213 132.673C466.541 133.031 466.6 133.55 466.357 133.954L463.94 138.158C463.673 138.63 463.798 139.227 464.237 139.549L468.123 142.386C468.583 142.724 469.22 142.651 469.585 142.224L473.043 138.254C473.337 137.909 473.811 137.784 474.242 137.932C475.163 138.25 476.124 138.493 477.119 138.667C477.655 138.761 478.19 138.832 478.723 138.881C479.138 138.92 479.498 139.191 479.653 139.58L481.467 144.281C481.678 144.825 482.263 145.118 482.826 144.96ZM490.424 122.631C490.063 123.863 489.468 125.088 488.614 126.271C488.435 126.525 488.206 126.785 487.953 127.049C486.848 128.166 485.196 129.221 483.88 129.6C473.811 132.471 466.276 121.922 472.07 113.371C472.167 113.232 472.264 113.093 472.366 112.955C473.313 111.658 475.365 110.226 476.901 109.77C477.707 109.532 478.498 109.381 479.264 109.303C486.934 108.567 492.475 115.612 490.424 122.631Z" fill="#DFECFA"/>
<path d="M584.024 140.616L581.091 134.078L581.019 133.921C580.657 133.127 579.762 132.73 578.938 132.999L573.246 134.848C573.152 134.88 573.057 134.901 572.964 134.915C572.307 135.002 571.639 134.709 571.294 134.127C569.216 130.735 566.493 127.794 563.265 125.474C563.133 125.376 563.018 125.262 562.921 125.14C562.555 124.668 562.459 124.019 562.683 123.45L564.561 118.818C564.803 118.207 564.666 117.515 564.251 117.042C564.119 116.901 563.964 116.769 563.78 116.668L557.333 113.208C556.541 112.781 555.54 113.037 555.046 113.801L551.42 119.373C551.062 119.921 550.423 120.213 549.773 120.122C548.834 120.005 547.896 119.923 546.938 119.889C545.141 119.827 543.381 119.927 541.666 120.173L541.657 120.173C540.941 120.275 540.248 119.936 539.897 119.305L536.617 113.407L536.449 113.113C536.035 112.351 535.087 112.029 534.285 112.393L527.602 115.397C526.79 115.767 526.376 116.689 526.652 117.538L528.702 123.877C528.932 124.582 528.684 125.353 528.092 125.784C525.616 127.642 523.432 129.869 521.638 132.397C521.174 133.034 520.342 133.278 519.606 132.981L514.116 130.768C513.279 130.434 512.342 130.784 511.924 131.568L508.444 138.045C508.035 138.812 508.281 139.764 509.004 140.231L515.54 144.501C516.097 144.86 516.397 145.506 516.322 146.167C516.226 146.979 516.163 147.8 516.133 148.631C516.078 150.201 516.142 151.74 516.318 153.24C516.404 153.922 516.075 154.591 515.47 154.919L508.38 158.86C507.6 159.3 507.287 160.248 507.648 161.059L510.654 167.771C510.977 168.478 511.744 168.878 512.494 168.751C512.572 168.737 512.657 168.724 512.734 168.692L519.766 166.415C520.419 166.199 521.133 166.385 521.582 166.901C521.622 166.945 521.664 166.99 521.696 167.042C521.801 167.19 521.898 167.329 522.02 167.469C523.284 169.178 524.739 170.748 526.344 172.154C526.888 172.614 527.065 173.385 526.787 174.056L524.452 179.86C524.117 180.681 524.465 181.627 525.248 182.044L526.68 182.816L531.687 185.495C532.47 185.922 533.447 185.666 533.939 184.919L537.511 179.43C537.889 178.84 538.594 178.567 539.277 178.718C541.062 179.12 542.928 179.363 544.836 179.429C546.251 179.478 547.662 179.424 549.034 179.276L549.72 180.515L552.545 185.589C552.888 186.222 553.597 186.552 554.281 186.431C554.426 186.411 554.564 186.366 554.701 186.302L561.436 183.291C562.23 182.928 562.618 182.024 562.359 181.2L560.95 176.871C560.712 176.14 561.005 175.319 561.655 174.908C564.355 173.211 566.764 171.102 568.784 168.667C569.263 168.089 570.043 167.887 570.711 168.173L577.649 170.969C578.427 171.277 579.313 170.96 579.712 170.218L583.22 163.664C583.637 162.888 583.391 161.929 582.661 161.462L575.858 157.022C575.269 156.644 574.979 155.947 575.114 155.255C575.404 153.779 575.568 152.255 575.624 150.694C575.653 149.855 575.648 149.022 575.609 148.197C575.581 147.55 575.917 146.942 576.48 146.622L583.276 142.84C584.063 142.4 584.386 141.443 584.024 140.616ZM548.29 133.772C550.248 134.061 552.245 134.707 554.236 135.76C554.662 135.979 555.109 136.275 555.564 136.605C557.508 138.056 559.472 140.358 560.328 142.29C566.859 157.083 552.344 170.874 538.045 163.838C537.811 163.719 537.578 163.601 537.345 163.474C535.163 162.303 532.538 159.468 531.514 157.216C530.979 156.034 530.579 154.856 530.297 153.7C527.541 142.123 537.127 132.136 548.29 133.772Z" fill="#CDE2FC"/>
</g>
</g>
<defs>
<clipPath id="clip0_5_4465">
<rect width="731" height="458" fill="white"/>
</clipPath>
</defs>
</svg>
